<?xml version="1.0" encoding="UTF-8"?><svg id="Layer_2" xmlns="http://www.w3.org/2000/svg" xmlns:xlink="http://www.w3.org/1999/xlink" viewBox="0 0 129.56 155.46"><defs><style>.cls-1{clip-path:url(#clippath);}.cls-2{fill:#ccbaac;}.cls-3{fill:#1b1917;}</style><clipPath id="clippath"><rect class="cls-3" width="129.56" height="155.46"/></clipPath></defs><g id="Layer_1-2"><g><g><rect class="cls-3" width="129.56" height="155.46"/><g class="cls-1"><polygon class="cls-3" points="129.53 155.43 .03 155.43 .03 .03 129.53 .03 129.53 155.43 129.53 155.43"/></g></g><path class="cls-2" d="M68.58,53.87l-3.95-3.99h0s2.69-2.69,2.69-2.69c.09-.09,.17-.17,.26-.25l.05-.05h0s.05-.05,.09-.08c.01-.01,.03-.03,.05-.04,.04-.04,.08-.07,.12-.1h.01c.06-.06,.11-.11,.17-.15,.26-.21,.52-.41,.79-.59,.06-.05,.13-.09,.2-.13,.06-.04,.13-.08,.2-.13,.07-.04,.13-.08,.2-.12,.07-.04,.13-.08,.2-.12,.07-.04,.14-.08,.21-.11,.07-.04,.14-.07,.21-.11,.19-.09,.38-.18,.57-.26,0,0,0,0,0,0,0,0,.01,0,.02,0,2.06-.89,4.39-1.16,6.57-.73h0s0,0,0,0c1.5,.3,2.93,.92,4.17,1.9,.03,.02,.06,.05,.09,.07,.25,.2,.49,.42,.72,.65l.15,.15c.23,.23,.44,.46,.64,.71,3.26,4,2.9,10.3-1.07,14.27l-18.99,18.99-4-4,18.99-18.99c.25-.25,.48-.52,.67-.81,.03-.05,.07-.1,.1-.16,.03-.05,.06-.1,.09-.16,0,0,0,0,0-.01,.03-.05,.06-.1,.08-.15,.03-.06,.06-.11,.08-.16,.07-.15,.14-.3,.2-.46,.02-.05,.04-.11,.06-.17,.02-.06,.04-.11,.05-.17,.03-.1,.06-.2,.08-.3,0-.01,0-.02,0-.03,0-.02,0-.04,.01-.06,.02-.08,.03-.16,.04-.24,.02-.15,.04-.29,.05-.44,0-.02,0-.04,0-.06,0-.07,0-.14,0-.2,0-.24-.02-.48-.05-.72-.02-.12-.04-.24-.07-.36-.03-.11-.06-.23-.09-.34-.04-.12-.08-.24-.13-.35-.09-.22-.2-.44-.33-.65-.03-.05-.06-.1-.1-.15-.06-.08-.11-.17-.18-.25-.06-.08-.13-.16-.2-.24-.06-.08-.14-.15-.21-.22h0c-.05-.06-.11-.11-.17-.16h0s-.09-.09-.14-.13c-.04-.03-.08-.06-.12-.1,0,0,0,0,0,0-.04-.03-.09-.07-.13-.1-.05-.03-.09-.07-.14-.1-.06-.04-.13-.08-.2-.12-.04-.03-.09-.05-.13-.08-.02,0-.04-.02-.05-.03-.01,0-.03-.01-.04-.02-.15-.08-.31-.15-.47-.21,0,0,0,0,0,0-.05-.02-.1-.04-.15-.05,0,0-.01,0-.02,0-.12-.04-.24-.08-.36-.11-.08-.02-.16-.04-.24-.06-.08-.02-.16-.03-.24-.04-.08-.01-.15-.02-.23-.03,0,0,0,0-.02,0-1.13-.11-2.31,.19-3.31,.88-.06,.04-.12,.08-.18,.13-.06,.04-.11,.09-.17,.14-.13,.1-.25,.22-.37,.34l-2.63,2.63h0Z"/><path class="cls-2" d="M52,65.87c-2.5,0-5-.9-7.01-2.88l-.11-.11c-4.04-4.11-3.87-10.75,.2-14.83l18.93-18.93,3.96,3.96-18.73,18.73c-.31,.31-.58,.65-.79,1.02-.04,.06-.08,.13-.11,.19-.21,.38-.36,.77-.46,1.18-.03,.1-.05,.2-.06,.3-.1,.5-.11,1-.05,1.5,.04,.33,.12,.66,.23,.97,.05,.15,.1,.29,.17,.42,.22,.48,.53,.94,.93,1.33,.03,.03,.06,.05,.08,.08,.04,.05,.09,.09,.14,.13,0,0,.01,.01,.02,.02,.06,.05,.12,.1,.18,.15,.02,.02,.05,.04,.07,.05,.07,.05,.14,.1,.21,.15,.17,.11,.34,.21,.52,.3,.18,.09,.36,.17,.55,.23,.1,.04,.19,.06,.29,.09h.04c.06,.03,.12,.04,.18,.06,.06,.01,.12,.03,.17,.04h.05s.08,.02,.12,.03c.08,.01,.16,.02,.23,.03,.05,0,.1,0,.15,.01,.02,0,.04,0,.05,0,.03,0,.05,0,.09,0,.05,0,.1,0,.16,0,.08,0,.15,0,.23,0,0,0,.02,0,.02,0,.07,0,.15-.01,.22-.02,.08,0,.16-.02,.24-.03,.08-.01,.15-.02,.23-.04,.01,0,.02,0,.03,0,.07-.01,.14-.03,.21-.05,0,0,0,0,0,0,.08-.02,.15-.04,.23-.06,.08-.02,.15-.05,.23-.08,.15-.06,.3-.12,.45-.19,.07-.04,.15-.07,.22-.11,.15-.08,.29-.16,.42-.25,.06-.04,.13-.09,.2-.14,.21-.15,.4-.32,.58-.51h0l2.01-2.01,3.95,3.99-1.35,1.35s-.04,.04-.06,.05l-.54,.55c-1.17,1.16-2.56,2.05-4.06,2.61-.01,0-.02,0-.03,.01-1.22,.46-2.52,.7-3.82,.7h0Z"/><path class="cls-2" d="M76.43,56.44l-11.11,11.11h-.01s-7.87,7.88-7.87,7.88l-7.57-7.57c.92,.17,1.87,.2,2.84,.19,5.1-.04,9.66-4.94,9.66-4.94l2.51-2.51-1.51-1.53-3.94-3.99-1.51-1.53-3.54,3.54c-.54,.54-1.23,.83-1.9,.85h-.13c-.13,0-.25-.01-.38-.03-.08-.02-.16-.04-.25-.06-.4-.11-.78-.33-1.11-.65-1.03-1.03-.96-2.77,.14-3.88l18.74-18.73,7.4,7.4c-3.52-.47-7.28,.5-10.14,2.83-.1,.08-.19,.16-.28,.24-.04,.03-.08,.07-.12,.1-.07,.06-.15,.13-.21,.19-.11,.1-.22,.21-.33,.32l-4.19,4.19,1.51,1.52,3.94,3.99,1.51,1.53,4.16-4.16c1.11-1.11,2.85-1.17,3.87-.14,.38,.38,.62,.85,.7,1.37,.13,.86-.2,1.79-.88,2.47h0Z"/><g><path class="cls-2" d="M38.44,94.22c-.2-.79-.54-1.57-1.67-1.57-.94,0-1.26,.68-1.26,1.31,0,.83,.53,1.25,1.52,1.76,1.44,.74,2.06,1.3,2.06,2.43,0,1.26-1.09,2.22-2.64,2.22-.72,0-1.34-.2-1.83-.4-.1-.34-.24-1.15-.32-1.8l.37-.1c.24,.8,.77,1.85,2.01,1.85,.86,0,1.39-.6,1.39-1.38,0-.92-.49-1.3-1.55-1.87-1.26-.68-1.97-1.26-1.97-2.37s.89-2.07,2.47-2.07c.67,0,1.33,.18,1.58,.23,.05,.43,.1,.91,.19,1.69l-.37,.07Z"/><path class="cls-2" d="M44.43,92.23c2.05,0,3.89,1.57,3.89,3.96,0,2.58-1.76,4.19-4.01,4.19s-3.93-1.69-3.93-4.01c0-2.15,1.52-4.14,4.05-4.14Zm2.65-.19l.37,.26-5.92,8.38-.36-.3,5.91-8.35Zm-2.89,.64c-1.34,0-2.59,1.07-2.59,3.37s1.25,3.87,2.95,3.87c1.36,0,2.57-1.03,2.57-3.39,0-2.58-1.36-3.85-2.93-3.85Z"/><path class="cls-2" d="M53.66,94.22c-.2-.79-.54-1.57-1.67-1.57-.94,0-1.26,.68-1.26,1.31,0,.83,.53,1.25,1.52,1.76,1.44,.74,2.06,1.3,2.06,2.43,0,1.26-1.09,2.22-2.64,2.22-.72,0-1.34-.2-1.83-.4-.1-.34-.24-1.15-.32-1.8l.37-.1c.24,.8,.77,1.85,2.01,1.85,.86,0,1.39-.6,1.39-1.38,0-.92-.49-1.3-1.55-1.87-1.26-.68-1.97-1.26-1.97-2.37s.89-2.07,2.47-2.07c.67,0,1.33,.18,1.58,.23,.05,.43,.1,.91,.19,1.69l-.37,.07Z"/><path class="cls-2" d="M61.65,94.28c-.11-.38-.25-.78-.38-1-.19-.32-.31-.41-.97-.41h-1.2v5.84c0,.94,.1,1.07,1.24,1.14v.34h-3.49v-.34c1.12-.07,1.21-.19,1.21-1.14v-5.84h-1.09c-.66,0-.85,.07-1.06,.43-.14,.24-.24,.53-.4,.97h-.36c.07-.73,.14-1.49,.18-2.16h.28c.18,.29,.31,.28,.65,.28h4.75c.34,0,.43-.05,.61-.28h.29c0,.56,.05,1.43,.11,2.12l-.36,.04Z"/><path class="cls-2" d="M70.11,100.29c-.16,0-.29-.01-.44-.02-.88-.06-1.34-.29-1.87-1.03-.44-.61-.88-1.37-1.26-1.98-.24-.38-.4-.46-1.01-.46h-.42v1.88c0,1.02,.13,1.08,1.09,1.18v.34h-3.2v-.34c1-.11,1.08-.16,1.08-1.18v-4.79c0-1.02-.13-1.06-1.08-1.16v-.34h3.06c.88,0,1.46,.11,1.92,.41,.49,.31,.82,.85,.82,1.58,0,1.03-.66,1.68-1.55,2.06,.22,.37,.73,1.18,1.09,1.71,.44,.64,.67,.94,.95,1.24,.32,.35,.6,.48,.88,.55l-.05,.34Zm-4.43-3.9c.62,0,1.02-.1,1.32-.35,.47-.35,.66-.83,.66-1.48,0-1.28-.85-1.75-1.78-1.75-.35,0-.55,.05-.64,.12-.11,.08-.14,.2-.14,.52v2.94h.58Z"/><path class="cls-2" d="M76.8,98.28c-.07,.31-.4,1.55-.52,1.91h-5.83v-.34c1.12-.08,1.2-.19,1.2-1.18v-4.74c0-1.07-.13-1.13-1.03-1.21v-.34h3.67c1.13,0,1.59-.01,1.74-.02,.01,.3,.06,1.2,.11,1.83l-.36,.06c-.11-.41-.23-.66-.36-.91-.19-.4-.47-.48-1.19-.48h-1.14c-.37,0-.4,.04-.4,.38v2.65h1.33c.9,0,.96-.18,1.1-1h.37v2.47h-.37c-.16-.86-.25-.98-1.12-.98h-1.32v2.39c0,.84,.26,.91,.86,.92h1.12c.73,0,.85-.11,1.12-.42,.23-.25,.48-.74,.65-1.1l.36,.1Z"/><path class="cls-2" d="M85.93,92.73c-.77,.08-1.02,.2-1.06,.76-.01,.38-.04,.89-.04,2v4.81h-.46l-5.13-6.27v3c0,1.08,.04,1.62,.06,1.97,.02,.61,.32,.79,1.19,.86v.34h-2.92v-.34c.74-.06,1.03-.24,1.08-.83,.04-.38,.06-.92,.06-2.01v-3.06c0-.34-.02-.53-.24-.79-.23-.3-.48-.37-1.07-.43v-.34h1.8l5.08,6.03v-2.94c0-1.12-.02-1.63-.06-1.99-.04-.54-.31-.71-1.27-.77v-.34h2.96v.34Z"/><path class="cls-2" d="M93.12,98.28c-.07,.31-.4,1.55-.52,1.91h-5.83v-.34c1.12-.08,1.2-.19,1.2-1.18v-4.74c0-1.07-.13-1.13-1.03-1.21v-.34h3.67c1.13,0,1.59-.01,1.74-.02,.01,.3,.06,1.2,.11,1.83l-.36,.06c-.11-.41-.23-.66-.36-.91-.19-.4-.47-.48-1.19-.48h-1.14c-.37,0-.4,.04-.4,.38v2.65h1.33c.9,0,.96-.18,1.1-1h.37v2.47h-.37c-.16-.86-.25-.98-1.12-.98h-1.32v2.39c0,.84,.26,.91,.86,.92h1.12c.73,0,.85-.11,1.12-.42,.23-.25,.48-.74,.65-1.1l.36,.1Z"/></g><g><path class="cls-2" d="M49,106.51c-1.78,.17-1.95,.28-1.95,2.08v8.58c0,1.8,.19,1.86,1.95,2.06v.6h-5.74v-.6c1.78-.21,1.95-.26,1.95-2.06v-4.28h-7.32v4.28c0,1.78,.17,1.84,1.93,2.06v.6h-5.72v-.6c1.73-.19,1.93-.26,1.93-2.06v-8.58c0-1.8-.19-1.91-1.93-2.08v-.6h5.72v.6c-1.71,.15-1.93,.3-1.93,2.08v3.4h7.32v-3.4c0-1.78-.24-1.93-1.95-2.08v-.6h5.74v.6Z"/><path class="cls-2" d="M61.09,119.82v-.6c1.39-.17,1.56-.39,1.26-1.2-.28-.83-.71-1.91-1.16-3.25h-4.62c-.34,.96-.66,1.8-.96,2.68-.47,1.39-.17,1.56,1.58,1.78v.6h-4.95v-.6c1.35-.17,1.69-.32,2.44-2.25l4.43-11.24,.69-.13c1.35,3.66,2.83,7.71,4.17,11.41,.69,1.86,.88,2.03,2.4,2.21v.6h-5.29Zm-2.14-11.41c-.69,1.84-1.41,3.79-2.06,5.48h4l-1.95-5.48Z"/><path class="cls-2" d="M80.35,116.27c-.13,.66-.77,2.89-.99,3.55h-9.96v-.6c1.95-.19,2.12-.3,2.12-2.12v-8.5c0-1.82-.21-1.93-1.93-2.1v-.6h5.74v.6c-1.71,.17-1.95,.26-1.95,2.1v8.71c0,1.31,.17,1.61,1.39,1.63,.02,0,1.56,.02,1.69,.02,1.09,0,1.41-.13,1.91-.66,.54-.56,.98-1.41,1.31-2.21l.66,.17Z"/><path class="cls-2" d="M91.93,109.16c-.36-1.41-.96-2.8-2.98-2.8-1.67,0-2.25,1.22-2.25,2.33,0,1.48,.94,2.23,2.72,3.15,2.57,1.33,3.68,2.31,3.68,4.35,0,2.25-1.95,3.96-4.71,3.96-1.29,0-2.4-.36-3.28-.71-.17-.6-.43-2.06-.58-3.21l.66-.17c.43,1.43,1.37,3.3,3.6,3.3,1.54,0,2.48-1.07,2.48-2.46,0-1.65-.88-2.31-2.76-3.34-2.25-1.22-3.51-2.25-3.51-4.24s1.58-3.7,4.41-3.7c1.2,0,2.38,.32,2.83,.41,.09,.77,.17,1.63,.34,3.02l-.66,.13Z"/></g></g></g></svg>