<svg width="188" height="48" id="Layer_2" xmlns="http://www.w3.org/2000/svg" viewBox="0 0 397.31 101.65"><defs><style>.cls-1{fill:#a19385;}</style></defs><g id="Layer_1-2"><path class="cls-1" d="M217.9,39.33c.69-.38,1.19-.65,1.67-.92,5.57-3.13,7.97-8.45,6.53-14.18-1.28-5.12-6.64-9.46-12.65-9.23-4.94,.2-9.9,.04-14.85,.04-2.37,.01-2.39,.02-2.39,2.38V51.55c0,.86,.02,1.71,0,2.56-.03,1.07,.43,1.57,1.53,1.54,1.37-.05,2.74-.07,4.1,0,1.25,.06,1.73-.42,1.71-1.68-.05-3.13-.01-6.26-.01-9.39,0-5.01,0-4.97,5.02-4.97,1.27,0,1.93,.46,2.48,1.57,2.14,4.4,4.34,8.76,6.58,13.11,.28,.53,.86,1.24,1.34,1.27,1.99,.15,3.99,.13,5.97,0,.35-.02,.87-.85,.9-1.33,.03-.49-.43-1.03-.7-1.53-2.37-4.39-4.75-8.79-7.23-13.37Zm-3.34-5.89c-3.31,.37-6.69,.23-10.03,.2-.32,0-.86-.81-.89-1.28-.12-1.58-.05-3.17-.05-4.76,0-1.48,.03-2.95-.01-4.43-.03-.99,.31-1.43,1.37-1.41,2.84,.05,5.68-.03,8.52,.03,2.94,.06,5.42,2.45,5.68,5.34,.25,2.84-1.79,6-4.59,6.31Z"/><path class="cls-1" d="M179.35,52.71c-5.59-12.25-11.17-24.51-16.82-36.74-.29-.65-1.07-1.38-1.7-1.46-.46-.06-1.25,.8-1.54,1.41-3.24,6.89-6.42,13.82-9.61,20.73-2.57,5.58-5.15,11.15-7.71,16.73-.88,1.91-.66,2.24,1.48,2.26,1.26,0,2.53,.14,3.75-.06,.71-.11,1.59-.62,1.94-1.22,.9-1.51,1.62-3.13,2.27-4.77,.42-1.09,1.08-1.41,2.19-1.4,3.82,.05,7.66,.31,11.44-.06,3.59-.36,5.68,.76,6.54,4.28,.63,2.55,2.13,3.97,4.55,3.23h1.27c3.28,0,3.29-.01,1.95-2.93Zm-24.52-10.81c1.95-4.38,3.84-8.61,5.72-12.83,.17-.01,.33-.01,.5-.02,1.88,4.21,3.77,8.42,5.75,12.85h-11.97Z"/><path class="cls-1" d="M263.59,56.3c-11.29,0-20.02-8.26-20.87-19.71-.8-10.81,7.15-20.64,18.08-22.06,6-.78,11.52,.56,16.24,4.61,1.16,1,1.22,1.74,.11,2.75-1.09,1-1.97,2.7-3.17,2.95-1.08,.22-2.49-1.08-3.74-1.76-5.78-3.14-12.44-1.82-16.57,3.32-4.12,5.13-4.02,12.86,.22,17.82,4.31,5.03,11.08,6.17,16.82,2.81q3.16-1.85,5.77,.86c.28,.29,.53,.6,.83,.86,1.05,.91,.82,1.67-.13,2.53-3.55,3.25-8.27,5.02-13.59,5.02Z"/><path class="cls-1" d="M383.2,14.32c5.02-.05,9.34,1.67,13.16,4.85,1.08,.9,1.22,1.64,.15,2.63-1.13,1.04-2.03,2.76-3.3,3.06-1.04,.25-2.48-1.13-3.73-1.81-5.68-3.07-12.18-1.83-16.34,3.11-4.13,4.91-4.29,12.48-.36,17.56,3.92,5.06,10.48,6.62,16.21,3.83,.41-.2,.81-.42,1.2-.65q2.94-1.77,5.38,.77c2.36,2.47,2.4,2.6-.35,4.58-7.11,5.11-14.74,5.58-22.33,1.5-7.8-4.19-11.44-11.12-10.78-19.94,.76-10.17,7.5-17.37,17.53-19.21,1.17-.21,2.37-.2,3.56-.29Z"/><path class="cls-1" d="M301.77,21.77c-2.93,0-5.55-.04-8.16,.02-1.31,.03-1.91-.43-1.84-1.78,.06-1.08,.07-2.17,0-3.24-.08-1.37,.56-1.75,1.84-1.75,7.97,.04,15.95,.04,23.92,0,1.47,0,1.85,.59,1.82,1.94-.12,5.57,.76,4.74-4.78,4.8-1.31,.02-2.62,.06-3.93-.01-1.11-.06-1.52,.36-1.49,1.47,.06,2.05,.01,4.1,.01,6.15,0,8.08-.03,16.16,.03,24.25,.01,1.56-.45,2.19-2.04,2.04-1.13-.11-2.28-.09-3.41,0-1.47,.11-2-.46-1.99-1.96,.06-7.8,.03-15.59,.03-23.39,0-2.77,0-5.55,0-8.53Z"/><path class="cls-1" d="M336.19,35.2c0-6.03,.04-12.06-.03-18.09-.02-1.51,.37-2.23,2.01-2.08,1.24,.12,2.5,.06,3.76,.02,1.14-.04,1.66,.4,1.66,1.59-.02,12.46-.02,24.92,0,37.38,0,1.15-.44,1.68-1.62,1.64-1.31-.04-2.62-.08-3.93,.01-1.41,.1-1.9-.44-1.88-1.86,.06-6.2,.02-12.4,.02-18.61Z"/><path class="cls-1" d="M65.2,20.19c.26-2.8,2.03-4.61,5.12-5.05,5.74-.81,13.65,3.94,15.67,9.42,1.53,4.15-1.05,7.59-5.81,7.33-5.79-.32-10.44-2.97-13.57-7.94-.7-1.11-.95-2.5-1.41-3.76Z"/><path class="cls-1" d="M57.72,40.05c-3.28-.08-5.97-1.35-7.77-4.15-2.37-3.68-.92-8.04,3.16-9.66,3.7-1.47,8.35-.22,10.74,2.96,1.63,2.16,2.1,4.56,.8,7.02-1.45,2.74-3.94,3.78-6.93,3.83Z"/><path class="cls-1" d="M79.01,37.3c5.08,.04,9.74,5.77,8.71,10.72-.74,3.58-3.8,5.38-7.52,4.41-4.29-1.12-7.44-5.77-6.88-10.16,.4-3.1,2.56-4.99,5.68-4.97Z"/><path class="cls-1" d="M56.48,71.35c-3.75-.03-6.65-2.98-6.64-6.77,0-3.74,3-6.72,6.74-6.71,3.7,0,6.76,3.04,6.77,6.72,.01,3.75-3.08,6.79-6.87,6.76Z"/><path class="cls-1" d="M34.11,53.64c-3.63,.02-6.2-2.38-6.18-5.79,.02-3.75,3.28-6.81,7.27-6.82,3.58,0,6.27,2.49,6.24,5.8-.03,3.68-3.38,6.79-7.32,6.82Z"/><path class="cls-1" d="M76.55,70.69c.11-2.14,1.07-4.36,3.68-5.48,2.08-.9,4.04-.5,5.69,1.03,2.25,2.08,2.67,4.7,1.84,7.51-.87,2.92-3.5,4.58-6.24,4.12-2.94-.49-4.99-3.22-4.97-7.19Z"/><path class="cls-1" d="M52.53,9.17c1.88,.7,4.26,1.21,6.22,2.41,3,1.84,2.64,5.1-.6,6.44-3.94,1.63-7.84,1.26-11.39-1.11-2.92-1.95-2.59-5.11,.64-6.47,1.43-.6,3.05-.77,5.13-1.26Z"/><path class="cls-1" d="M285.87,82.79c2.31-1.54,3.06-3.25,2.41-5.45-.65-2.15-2.35-3.34-4.95-3.39-1.66-.04-3.31,.04-4.96-.03-1.21-.05-1.56,.45-1.53,1.62,.06,3.41,.02,6.83,.02,10.24v3.55h2.88v-5.82c1.83-.62,2.89-.08,3.46,1.58,.3,.86,.88,1.61,1.15,2.47,.63,1.97,1.94,2.31,3.97,1.69-1.08-2.07-2.1-4.01-3.12-5.97,.31-.23,.49-.36,.67-.49Zm-1.89-1.81c-1.15,.23-2.36,.18-3.54,.12-.26,0-.69-.56-.71-.88-.09-1.17-.03-2.35-.03-3.78,1.49,0,2.73-.09,3.95,.03,1.2,.11,1.95,.9,2.03,2.12,.08,1.22-.52,2.16-1.7,2.39Z"/><path class="cls-1" d="M102.01,40.31c.01,2.4-1.22,3.44-3.57,3.03-3.93-.69-8.27-6.39-7.93-10.41,.16-1.94,1.45-2.91,3.41-2.56,3.83,.69,8.08,5.9,8.1,9.94Z"/><path class="cls-1" d="M25,31.7c-3.32,0-5.03-.98-5.69-2.76-.62-1.68,.09-3.82,1.88-5.26,2.14-1.72,4.57-2.48,7.31-1.72,3.04,.85,4.1,3.88,2.21,6.43-1.62,2.18-3.85,3.27-5.7,3.31Z"/><path class="cls-1" d="M261.24,74.28c0,3.31,.13,6.67-.04,10.01-.16,3.19-3.04,5.49-6.36,5.4-3.3-.09-5.85-2.46-5.99-5.8-.12-2.9,0-5.8-.05-8.7-.02-1.02,.47-1.25,1.36-1.25,.89,0,1.38,.25,1.38,1.25,0,2.79-.03,5.57,.09,8.36,.08,1.94,1.13,3.08,2.79,3.36,2.27,.39,4.01-1.07,4.11-3.62,.1-2.44,.03-4.89,.04-7.34,0-2.16,.33-2.37,2.67-1.67Z"/><path class="cls-1" d="M197.49,73.96c3.15,0,6.04-.12,8.92,.05,1.59,.09,.7,1.39,.81,2.41-1.99,0-3.86,.07-5.72-.02-1.74-.08-1.34,1.12-1.37,2.07-.04,.98-.17,1.99,1.39,1.89,1.46-.09,2.94-.02,4.6-.02,.04,.76,.07,1.41,.12,2.43-1.5,0-2.9,.11-4.27-.03-1.95-.18-1.85,1-1.87,2.34-.02,1.33,.14,2.18,1.81,2.06,1.69-.13,3.39-.03,5.3-.03,.04,.76,.07,1.41,.11,2.35-3.1,0-6.08,.02-9.07-.04-.26,0-.72-.57-.72-.88-.05-4.76-.03-9.53-.03-14.59Z"/><path class="cls-1" d="M366.28,87.15h6.99v2.32c-2.99,0-5.98,.03-8.97-.05-.29,0-.8-.76-.8-1.17-.06-4.32-.03-8.64-.05-12.97,0-.93,.36-1.35,1.3-1.34,2.45,.02,4.89,.02,7.34,0,.95-.01,1.28,.35,1.28,1.32,0,1.06-.53,1.2-1.39,1.18-1.86-.04-3.73-.01-5.7-.01v3.93c1.44,0,2.84,0,4.24,0,.81,0,1.6-.13,1.61,1.13,.01,1.29-.77,1.31-1.68,1.31-1.35-.01-2.71,0-4.17,0v4.38Z"/><path class="cls-1" d="M234.54,76.19c-.46,.5-.95,1.03-1.33,1.44-1.35-.44-2.54-1.04-3.78-1.19-2.21-.26-4.14,1.04-5.02,3.06-.88,2.02-.41,4.49,1.14,5.99,1.52,1.47,4,2.03,5.83,.9,1.52-.93,2.35-.6,3.09,.79-.79,2.13-5.11,2.93-7.61,2.24-3.23-.9-5.62-3.68-5.84-6.99-.25-3.65,1.61-6.64,4.85-8.04,2.53-1.09,6.99-.76,8.68,1.79Z"/><path class="cls-1" d="M182.68,75.11c-.81,1.14-1.2,1.69-1.63,2.3-.95-.41-1.79-.86-2.69-1.16-1.14-.38-2.38-.18-2.68,1.03-.17,.67,.44,1.84,1.05,2.34,.94,.77,2.22,1.11,3.3,1.72,2.27,1.28,3.07,2.89,2.6,5.03-.41,1.84-2.32,3.29-4.66,3.28-1.17,0-2.39-.23-3.48-.64-2.12-.79-2.18-1.36-.65-3.1,1.04,.44,2.05,1.15,3.11,1.23,.84,.07,2.06-.4,2.54-1.05,.73-.99-.09-1.96-1.01-2.52-.96-.59-2.04-1.01-3.03-1.54-2.21-1.19-3.11-2.93-2.62-5.01,.46-1.98,2.21-3.32,4.66-3.14,1.62,.12,3.2,.74,5.19,1.24Z"/><path class="cls-1" d="M388.29,85.9c1.14,.47,2.15,.99,3.22,1.31,1.08,.32,2.27,.02,2.49-1.11,.15-.73-.36-1.83-.94-2.4-.69-.68-1.77-.98-2.68-1.43-2.58-1.28-3.65-3.21-3.02-5.43,.59-2.06,2.58-3.22,5.31-2.99,.72,.06,1.46,.25,2.14,.5,2.2,.81,2.28,1.27,.56,3.04-.63-.3-1.28-.64-1.95-.93-1.25-.53-2.57-.69-3.26,.72-.7,1.42,.43,2.19,1.51,2.78,.94,.52,1.97,.89,2.91,1.41,2.13,1.19,3.07,3,2.6,4.86-.5,1.98-2.23,3.39-4.56,3.41-1.22,.01-2.5-.22-3.65-.65-2.01-.74-2.07-1.25-.68-3.09Z"/><path class="cls-1" d="M106.39,67.22c-.01,2.67-1.2,4.69-2.97,5.03-1.68,.33-3.57-1.05-4.58-3.42-.87-2.05-1.14-4.16-.29-6.3,1.04-2.63,3.53-3.17,5.58-1.22,1.37,1.3,2.26,3.64,2.25,5.9Z"/><path class="cls-1" d="M324.05,76.43h-3.72v-2.49c1.18,0,2.39,0,3.61,0,1.59,0,3.18,0,4.78,0,2.11,0,2.17,.1,1.74,2.43h-3.53v12.77c-2.6,.75-2.87,.55-2.88-1.88,0-3.52,0-7.04,0-10.83Z"/><path class="cls-1" d="M73.85,12.59c-3.62-.62-6.88-1.52-9.62-3.71-.65-.52-.89-1.55-1.33-2.34,.8-.32,1.6-.9,2.4-.92,3.5-.08,6.74,.95,9.56,2.99,.82,.59,1.23,1.73,1.83,2.61-.95,.45-1.9,.91-2.85,1.36Z"/><path class="cls-1" d="M25.6,83.98c-2.41-.03-4.18-1.82-4.18-4.22,0-2.46,1.86-4.29,4.34-4.26,2.44,.03,4.22,1.92,4.16,4.42-.06,2.38-1.89,4.1-4.32,4.06Z"/><path class="cls-1" d="M31.61,7.11c.23,0,.46-.02,.68,0,1.35,.15,2.96,.15,3.35,1.75,.42,1.73-1.04,2.5-2.32,3.12-2.41,1.16-4.94,1.71-7.58,.9-2.14-.66-2.45-2.14-.76-3.61,1.89-1.65,4.19-2.14,6.63-2.16Z"/><path class="cls-1" d="M94.24,24.53c-.21-.05-.67-.09-1.09-.25-3.38-1.31-6.17-3.42-8.17-6.44-.43-.65-.33-1.66-.48-2.51,.82-.03,1.74-.32,2.44-.05,3.59,1.39,6.56,3.65,8.53,7.01,.82,1.4,.39,2.2-1.23,2.23Z"/><path class="cls-1" d="M62.61,93.5c2.15,0,3.69,1.49,3.74,3.6,.05,2.39-2.09,4.59-4.4,4.54-2.07-.04-3.61-1.75-3.59-3.97,.02-2.38,1.85-4.17,4.25-4.17Z"/><path class="cls-1" d="M303.55,89.24v-15.01c2.33-.6,2.56-.44,2.56,1.79,0,3.8,0,7.6,0,11.4,0,2.27-.14,2.37-2.56,1.82Z"/><path class="cls-1" d="M.14,50.92c0-2.05,1.77-4.22,3.79-4.67,2.06-.45,3.67,.97,3.33,3.05-.33,2.04-1.48,3.54-3.48,4.23-2.06,.71-3.65-.46-3.64-2.61Z"/><path class="cls-1" d="M114.02,55.3c-.03,.45-.02,.85-.08,1.24-.26,1.55-1.45,2.06-2.31,.78-1.24-1.83-2.08-3.96-2.91-6.02-.3-.74-.22-1.7-.09-2.52,.09-.54,.47-1.23,.92-1.44,.32-.15,1.1,.24,1.45,.6,1.99,2.05,2.79,4.62,3.03,7.36Z"/><path class="cls-1" d="M345,81.62c0-2.1,.02-4.19,0-6.29-.01-.86,.19-1.39,1.21-1.41,1.06-.02,1.37,.45,1.36,1.44-.03,4.25-.02,8.5,0,12.75,0,.84-.16,1.39-1.21,1.41-1.08,.02-1.37-.47-1.36-1.44,.03-2.15,0-4.31,0-6.46Z"/><path class="cls-1" d="M93.12,96.95c.52-1.96,1.16-3.37,2.61-4.27,1.45-.91,3.1-.36,3.22,1.3,.1,1.41-.34,2.96-.92,4.28-.49,1.11-1.81,1.89-2.97,1.26-.86-.47-1.3-1.69-1.93-2.57Z"/><path class="cls-1" d="M38.5,1.81c2.21-1.87,8.55-1.94,10.86-.21-1.39,1.87-8.41,2.06-10.86,.21Z"/><path class="cls-1" d="M1.14,24.8c-.88-.06-1.4-.49-1.01-1.63,.56-1.65,3.06-3.56,4.79-3.62,.98-.03,1.55,.31,1.26,1.41-.41,1.55-3.23,3.77-5.04,3.84Z"/><path class="cls-1" d="M111.45,40.52c-2.42-1.1-5.31-6.06-5.09-8.56,2.24,.9,5.23,5.84,5.09,8.56Z"/><path class="cls-1" d="M117.35,79.47c-.23,.91-.45,1.9-.76,2.86-.09,.26-.52,.62-.72,.58-.32-.06-.81-.43-.81-.67,.02-1.77,.12-3.54,.26-5.31,.02-.23,.51-.63,.7-.59,.32,.07,.72,.39,.82,.7,.24,.74,.34,1.54,.51,2.43Z"/><path class="cls-1" d="M58.27,0c3.08,.67,6.17,1.33,9.25,2-.06,.3-.13,.6-.19,.9-3.1-.64-6.2-1.29-9.29-1.93l.23-.96Z"/><path class="cls-1" d="M95.28,16.92c2.23,2.2,4.46,4.4,6.68,6.6-.21,.21-.42,.42-.62,.64-2.24-2.18-4.49-4.37-6.73-6.55,.22-.23,.45-.46,.67-.69Z"/><path class="cls-1" d="M85.81,10.66c-2.57-1.34-5.14-2.69-7.71-4.03,.09-.18,.19-.36,.28-.55,2.57,1.35,5.13,2.7,7.7,4.05-.09,.18-.18,.35-.27,.53Z"/><path class="cls-1" d="M22.16,3.95l-5.62,2.07c-.09-.25-.18-.49-.27-.74l5.65-2c.08,.22,.16,.44,.24,.66Z"/><path class="cls-1" d="M119.49,59.52c-.38-1.64-.76-3.28-1.15-4.93l.59-.14c.38,1.64,.77,3.28,1.15,4.93-.2,.05-.39,.09-.59,.14Z"/></g></svg>