<svg width="189" height="48" id="Layer_2" xmlns="http://www.w3.org/2000/svg" viewBox="0 0 322.97 82.19"><defs><style>.cls-1{fill:#a19385;}.cls-2{fill:none;stroke:#a19385;stroke-miterlimit:10;stroke-width:1.7px;}</style></defs><g id="Layer_1-2"><g><g><path class="cls-1" d="M.66,0H11.87c1.52,0,3.01,.16,4.47,.47,1.45,.31,2.75,.82,3.89,1.53,1.14,.71,2.07,1.64,2.78,2.78,.71,1.14,1.06,2.56,1.06,4.26,0,2.15-.58,3.92-1.74,5.32-1.16,1.4-2.73,2.4-4.7,2.99v.1c1.18,.1,2.28,.41,3.3,.91,1.02,.5,1.9,1.15,2.65,1.95,.74,.8,1.32,1.72,1.74,2.78,.42,1.06,.62,2.19,.62,3.4,0,2.04-.42,3.72-1.27,5.04-.85,1.32-1.96,2.36-3.32,3.14-1.37,.78-2.91,1.32-4.62,1.64s-3.42,.47-5.11,.47H.66V0ZM5.02,15.58h6.02c1.04,0,2.05-.07,3.04-.21,.99-.14,1.88-.42,2.67-.86,.8-.43,1.44-1.04,1.92-1.82,.48-.78,.73-1.81,.73-3.09,0-1.14-.23-2.07-.67-2.78-.45-.71-1.05-1.27-1.79-1.69-.75-.42-1.59-.7-2.54-.86-.95-.16-1.91-.23-2.88-.23H5.02V15.58Zm0,17.13h7.37c1.07,0,2.14-.11,3.19-.34,1.06-.22,2.01-.59,2.86-1.09,.85-.5,1.53-1.16,2.05-1.97,.52-.81,.78-1.81,.78-2.99,0-1.28-.25-2.35-.75-3.22-.5-.86-1.16-1.56-1.97-2.08-.81-.52-1.75-.88-2.8-1.09-1.06-.21-2.14-.31-3.25-.31H5.02v13.08Z"/><path class="cls-1" d="M30.56,2.96c0-.8,.29-1.49,.86-2.08,.57-.59,1.27-.88,2.1-.88s1.53,.29,2.1,.88c.57,.59,.86,1.28,.86,2.08,0,.87-.28,1.58-.83,2.13-.55,.55-1.26,.83-2.13,.83s-1.58-.28-2.13-.83c-.55-.55-.83-1.26-.83-2.13Zm.93,9.5h4.05v24.3h-4.05V12.46Z"/><path class="cls-1" d="M42.09,18.22c0-1.11-.04-2.15-.1-3.12-.07-.97-.1-1.85-.1-2.65h3.84c0,.66,.02,1.32,.05,1.97,.03,.66,.05,1.33,.05,2.02h.1c.28-.59,.67-1.16,1.17-1.71,.5-.55,1.1-1.05,1.79-1.48,.69-.43,1.47-.78,2.34-1.04,.86-.26,1.8-.39,2.8-.39,.28,0,.55,.02,.83,.05,.28,.04,.55,.1,.83,.21l-.26,4.1c-.69-.21-1.42-.31-2.18-.31-2.49,0-4.3,.8-5.43,2.41-1.12,1.61-1.69,3.82-1.69,6.62v11.84h-4.05V18.22Z"/><path class="cls-1" d="M82.17,35.67c0,4.43-1.13,7.8-3.4,10.1-2.27,2.3-5.55,3.45-9.84,3.45-2.39,0-4.54-.35-6.46-1.04-1.92-.69-3.75-1.89-5.48-3.58l2.91-3.32c1.28,1.38,2.64,2.43,4.08,3.14,1.44,.71,3.09,1.06,4.96,1.06s3.3-.27,4.49-.8c1.19-.54,2.14-1.26,2.83-2.18,.69-.92,1.18-1.96,1.45-3.14,.28-1.18,.42-2.41,.42-3.69v-3.12h-.1c-.97,1.56-2.23,2.7-3.79,3.43-1.56,.73-3.15,1.09-4.78,1.09-1.9,0-3.65-.31-5.24-.93-1.59-.62-2.96-1.49-4.1-2.6-1.14-1.11-2.02-2.42-2.65-3.95-.62-1.52-.93-3.18-.93-4.98,0-1.97,.31-3.75,.93-5.35,.62-1.59,1.5-2.93,2.62-4.02,1.12-1.09,2.48-1.93,4.08-2.52,1.59-.59,3.36-.88,5.3-.88,.83,0,1.66,.1,2.49,.29,.83,.19,1.64,.48,2.41,.88,.78,.4,1.48,.9,2.1,1.51,.62,.61,1.14,1.31,1.56,2.1h.1v-4.15h4.05v23.21Zm-21.29-11.06c0,1.25,.22,2.4,.67,3.45,.45,1.06,1.06,1.97,1.84,2.75,.78,.78,1.69,1.39,2.73,1.84,1.04,.45,2.15,.67,3.32,.67,1.38,0,2.61-.24,3.69-.73,1.07-.48,1.98-1.13,2.73-1.95,.74-.81,1.31-1.75,1.69-2.8,.38-1.06,.57-2.17,.57-3.35,0-1.32-.21-2.52-.62-3.61-.42-1.09-1-2.03-1.77-2.83-.76-.8-1.68-1.41-2.75-1.84-1.07-.43-2.25-.65-3.53-.65s-2.45,.23-3.5,.7c-1.06,.47-1.96,1.11-2.7,1.92-.75,.81-1.32,1.77-1.74,2.86-.42,1.09-.62,2.28-.62,3.56Z"/><path class="cls-1" d="M109.84,32.35c-1.45,1.87-3.05,3.18-4.78,3.92-1.73,.74-3.74,1.12-6.02,1.12-1.9,0-3.62-.34-5.14-1.01-1.52-.67-2.81-1.58-3.87-2.73-1.06-1.14-1.87-2.49-2.44-4.05s-.86-3.22-.86-4.98c0-1.87,.31-3.59,.93-5.17,.62-1.57,1.49-2.92,2.6-4.05,1.11-1.12,2.42-2,3.95-2.62,1.52-.62,3.18-.93,4.98-.93,1.7,0,3.25,.29,4.67,.86,1.42,.57,2.64,1.4,3.66,2.49,1.02,1.09,1.81,2.42,2.36,4,.55,1.58,.83,3.37,.83,5.37v1.3h-19.63c.07,1.04,.32,2.03,.75,2.99,.43,.95,.99,1.78,1.69,2.49,.69,.71,1.51,1.27,2.44,1.69s1.96,.62,3.06,.62c1.77,0,3.25-.31,4.47-.93,1.21-.62,2.3-1.54,3.27-2.75l3.06,2.39Zm-3.48-9.92c-.07-2.08-.74-3.74-2.02-4.98-1.28-1.25-3.05-1.87-5.3-1.87s-4.07,.62-5.45,1.87c-1.39,1.25-2.22,2.91-2.49,4.98h15.26Z"/><path class="cls-1" d="M115.5,18.22c0-1.11-.04-2.15-.1-3.12-.07-.97-.1-1.85-.1-2.65h3.84c0,.66,.02,1.32,.05,1.97,.03,.66,.05,1.33,.05,2.02h.1c.28-.59,.67-1.16,1.17-1.71,.5-.55,1.1-1.05,1.79-1.48,.69-.43,1.47-.78,2.34-1.04,.86-.26,1.8-.39,2.8-.39,.28,0,.55,.02,.83,.05,.28,.04,.55,.1,.83,.21l-.26,4.1c-.69-.21-1.42-.31-2.18-.31-2.49,0-4.3,.8-5.43,2.41-1.12,1.61-1.69,3.82-1.69,6.62v11.84h-4.05V18.22Z"/><path class="cls-1" d="M145.93,0h5.5l21.29,30.53h.1V0h4.36V36.76h-5.5l-21.29-30.53h-.1v30.53h-4.36V0Z"/><path class="cls-1" d="M187.46,30.84c.86,0,1.6,.3,2.21,.91,.61,.61,.91,1.34,.91,2.21s-.32,1.6-.96,2.21c-.64,.6-1.36,.91-2.15,.91s-1.51-.3-2.15-.91c-.64-.61-.96-1.34-.96-2.21s.3-1.6,.91-2.21c.61-.6,1.34-.91,2.21-.91Z"/><path class="cls-1" d="M210.67,0h4.36V15.58h19.62V0h4.36V36.76h-4.36V19.63h-19.62v17.13h-4.36V0Z"/><path class="cls-1" d="M245.61,15.58c1.25-1.28,2.73-2.22,4.44-2.83,1.71-.61,3.45-.91,5.22-.91,3.6,0,6.2,.85,7.79,2.54,1.59,1.7,2.39,4.28,2.39,7.74v10.44c0,.69,.03,1.41,.1,2.15,.07,.75,.16,1.43,.26,2.05h-3.89c-.14-.55-.22-1.17-.23-1.84-.02-.68-.03-1.27-.03-1.79h-.1c-.8,1.25-1.86,2.27-3.19,3.06-1.33,.8-2.93,1.19-4.8,1.19-1.25,0-2.41-.16-3.5-.47-1.09-.31-2.04-.77-2.86-1.38-.81-.61-1.46-1.36-1.95-2.26-.49-.9-.73-1.94-.73-3.12,0-2.01,.52-3.58,1.56-4.72,1.04-1.14,2.33-1.99,3.87-2.54,1.54-.55,3.2-.9,4.98-1.04,1.78-.14,3.42-.21,4.91-.21h1.56v-.73c0-1.76-.53-3.1-1.58-4-1.06-.9-2.54-1.35-4.44-1.35-1.32,0-2.61,.22-3.87,.65-1.26,.43-2.38,1.1-3.35,2l-2.54-2.65Zm11.73,9.5c-2.6,0-4.66,.36-6.18,1.09-1.52,.73-2.28,1.92-2.28,3.58,0,1.52,.51,2.6,1.53,3.24,1.02,.64,2.29,.96,3.82,.96,1.18,0,2.21-.2,3.09-.6s1.62-.93,2.21-1.58c.59-.66,1.04-1.43,1.35-2.31s.48-1.83,.52-2.83v-1.56h-4.05Z"/><path class="cls-1" d="M292.55,31c0,1.11,.03,2.15,.1,3.12s.1,1.85,.1,2.65h-3.84c0-.66-.02-1.32-.05-1.97s-.05-1.33-.05-2.03h-.1c-.28,.59-.67,1.16-1.17,1.71-.5,.55-1.1,1.05-1.79,1.48-.69,.43-1.47,.78-2.34,1.04-.87,.26-1.8,.39-2.8,.39-1.59,0-2.97-.24-4.13-.73-1.16-.48-2.12-1.16-2.88-2.03-.76-.86-1.32-1.91-1.69-3.14-.36-1.23-.55-2.57-.55-4.02V12.46h4.05v14.59c0,2.04,.45,3.65,1.35,4.83,.9,1.18,2.3,1.77,4.21,1.77,1.32,0,2.45-.22,3.4-.67,.95-.45,1.73-1.09,2.34-1.92,.61-.83,1.06-1.82,1.35-2.96,.29-1.14,.44-2.41,.44-3.79V12.46h4.05V31Z"/><path class="cls-1" d="M322.97,35.67c0,4.43-1.13,7.8-3.4,10.1-2.27,2.3-5.55,3.45-9.84,3.45-2.39,0-4.54-.35-6.46-1.04-1.92-.69-3.75-1.89-5.48-3.58l2.91-3.32c1.28,1.38,2.64,2.43,4.08,3.14,1.44,.71,3.09,1.06,4.96,1.06s3.3-.27,4.49-.8c1.19-.54,2.14-1.26,2.83-2.18,.69-.92,1.18-1.96,1.45-3.14,.28-1.18,.42-2.41,.42-3.69v-3.12h-.1c-.97,1.56-2.23,2.7-3.79,3.43-1.56,.73-3.15,1.09-4.78,1.09-1.9,0-3.65-.31-5.24-.93s-2.96-1.49-4.1-2.6c-1.14-1.11-2.02-2.42-2.65-3.95-.62-1.52-.93-3.18-.93-4.98,0-1.97,.31-3.75,.93-5.35,.62-1.59,1.5-2.93,2.62-4.02,1.12-1.09,2.48-1.93,4.08-2.52,1.59-.59,3.36-.88,5.3-.88,.83,0,1.66,.1,2.49,.29,.83,.19,1.64,.48,2.41,.88,.78,.4,1.48,.9,2.1,1.51,.62,.61,1.14,1.31,1.56,2.1h.1v-4.15h4.05v23.21Zm-21.29-11.06c0,1.25,.22,2.4,.67,3.45,.45,1.06,1.06,1.97,1.84,2.75s1.69,1.39,2.73,1.84c1.04,.45,2.15,.67,3.32,.67,1.38,0,2.61-.24,3.69-.73,1.07-.48,1.98-1.13,2.73-1.95,.74-.81,1.31-1.75,1.69-2.8,.38-1.06,.57-2.17,.57-3.35,0-1.32-.21-2.52-.62-3.61-.42-1.09-1-2.03-1.77-2.83-.76-.8-1.68-1.41-2.75-1.84-1.07-.43-2.25-.65-3.53-.65s-2.45,.23-3.5,.7c-1.06,.47-1.96,1.11-2.7,1.92-.75,.81-1.32,1.77-1.74,2.86-.42,1.09-.62,2.28-.62,3.56Z"/></g><g><path class="cls-1" d="M2.52,63.55v5.84h1.36l4.56-5.84h2.2l-5.2,6.7,5.56,7.1h-2.3l-4.86-6.2h-1.32v6.2H.66v-13.8h1.86Z"/><path class="cls-1" d="M14.66,67.37l2.5,8.08,2.52-8.08h1.88l-3.4,9.98h-2.08l-3.36-9.98h1.94Z"/><path class="cls-1" d="M24.5,68.57c.94-1.04,2.16-1.4,3.62-1.4,2.48,0,3.76,1.02,3.76,3.64v6.54h-1.66l-.02-1.66c-.64,1.28-1.86,1.88-3.18,1.88-.92,0-1.66-.28-2.14-.76-.54-.5-.8-1.2-.8-2.14,0-1.16,.4-1.88,1.14-2.4,.86-.6,2.08-.82,3.46-.82h1.44v-.5c0-1.72-.52-2.28-2.06-2.28-1.1,0-1.86,.28-2.58,1.02l-.98-1.12Zm4,4.24c-1.6,0-2.58,.26-2.58,1.78,0,.94,.36,1.5,1.36,1.5,1.28,0,2.8-.98,2.86-3.28h-1.64Z"/><path class="cls-1" d="M38.42,62.04v15.3h-1.8v-15.3h1.8Z"/><path class="cls-1" d="M44.16,62.85c.66,0,1.16,.5,1.16,1.16s-.5,1.18-1.16,1.18-1.16-.52-1.16-1.18,.5-1.16,1.16-1.16Zm.9,4.52v9.98h-1.8v-9.98h1.8Z"/><path class="cls-1" d="M55.68,77.23c-.6,.18-1.34,.26-2,.26-2.46,0-2.96-1.12-2.96-3.46v-4.9h-1.82v-1.58h1.82v-2.88l1.78-.22v3.1h3.04v1.58h-3.04v4.8c0,1.4,.1,1.98,1.44,1.98,.48,0,1.1-.08,1.58-.2l.16,1.52Z"/><path class="cls-1" d="M67.28,75.93c-1.08,1.1-2.28,1.62-3.94,1.62-1.4,0-2.38-.38-3.06-1.06-.8-.8-1.22-1.94-1.22-3.84,0-1.58,.3-3.24,1.18-4.22,.64-.72,1.64-1.3,3.2-1.3,2.88,0,3.94,1.92,3.94,4.28,0,.32-.02,.84-.06,1.22l-6.4,.04c.04,2.04,.36,3.34,2.42,3.34,1.2,0,2.18-.44,2.96-1.2l.98,1.12Zm-1.76-4.7c.02-1.62-.34-2.6-2.1-2.6s-2.34,1.04-2.44,2.62l4.54-.02Z"/><path class="cls-1" d="M77.32,77.23c-.6,.18-1.34,.26-2,.26-2.46,0-2.96-1.12-2.96-3.46v-4.9h-1.82v-1.58h1.82v-2.88l1.78-.22v3.1h3.04v1.58h-3.04v4.8c0,1.4,.1,1.98,1.44,1.98,.48,0,1.1-.08,1.58-.2l.16,1.52Z"/><path class="cls-1" d="M94.42,76.25c-.76,.82-1.7,1.3-3.26,1.3s-2.46-.46-3.16-1.2c-.9-.96-1.12-2.14-1.12-3.82,0-1.82,.26-3.1,1.2-4.12,.76-.82,1.76-1.28,3.26-1.28s2.48,.46,3.16,1.2c.9,.98,1.12,2.22,1.12,3.9,0,1.82-.26,2.98-1.2,4.02Zm-1.38-6.94c-.34-.36-.84-.64-1.76-.64-1.02,0-1.5,.34-1.8,.7-.56,.68-.72,1.84-.72,3.1,0,1.42,.2,2.32,.7,2.92,.3,.36,.86,.62,1.72,.62,1,0,1.54-.34,1.84-.7,.54-.66,.72-1.8,.72-3.04,0-1.3-.2-2.38-.7-2.96Z"/><path class="cls-1" d="M108.06,67.37v10.3c0,2.3-.86,4.52-4.6,4.52-1.42,0-2.76-.32-3.72-1.14l.94-1.36c.82,.66,1.82,.9,2.9,.9,2.36,0,2.74-1.1,2.74-2.98v-2.02c-.62,1.26-1.86,1.92-3.26,1.92-1.16,0-2-.44-2.54-1.18-.68-.88-.98-2.2-.98-3.88s.3-3.1,1.18-4.1c.6-.68,1.5-1.18,2.82-1.18,1.16,0,2.22,.38,2.88,1.5l.04-1.3h1.6Zm-2.78,7.76c.64-.68,1.06-1.8,1.06-3.26,0-.94-.18-1.86-.82-2.48-.44-.42-1.04-.66-1.78-.66-1.82,0-2.28,1.38-2.28,3.74s.44,3.48,1.94,3.48c.66,0,1.36-.24,1.88-.82Z"/><path class="cls-1" d="M125.84,76.25c-.76,.82-1.7,1.3-3.26,1.3s-2.46-.46-3.16-1.2c-.9-.96-1.12-2.14-1.12-3.82,0-1.82,.26-3.1,1.2-4.12,.76-.82,1.76-1.28,3.26-1.28s2.48,.46,3.16,1.2c.9,.98,1.12,2.22,1.12,3.9,0,1.82-.26,2.98-1.2,4.02Zm-1.38-6.94c-.34-.36-.84-.64-1.76-.64-1.02,0-1.5,.34-1.8,.7-.56,.68-.72,1.84-.72,3.1,0,1.42,.2,2.32,.7,2.92,.3,.36,.86,.62,1.72,.62,1,0,1.54-.34,1.84-.7,.54-.66,.72-1.8,.72-3.04,0-1.3-.2-2.38-.7-2.96Z"/><path class="cls-1" d="M133.14,67.37v2.08c.46-1.4,1.52-2.32,3.14-2.32,1.48,0,2.42,.78,2.74,2.36,.5-1.4,1.6-2.36,3.18-2.36,1.8,0,2.84,1.22,2.84,3.32v6.9h-1.8v-6.48c0-1.34-.28-2.1-1.36-2.1-1.42,0-2.76,1.4-2.76,5.02v3.56h-1.8v-6.52c0-1.24-.26-2.06-1.36-2.06-1.42,0-2.74,1.4-2.74,5.02v3.56h-1.8v-9.98h1.72Z"/><path class="cls-1" d="M155.44,77.23c-.6,.18-1.34,.26-2,.26-2.46,0-2.96-1.12-2.96-3.46v-4.9h-1.82v-1.58h1.82v-2.88l1.78-.22v3.1h3.04v1.58h-3.04v4.8c0,1.4,.1,1.98,1.44,1.98,.48,0,1.1-.08,1.58-.2l.16,1.52Z"/><path class="cls-1" d="M158.97,68.57c.94-1.04,2.16-1.4,3.62-1.4,2.48,0,3.76,1.02,3.76,3.64v6.54h-1.66l-.02-1.66c-.64,1.28-1.86,1.88-3.18,1.88-.92,0-1.66-.28-2.14-.76-.54-.5-.8-1.2-.8-2.14,0-1.16,.4-1.88,1.14-2.4,.86-.6,2.08-.82,3.46-.82h1.44v-.5c0-1.72-.52-2.28-2.06-2.28-1.1,0-1.86,.28-2.58,1.02l-.98-1.12Zm4,4.24c-1.6,0-2.58,.26-2.58,1.78,0,.94,.36,1.5,1.36,1.5,1.28,0,2.8-.98,2.86-3.28h-1.64Z"/><path class="cls-1" d="M172.82,67.37l-.02,2.08c.48-1.4,1.64-2.32,3.26-2.32,1.88,0,2.92,1.26,2.92,3.32v6.9h-1.8v-6.48c0-1.36-.32-2.1-1.42-2.1-1.56,0-2.86,1.5-2.86,5.04v3.54h-1.8v-9.98h1.72Z"/><path class="cls-1" d="M185.52,62.04v9.3h.86l2.98-3.98h2.18l-3.74,4.78,4.12,5.2h-2.34l-3.22-4.28h-.84v4.28h-1.8v-15.3h1.8Z"/><path class="cls-1" d="M202.78,75.93c-1.08,1.1-2.28,1.62-3.94,1.62-1.4,0-2.38-.38-3.06-1.06-.8-.8-1.22-1.94-1.22-3.84,0-1.58,.3-3.24,1.18-4.22,.64-.72,1.64-1.3,3.2-1.3,2.88,0,3.94,1.92,3.94,4.28,0,.32-.02,.84-.06,1.22l-6.4,.04c.04,2.04,.36,3.34,2.42,3.34,1.2,0,2.18-.44,2.96-1.2l.98,1.12Zm-1.76-4.7c.02-1.62-.34-2.6-2.1-2.6s-2.34,1.04-2.44,2.62l4.54-.02Z"/></g><line class="cls-2" y1="45.09" x2="48.79" y2="45.09"/><line class="cls-2" x1="88.76" y1="45.09" x2="289.21" y2="45.09"/></g></g></svg>