<?xml version="1.0" encoding="UTF-8"?>
<svg width="160" height="48" id="Layer_2" xmlns="http://www.w3.org/2000/svg" xmlns:xlink="http://www.w3.org/1999/xlink" viewBox="0 0 97.41 55.44">
  <defs>
    <style>
      .cls-1 {
        fill: none;
      }

      .cls-2 {
        fill: #a19385;
        opacity: .25;
      }

      .cls-3 {
        fill: #a19385;
      }

      .cls-4 {
        fill: #fff;
      }

      .cls-5 {
        opacity: .5;
      }

      .cls-6 {
        fill: #a19385;
      }

      .cls-7 {
        fill: #a19385;
        opacity: .8;
      }

      .cls-8 {
        clip-path: url(#clippath);
      }
    </style>
    <clipPath id="clippath">
      <rect class="cls-1" width="97.41" height="55.44"/>
    </clipPath>
  </defs>
  <g id="Layer_1-2" data-name="Layer_1">
    <g class="cls-8">
      <g>
        <path class="cls-4" d="M91.81.04H5.6C2.51.04,0,2.56,0,5.65v44.25c0,2.95,2.31,5.41,5.26,5.59h86.85s.05,0,.05,0c2.95-.18,5.26-2.63,5.26-5.6V5.65c0-3.09-2.51-5.61-5.6-5.61"/>
        <path class="cls-7" d="M1.6,45.74h94.31v4.05H1.6v-4.05Z"/>
        <path class="cls-2" d="M1.6,41.64h94.31v4.12H1.6v-4.12Z"/>
        <g class="cls-5">
          <path class="cls-3" d="M5.4,53.94h86.7c2.12-.13,3.81-1.89,3.81-4.04h0s-94.31-.01-94.31-.01h0c0,2.17,1.69,3.92,3.81,4.05"/>
        </g>
        <path class="cls-6" d="M91.81,1.54H5.6C3.36,1.54,1.55,3.36,1.55,5.6v36.06h94.31V5.6c0-2.24-1.81-4.06-4.05-4.06"/>
        <path class="cls-4" d="M37.8,21.34c1.14,1.14,1.68,2.41,1.68,3.84s-.59,2.68-1.51,3.7c-1,1.12-2.45,1.75-4.08,1.75-1.53,0-2.85-.44-3.94-1.75-1.07-1.27-1.31-2.28-1.31-3.77,0-1.17.59-2.87,2.04-4.03,1.19-.98,2.46-1.17,3.45-1.17,1.63,0,2.85.64,3.67,1.44M36.51,25.11c0-2.67-1.41-4.23-2.53-4.23-.63,0-1.11.2-1.53.66-.76.85-1.05,1.87-1.05,3.64,0,1.41.1,2.33.76,3.38.41.66.95,1.05,1.92,1.05,1.6,0,2.43-2.02,2.43-4.5"/>
        <path class="cls-4" d="M61.8,24.94c0,2.48,1.77,3.94,3.16,3.94,1.51,0,2.43-.64,2.94-1.41.1-.17.2-.17.3-.12l.36.22c.12.07.17.17,0,.49-.51.93-1.75,2.58-4.42,2.58-1.56,0-2.65-.34-3.5-1.31-1.12-1.29-1.36-2.51-1.36-4.01,0-1.33.15-2.24,1.19-3.6,1.02-1.31,2.11-1.8,4.23-1.8,2.77,0,3.67,2.89,3.67,3.89,0,.36-.25.39-.68.39h-5.88v.75ZM64.82,23.31c.51,0,.8-.15.8-.34,0-.73-.24-2.16-1.51-2.16-1.19,0-1.92.88-2.24,2.5h2.94Z"/>
        <path class="cls-4" d="M71.3,24.04c0-1.12-.19-1.51-.92-1.9l-.44-.24c-.14-.05-.19-.1-.19-.2v-.15c0-.1.05-.14.19-.22l2.94-1.39c.15-.05.24-.1.39-.1s.19.15.22.3l.22,1.75h.1c.83-1.36,1.85-2.19,2.91-2.19.78,0,1.26.54,1.26,1.22s-.68,1.31-1.31,1.31c-.34,0-.63-.1-.83-.19-.19-.15-.43-.2-.68-.2-.29,0-.73.2-1.02.71-.19.34-.29.87-.29,1.19v4.69c0,.78.2,1.02.68,1.02h1.07c.14,0,.19.05.19.17v.56c0,.12-.05.17-.17.17-.17,0-1.24-.07-3.02-.07s-2.65.07-2.84.07c-.12,0-.17-.05-.17-.17v-.53c0-.15.05-.2.22-.2h.85c.39,0,.63-.19.63-.66v-4.76Z"/>
        <path class="cls-4" d="M78.7,27.24c-.02-.1,0-.17.07-.2l.46-.14c.1-.03.17-.03.22.07l.8,1.36c.44.73.9,1.31,2.09,1.31.95,0,1.72-.58,1.72-1.48,0-.97-.63-1.41-2.33-1.9-1.65-.48-2.97-1.31-2.97-3.04,0-1.07.39-1.94,1.24-2.55.85-.58,1.53-.8,2.53-.8,1.19,0,1.92.3,2.36.54.36.19.44.29.46.43l.32,1.66c.02.1.02.22-.03.27l-.46.22c-.07.02-.15,0-.19-.1l-1.17-1.31c-.29-.32-.73-.75-1.53-.75-.9,0-1.68.53-1.68,1.38,0,1,.73,1.29,2.19,1.67,1.12.29,1.8.58,2.43,1.26.54.54.73,1.12.73,1.95,0,2.04-1.65,3.5-4.06,3.5-1.29,0-2.36-.41-2.63-.63-.1-.1-.17-.17-.19-.27l-.39-2.45Z"/>
        <path class="cls-4" d="M58.3,29.44h-.97c-.24,0-.34-.19-.39-.63-.05-.29-.05-1.17-.05-2.09v-2.62c0-2.02,0-3.57.05-3.96.02-.2-.05-.3-.2-.3s-.34.05-.58.15c-.42.17-2.82,1.02-3.16,1.17-.12.05-.17.1-.17.19v.27c0,.09.02.17.24.22,1.12.29,1.27.78,1.27,1.51v3.43c0,.68-.02,1.46-.05,2.19-.03.39-.15.49-.39.49,0,0-.17.04-1.2.04s-1.31-.04-1.31-.04c-.53,0-.58-.34-.63-.78-.05-.73-.05-3.2-.05-4.32v-3.5c0-1.34.05-6.39.1-7.7,0-.34-.1-.44-.24-.44-.1,0-.24.05-.53.14-.78.49-2.67,1.12-3.64,1.41-.15.05-.19.14-.19.19v.29c0,.1,0,.15.15.2l.49.14c.78.24,1.19.63,1.24,1.46.05.63.1,2.72.1,4.42v7.61c0,.68-.37.87-.61.87,0,0-.37.04-1.26.04s-1.24-.04-1.24-.04c-.54,0-.59-.34-.64-.78-.05-.73-.05-3.2-.05-4.32v-3.5c0-1.34.05-6.39.1-7.7,0-.34-.1-.44-.24-.44-.1,0-.24.05-.54.14-.78.49-2.67,1.12-3.64,1.41-.15.05-.2.14-.2.19v.29c0,.1,0,.15.15.2l.48.14c.78.24,1.19.63,1.24,1.46.05.63.1,2.72.1,4.42v7.61c0,.68-.36.87-.61.87h-.93c-.29,0-.34.05-.34.2v.46c0,.15.05.24.19.24.1,0,4.76-.05,9.34-.05s8.77.05,8.86.05c.15,0,.2-.1.2-.24v-.49c0-.12-.05-.17-.24-.17"/>
        <path class="cls-4" d="M27.4,26.84c-.16-.15-.44-.4-.46-.42-.03-.03-.11,0-.14.03-1.08,1.37-3.09,2.55-5.6,2.55-1.17,0-2.58-.2-4.18-1.9-1.8-1.94-2.24-4.81-2.24-6.32,0-3.49,1.61-7,5.49-7,1.9,0,3.16.78,4.23,1.8,1.02,1.07,1.6,2.28,1.9,3.16.07.2.15.29.27.25l.46-.15c.1-.03.12-.1.1-.25-.1-.73-.58-4.61-.58-5.05,0-.34-.05-.39-.34-.39s-.34,0-.39.15l-.2.63c-.05.19-.15.19-.49,0-.87-.48-2.67-1.17-4.91-1.17-2.92,0-5,1.17-6.32,2.58-1.7,1.85-2.48,4.13-2.48,6.51,0,2.14.83,4.96,2.62,6.56,1.51,1.36,3.26,2.28,6.37,2.28s5.43-1.71,6.91-3.63c.03-.04.04-.16-.03-.23"/>
        <path class="cls-4" d="M56.8,16.74c0,.82-.66,1.48-1.48,1.48s-1.48-.66-1.48-1.48.66-1.48,1.48-1.48,1.48.67,1.48,1.48"/>
      </g>
    </g>
  </g>
</svg>