<svg width="69.96" height="48" id="Layer_2" xmlns="http://www.w3.org/2000/svg" viewBox="0 0 277.96 191.04"><defs><style>.cls-1{fill:none;}.cls-2{fill:#a19385;}</style></defs><g id="Layer_1-2"><path class="cls-2" d="M169.3,.02c3.35,0,6.7-.08,10.05,.08-.15,1.6-.15,3.12-.15,4.72V146.23c-.15,2.59-3.88,3.5-5.41,1.45-21.7-27.57-43.33-55.21-65.03-82.78-.08,42.04-.08,84.07,0,126.11-3.35,.08-6.62,0-9.98,0V55.23c.08-3.58-.08-7.31,.08-10.89,.15-2.59,3.96-3.43,5.41-1.37,21.63,27.57,43.25,55.21,64.88,82.78,.15-41.81,.08-83.77,.15-125.73h0Z"/><path class="cls-2" d="M9.98,52.64v85.82c7.62,0,15.31,.08,23,0,8.07-.08,16.37-2.59,22.62-8,5.41-4.65,9.06-11.04,11.04-17.82,2.82-9.44,3.05-19.5,1.14-29.09-1.52-7.62-4.42-15.23-9.9-20.79-6.24-6.7-15.46-9.98-24.45-10.13H9.98Zm23.99-9.9c9.67,.3,19.34,3.27,26.88,9.37,6.85,5.33,11.73,12.95,14.47,21.17,3.12,9.44,4.19,19.49,3.35,29.32-.84,8.53-3.05,17.06-7.46,24.45-3.35,5.79-8.07,10.74-13.63,14.39-7.39,4.8-16.3,6.93-24.98,7.01H3.51c-1.83,.15-3.58-1.52-3.5-3.35V46.47c-.08-1.22,.38-2.59,1.52-3.27,.76-.53,1.83-.46,2.82-.53,9.82,.08,19.72-.08,29.62,.08h0Z"/><path class="cls-2" d="M212.78,97.88v40.67c9.98,0,20.03,.08,30.08,0,6.78-.23,14.16-1.52,19.42-6.17,4.11-3.5,5.79-9.06,5.79-14.24,.38-5.48-1.9-11.04-6.09-14.55-4.87-4.11-11.42-5.71-17.67-5.64-10.59-.08-21.02-.15-31.53-.08h0Zm0-45.24c-.08,11.73,0,23.46,0,35.18,10.66,.08,21.25,0,31.91,.08,5.18,.08,10.59-2.06,13.4-6.55,2.89-4.64,3.12-10.43,2.21-15.61-.69-4.11-3.27-7.84-6.93-9.75-5.94-3.12-12.95-3.35-19.57-3.27-7.01-.08-14.01-.08-21.02-.08h0Zm24.67-9.98c7.62,.15,15.69,1.22,22.24,5.41,5.25,3.27,8.99,8.83,10.2,14.93,1.45,6.93,1.14,14.47-1.98,21.02-1.37,3.05-3.5,5.56-5.94,7.77,6.09,3.05,11.27,8.07,13.94,14.47,2.67,6.24,2.44,13.33,.99,19.88-1.52,6.32-5.33,12.11-10.74,15.76-7.08,4.95-15.92,6.47-24.37,6.63h-35.11c-1.98,.3-3.96-1.37-3.81-3.35V46.17c-.15-1.9,1.6-3.5,3.43-3.35,10.36-.15,20.71-.15,31.15-.15h0Z"/><rect class="cls-1" x="0" width="69.96" height="48"/></g></svg>