<?xml version="1.0" encoding="UTF-8"?>
<svg width="160" height="48"   id="Layer_2" xmlns="http://www.w3.org/2000/svg" viewBox="0 0 712.1 327.79">
  <defs>
    <style>
      .cls-1 {
        fill: #a19385;
      }
    </style>
  </defs>
  <g id="Layer_1-2" data-name="Layer_1">
    <path class="cls-1" d="M469.81,133.14c-.45-.41-2.44.3-3.31,1.02-4.53,3.75-8,3.19-10.34-2.22-1.1-2.53-1.98-5.4-1.99-8.12-.13-22.65-.03-45.3,0-67.95,0-2.25,0-4.51,0-7.5-4.68,1.8-5.51-.95-7.31-3.61-2.3-3.39-5.57-6.7-9.19-8.5-13.07-6.49-27.08-5.78-41.03-3.82-9.64,1.36-18.31,4.88-26.31,10.87-9.29,6.95-10.57,23.71-2.48,31.03,4.28,3.88,11.65,4.76,16.75,2.62,5.81-2.44,8.01-6.68,6.83-13.53-.43-2.5-2.2-4.83-3.6-7.08-3.4-5.47-2.42-10.33,2.98-13.98,7-4.73,20.03-4.97,26.94-.35,4.01,2.69,6.73,6.29,6.74,11.4.02,8.8.01,17.61.01,25.28-16.22,5.88-31.74,10.58-46.46,17.11-15.71,6.96-25.31,26.06-16.27,43.62,4.55,8.84,11.46,13.88,21.29,14.37,14.72.72,25.72-6.31,34.3-17.63,2.79-3.68,5.02-7.79,7.98-12.45.34,2.9.6,4.86.8,6.82.89,8.8,3.94,16.39,12.31,20.63,9.03,4.57,17.73,2.48,25.24-3.14,3.45-2.58,5.4-7.28,7.66-11.23.43-.75-.62-2.81-1.54-3.66ZM424.15,110.34c-2.65,10.01-7.98,19.43-18.37,24.22-7.15,3.29-15.96-3.43-16.7-12.71-.64-7.88,1.81-14.51,7.49-20.18,7.78-7.76,16.95-12.82,27.98-16.26,0,8.79,1.62,17.34-.4,24.93Z"/>
    <path class="cls-1" d="M108.7,114.8c-3.75-2.2-4.42,1.64-5.63,3.64-4.38,7.19-10.31,13.07-18.23,15.37-14.3,4.14-29.39-.05-39.88-11.84-6.28-7.05-9.51-15.59-11.38-24.48-1.36-6.47-1.07-13.29-1.54-20.33h78.1c0-1.9.21-3.09-.03-4.18-3.4-15.6-11.15-28.14-25.58-35.88-15.02-8.04-30.95-8.57-46.03-1.98C13.14,46.22.32,66.72,0,94.43c-.34,29.62,17.78,53.14,46.48,57.94,25.33,4.24,47.15-4.97,62.52-30.23,1.5-2.47,3.16-5.3-.3-7.34ZM51.26,39.33c7.89-3.95,18.7.28,22.98,9.87,2.82,6.3,4.27,13.21,6.69,20.98h-46.66c-.75-11.16,7.41-26.06,16.99-30.85Z"/>
    <path class="cls-1" d="M659.13,75.85c16.15-.06,32.3-.17,48.45-.23,2.75-.01,5.09-.17,4.39-4.03-2.01-11.01-7.14-20.33-15.18-28.02-8.61-8.24-19.15-11.69-30.87-12.64-26.32-2.14-47.08,12.86-57.71,33.51-6.39,12.42-7.1,25.83-4.96,39.4,2.95,18.73,11.94,33.93,28.91,42.85,28.34,14.89,62.24,3.17,77.07-24.84.85-1.6-.47-4.34-.78-6.54-1.65.89-3.39,1.66-4.91,2.73-.75.54-1.1,1.64-1.64,2.48-13.04,20.29-41.8,17.87-55.17,2.53-11.69-13.42-14.29-29.39-13.45-47.2,8.92,0,17.39.03,25.85,0ZM652.78,39.55c7.55-4.37,17.19-1.8,22.36,5.39,5.58,7.76,6.8,11.53,7.76,24.48h-48.35c1.87-12.57,6.83-23.27,18.23-29.87Z"/>
    <path class="cls-1" d="M137.51,148.99c0-12.25,0-23.99,0-35.72q0-3.46,4.82-4.16c.32,1.16.68,2.37.98,3.6,3.34,13.73,9.5,25.58,23.21,31.4,9.48,4.03,19.33,4.11,28.59-1.08,7.21-4.04,8.76-12.82,4.17-19.72-4.87-7.32-12.89-10.11-19.91-14.31-8.68-5.18-17.79-9.65-26.35-15.01-20.19-12.66-19.67-41.93.74-54.32,12.51-7.59,26.14-8.62,40.2-6.93,6.06.73,12.05,2.03,18.1,2.86,1.92.26,3.94-.18,6.6-.33-.66,10.23-1.27,20.49-2.07,30.75-.08.98-1.35,1.87-2.06,2.8-.76-.69-1.9-1.23-2.21-2.08-3.72-10.29-9.63-18.99-18.97-24.83-6.93-4.34-14.73-4.79-22.15-1.58-6.43,2.78-11.09,7.8-10.04,15.45.45,3.3,2.02,7.57,4.52,9.24,6.67,4.45,14.25,7.52,21.25,11.53,9.18,5.25,19.2,9.7,26.98,16.6,11.97,10.63,12.1,29.52,3.14,42.43-7.07,10.19-17.6,14.89-29.27,16.57-16.77,2.42-33.48,1.01-50.26-3.15Z"/>
    <path class="cls-1" d="M509.25,49.63c-4.23,0-7.86-.06-11.48.01-7.71.16-7.71.19-9.03-7.77,6.56-4.42,13.58-8.11,19.3-13.24,8.55-7.67,16.13-16.4,24.25-24.56,1.14-1.15,2.93-1.64,4.42-2.44.45,1.63,1.27,3.27,1.29,4.91.12,10.49.06,20.98.06,32.74,13.01-1.01,26.27-2.04,39.59-3.07.06.14.33.43.3.69-1.21,10.55-1.21,10.71-11.88,10.99-8.97.24-17.95.05-27.53.05-.08,1.9-.22,3.65-.23,5.4-.11,19.83-.2,39.65-.28,59.48,0,1.83.05,3.67.19,5.49.61,8.29,4.32,13.72,10.71,15.77,7.85,2.51,15.29.4,20.47-5.78.64-.76,1-1.96,1.78-2.36,1.15-.58,2.92-1.22,3.8-.72.94.54,1.83,2.51,1.58,3.59-4.57,20.03-37.03,32.15-53.57,20.15-9.24-6.7-13.3-16.16-13.51-27.07-.4-21.32-.19-42.65-.23-63.97,0-2.48,0-4.96,0-8.28Z"/>
    <path class="cls-1" d="M294.33.82v38.86c14.51-2.01,28.46-3.95,42.89-5.95-.73,4.84-1.48,9.84-2.3,15.22h-40.22c-.15,1.49-.37,2.6-.37,3.71-.04,20.65-.12,41.3-.04,61.95.04,9.9,4.19,17.36,10.34,19.25,8.83,2.71,18.13-.54,24.1-8.42,2.74-3.62,5.3-3.83,6.55-.42.37,1.01.05,2.65-.58,3.57-9.05,13.3-20.46,22.79-37.51,23.47-11.89.47-25.2-8.08-28.22-19.57-1.95-7.43-3.15-15.26-3.28-22.93-.32-18.81.18-37.63.34-56.45,0-.96-.08-1.92-.14-3.37h-19.15c-.81-4.62-1.19-7.46,4.01-10.22,15.63-8.3,27.36-21.18,37.67-35.4,1.15-1.59,2.88-2.76,4.34-4.12.52.27,1.05.55,1.57.82Z"/>
    <path class="cls-1" d="M100.36,204.9h14.3c14.55,36.76,29.27,73.95,44.33,112,2.15-5.8,3.95-10.95,5.95-16.02,12.02-30.48,24.15-60.9,36.03-91.43,1.47-3.77,3.38-5.18,7.28-4.73,2.76.32,5.58.06,8.46.06v122.4h-8.15v-112.46c-.5-.15-.99-.31-1.49-.46-15.98,36.98-29.81,74.83-44.72,112.61-4.23.96-7.62.81-9.68-4.71-9.56-25.55-19.48-50.96-29.3-76.41-3.05-7.92-6.14-15.82-9.34-23.68-1.11-2.73-2.62-5.3-5.1-7.74v113.26c-3.33-.17-5.88-.31-8.55-.45v-122.23Z"/>
    <path class="cls-1" d="M449.32,250.94c-4.09-23.96-16.54-36.28-34.76-41.08-7.16-1.89-14.61-3.21-21.99-3.58-11.56-.59-23.17-.16-35.36-.16v118.87c9.51,0,19.31.47,29.04-.12,11.89-.73,23.78-1.95,34.82-7.25,11.73-5.63,20.52-13.83,24.84-26.38,4.54-13.15,5.75-26.63,3.41-40.3ZM435.7,294.13c-4.58,11.16-13.4,17.69-24.75,20.83-14.83,4.11-30,2.47-45.25,2.67v-105.86c15.18,1.01,29.73.87,43.86,3.22,14.61,2.43,24.22,12.64,27.86,26.8,4.48,17.41,5.34,35.16-1.72,52.34Z"/>
    <path class="cls-1" d="M254.15,203.81h70.98v7.14h-62.54v51.52h51.37v6.18h-51.42v49.02h64.3v7.86h-72.69v-121.73Z"/>
    <path class="cls-1" d="M619.37,318.08c-14.41-36.07-28.86-72.13-43.17-108.25-1.3-3.27-3.02-4.49-6.57-4.49-3.6,0-4.26,2.05-5.08,4.68-1.04,3.31-2.3,6.56-3.56,9.8-12.2,31.11-24.41,62.22-36.64,93.32-1.78,4.54-3.7,9.03-5.79,14.11,2.73.21,4.68.36,7.02.54,5.16-13.02,10.28-25.61,15.1-38.32,1.09-2.85,2.55-3.67,5.44-3.65,16.16.06,32.32,0,48.47-.16,2.87-.03,4.43.7,5.5,3.6,3.89,10.61,8.55,20.96,12.03,31.69,1.93,5.96,5.24,6.72,10.63,5.36-1.13-2.76-2.28-5.49-3.38-8.23ZM543.96,279.63c8.6-22.16,17.04-43.88,25.48-65.59.41-.03.83-.05,1.24-.08,8.69,21.66,17.39,43.32,26.36,65.67h-53.08Z"/>
    <path class="cls-1" d="M483.05,203.97h7.67v123c-2.91-.15-5.28-.28-7.67-.4v-122.59Z"/>
  </g>
</svg>