<svg xmlns="http://www.w3.org/2000/svg" width="160" height="48" viewBox="0 0 380 119.88">
  <defs>
    <style>
      .cls-1 {
        fill-rule: evenodd;
        mix-blend-mode: luminosity;
        stroke:#a19385;
        fill:#a19385;
      }
    </style>
  </defs>
  <path id="langaard-logo-full.svg" class="cls-1" d="M800.328,3352.34H770v-0.81c3.363,0,4.751-1.18,4.751-4.54v-17.03c0-3.13-1.388-3.93-4.751-3.93v-0.81h14.982v0.81c-3.507,0-4.677,1.37-4.677,4.26v18.12c0,2.13,1.242,2.6,4.75,2.6h8.33c5.042,0,6.431-.71,8.258-4.59h1.242Zm35.077-10.98H821.886l-2.851,5.44c-1.388,2.65-2.119,4.68,2.266,4.73v0.81H810.485v-0.81c3.946-.38,4.9-1.75,6.212-4.26l11.547-22.33h4.311l12.131,23.33c1.242,2.51,2.264,3.26,5.992,3.26v0.81H835.916v-0.81c2.85,0,4.238-.8,3.288-2.65Zm-6.723-13.16h-0.147l-5.846,11.5h11.766Zm69.642,24.14h-1.242l-29.524-23.57h-0.146v19.03c0,2.74,1.681,3.73,5.482,3.73v0.81H860.178v-0.81c3.507,0,5.188-.71,5.188-4.63v-15.86c0-3.02-1.243-4.73-6.211-5.01v-0.81H869.9l26.161,21.11H896.2v-15.85c0-3.55-1.46-4.45-5.114-4.45v-0.81h12.642v0.81c-4.093,0-5.408,1.09-5.408,4.26v22.05Zm50.569,0a115.837,115.837,0,0,1-11.692.66c-18.417,0-24.554-7.19-24.554-13.44,0-9.6,11.253-15,21.557-15,5.92,0,8.184,1.28,11.4,1.28,1.316,0,1.9-.24,2.338-0.9h1.316v8h-1.169c-1.1-5.16-8.184-7.34-13.885-7.34-8.622,0-15.127,4.88-15.127,12.31,0,7.94,7.308,13.81,17.246,13.81,3,0,7.015-.47,7.015-2.88v-2.94c0-3.31-1.169-4.49-4.6-4.49h-1.609v-0.81h16.954v0.81c-4.092,0-5.188,1.28-5.188,3.64v7.29Zm35.734-10.98h-13.52l-2.85,5.44c-1.388,2.65-2.119,4.68,2.266,4.73v0.81H959.707v-0.81c3.946-.38,4.9-1.75,6.212-4.26l11.546-22.33h4.311l12.132,23.33c1.241,2.51,2.264,3.26,5.992,3.26v0.81H985.137v-0.81c2.851,0,4.239-.8,3.289-2.65ZM977.9,3328.2h-0.146l-5.846,11.5h11.766Zm55.617,13.16H1020l-2.85,5.44c-1.39,2.65-2.12,4.68,2.26,4.73v0.81H1008.6v-0.81c3.94-.38,4.89-1.75,6.21-4.26l11.54-22.33h4.31l12.14,23.33c1.24,2.51,2.26,3.26,5.99,3.26v0.81h-14.76v-0.81c2.85,0,4.23-.8,3.28-2.65Zm-6.73-13.16h-0.14l-5.85,11.5h11.76Zm41.87,19.03c0,3.31,1.32,4.3,4.76,4.3v0.81h-15.06v-0.81c3.22,0,4.75-.66,4.75-4.3v-16.99c0-3.55-1.39-4.21-4.75-4.21v-0.81h17.17c9.43,0,13.96,3.51,13.96,7.1,0,2.98-2.48,5.49-8.62,6.68,7.82,3.26,10.45,12.2,17.39,12.53v0.81h-8.55c-7.82-6.15-10.01-12.54-17.68-12.54h-3.37v7.43Zm0-8.57h5.12c7.09,0,9.86-3.12,9.86-6.24,0-3.6-4.16-6.15-10.59-6.15h-4.39v12.39Zm43.12-8.33c0-3.26-1.24-4.3-4.75-4.3v-0.81h19.37c16,0,23.6,6.96,23.6,14.01,0,6.81-6.65,13.11-23.09,13.11h-19.88v-0.81c3.36,0,4.75-.94,4.75-4.3v-16.9Zm5.55,15.95c0,4.21,1.47,5.02,5.34,5.02h4.31c10.38,0,16.59-4.64,16.59-12.02,0-6.48-5.05-13.01-18.27-13.01h-7.97v20.01Zm-158.083-78.82a8.875,8.875,0,0,1-.044,3.28c-0.106-1.06,0-2.32-.106-3.43Zm1.967,0.43a11.938,11.938,0,0,1-.726,2.89,29.712,29.712,0,0,0,.555-3,0.232,0.232,0,0,1,.171.11m-5.239,1.62a11.09,11.09,0,0,1,.194,2.21h-0.044a23.208,23.208,0,0,1-.3-2.36Zm7.74,1.34a11.813,11.813,0,0,1-1.283,1.38c0.62-.81,1.239-1.47,1.753-2.3a2.094,2.094,0,0,1-.47.92m-6.456.36a0.508,0.508,0,0,1-.107-0.57,0.758,0.758,0,0,1,.107.57m7.952,0.08a9.25,9.25,0,0,1-1.795,1.79c0.533-.61,1.3-1.13,1.795-1.79m0.513,1.96,0.257-.25,0.043,0.04Zm-5.857.09c-0.043.08-.3-0.17-0.407,0.06-0.128-.06,0-0.15.043-0.21a0.5,0.5,0,0,1,.364.15m5.494,0.25a0.624,0.624,0,0,1-.3.17,0.429,0.429,0,0,0,.043-0.32,0.167,0.167,0,0,0,.257.15m-4.4.22-0.064.04c-0.193-.02-0.15-0.3-0.407-0.19l0.043-.15a0.563,0.563,0,0,1,.428.3m-4.682-.15-0.193.15-0.064-.05c0.023-.12.171-0.23,0.257-0.1m0.727,0.1-0.064-.1h0.171Zm0.877,0.2c-0.021.06,0.043,0.17-.064,0.21-0.087-.06-0.15-0.19-0.043-0.26a0.135,0.135,0,0,1,.107.05m2.565,0.4c-0.064,0-.362-0.3-0.512-0.04l-0.066-.04c0.129-.37.407,0.02,0.578,0.08m1.432,0.06a0.348,0.348,0,0,1-.064.3c-0.127-.1-0.15-0.45-0.257-0.51a0.477,0.477,0,0,1,.321.21m-4.981-.06a0.883,0.883,0,0,0-.4.17l-0.066-.06c0.087-.28.278-0.13,0.471-0.11m0.62,0.21a0.212,0.212,0,0,1-.214.11c-0.107-.09.13-0.24,0.214-0.11m8.06,0.47a0.151,0.151,0,0,1-.064.09h-0.15c-0.021-.11.127-0.09,0.214-0.09m-2.309,1.32a1.534,1.534,0,0,1-.214-0.51,1.215,1.215,0,0,0,0-.62,1.141,1.141,0,0,1,.214,1.13m-0.877-.98a0.267,0.267,0,0,1-.107.26c-0.214,0-.02-0.26-0.15-0.34a0.342,0.342,0,0,1,.257.08m-1.347.36-0.043-.19,0.107,0.15Zm0.877,0.62-0.107.11a0.444,0.444,0,0,1,.064-0.51,0.82,0.82,0,0,1,.043.4m0.577-.1c0.128,0.08-.043.17-0.064,0.25h-0.043c-0.127-.08-0.02-0.23.107-0.25m0.043,0.76-0.043-.25c0,0.08.171,0.17,0.043,0.25m1.133,0.32-0.107.09,0.043-.66c0.235,0.06.171,0.42,0.064,0.57m-3.7,1.68a0.121,0.121,0,0,1-.043.11h-0.107v-0.11h0.15Zm0.62,0.05a0.422,0.422,0,0,1-.471-0.05,1.217,1.217,0,0,1,.471.05m2.159,0H962.5v-0.05a0.374,0.374,0,0,1,.257.05m7.589,1.12a9.241,9.241,0,0,0,.876,2.52,7.005,7.005,0,0,1-1.089-2.52,1.2,1.2,0,0,1,.213-0.91,4.161,4.161,0,0,1,0,.91m-7.653-.61c-0.064.06-.278,0.1-0.257-0.05a0.351,0.351,0,0,1,.257.05m-1.475.06a0.106,0.106,0,0,1-.064.09h-0.043v-0.15a0.15,0.15,0,0,1,.107.06m-12.935,1.47a0.165,0.165,0,0,1-.15.06v-0.1a0.149,0.149,0,0,1,.15.04m1.732,0.15a3.7,3.7,0,0,1-1.581-.19c0.576-.07,1.026.23,1.581,0.19m-2.244-.15a1.689,1.689,0,0,1-.663.15,1.527,1.527,0,0,1,.663-0.15m-0.92.21a0.135,0.135,0,0,1-.064.11h-0.15a0.2,0.2,0,0,1,.214-0.11m-0.984.45a4.9,4.9,0,0,0-2.052,2.26c0-.98,1.283-1.81,2.052-2.26m26.532,5.32-1.026,1.58-0.214-.09a6.883,6.883,0,0,0,1.133-3.02,3.072,3.072,0,0,0-.555-2.15l0.041-.15c1.2,0.85.942,2.6,0.621,3.83m0.705-.61a8.224,8.224,0,0,0,.107-2.71l0.364-.3c-0.535.79,0.234,2.11-.471,3.01m-1.283-1.28a0.088,0.088,0,0,1-.084.06l-0.173-.51c0.257,0.04.173,0.3,0.257,0.45m-9.791.72a0.18,0.18,0,0,1-.107.19,0.2,0.2,0,0,1-.257-0.14c-0.107-.28.321-0.26,0.364-0.05m0.3,1.13a0.267,0.267,0,0,1-.085.3,0.318,0.318,0,0,1-.172-0.47,0.2,0.2,0,0,1,.257.17m0.577,1.11c0,0.15.021,0.34-.15,0.36-0.107-.15-0.384-0.43-0.064-0.55a0.265,0.265,0,0,1,.214.19m-10.518,1.7a5.423,5.423,0,0,1-2.823-1.64l0.045-.15a6.423,6.423,0,0,0,2.778,1.79m-1.346.45a8.27,8.27,0,0,1-4.149-.92l0.045-.04a12.241,12.241,0,0,0,4.1.96m3.911,1.79-0.063-.05a11.165,11.165,0,0,0,1.8-2.7,6.7,6.7,0,0,1-1.732,2.75m2.1-2.49a3.967,3.967,0,0,1-.769,1.98c0.043-.3.32-0.62,0.362-0.96a2.275,2.275,0,0,1,.407-1.02m-4.661.7a1.789,1.789,0,0,1-.919,0,2.035,2.035,0,0,1,.919,0m22.426,2.55c-0.171.09-.362-0.19-0.512-0.1a9.6,9.6,0,0,0-2.523-1.43,10.8,10.8,0,0,1-2.2-.81l0.107-.15c1.8,0.6,3.719.9,5.13,2.49m-5.75-.7c0.127,1.43-1.5,2.38-.833,3.98l-0.045.04c-1.154-1.87,1.774-3.06.257-4.85a1.362,1.362,0,0,1,.621.83m3.527,0.26-0.15-.26,0.214,0.19Zm0.513,0.85c-0.022-.3-0.321-0.56-0.341-0.81,0.084,0.32.555,0.49,0.341,0.81m-10.3,1.7c0.535,0.53-.385,1.02,0,1.68,0.578,0.26.7-.66,1.281-0.4a0.7,0.7,0,0,1,.259.96c-0.259.81-1.454-.39-1.178,0.66,0.3,1.04.45,2.13,0.664,3.17a1.37,1.37,0,0,0,.662-0.51c-0.684-.87.7-0.75,0.985-1.28a1.885,1.885,0,0,1,.4,1.43l-0.471-.09-1.731,1.79a24.587,24.587,0,0,0-2.673-.94c-0.214.03-.448,0.43-0.619,0.07a6.243,6.243,0,0,1,.064-1.28,9.074,9.074,0,0,1,1.538.3,0.675,0.675,0,0,0-.212.4,1.559,1.559,0,0,0,1.026.32,13.657,13.657,0,0,0-.664-3.47c-0.7-.23-1.411,1.02-1.859,0a1.155,1.155,0,0,1,.171-0.72,0.817,0.817,0,0,1,.6-0.15c0.193,0.32.492,0.02,0.728,0.04,0.428-.87-1.219-0.91-0.557-1.94a1.106,1.106,0,0,1,1.583-.04m-1.326.15a1.182,1.182,0,0,0,.193.92c0.64-.09.428,0.61,0.578,0.97-0.494.58-1.069,0.15-1.647,0.35a1.291,1.291,0,0,0,.043.51,0.744,0.744,0,0,0,.662-0.19,1.417,1.417,0,0,1,1.133-.07c0.193,1.3.662,2.47,0.769,3.79l-0.15.15c-0.533-.28-1.709.04-1.581-0.92a1.2,1.2,0,0,0-.771-0.04,3.125,3.125,0,0,0,.086.71,0.905,0.905,0,0,1,.428-0.11,10.589,10.589,0,0,0,2.352.87l1.838-1.79,0.171,0.07a2.932,2.932,0,0,0-.214-0.62,0.872,0.872,0,0,0-.662.36c0.364,0.58-.491.81-0.726,1.22-0.15.14-.3-0.05-0.407-0.15l-0.812-3.73,0.15-.15a0.778,0.778,0,0,1,.876,0c0.343,0.06.384-.36,0.343-0.62a0.335,0.335,0,0,0-.3-0.25,1.337,1.337,0,0,1-1.069.55c-0.555-.4-0.235-0.96-0.171-1.47,0.171-.85-0.771-0.51-1.112-0.36m0.919,0.25a0.486,0.486,0,0,1-.32.52,0.375,0.375,0,0,1-.407-0.26,0.412,0.412,0,0,1,.257-0.47,0.479,0.479,0,0,1,.47.21m-0.47.3h0.214v-0.15c-0.064-.23-0.278,0-0.214.15m-7.739.98c0.6,0.54-.3,1.02.043,1.64,0.64,0.3.876-.87,1.5-0.32a0.806,0.806,0,0,1,.042.92c-0.342.62-1.432-.38-1.133,0.68,0.364,1.02.555,2.11,0.833,3.15,0.215-.23.791-0.45,0.557-0.85l-0.15-.21a14.271,14.271,0,0,1,1.239-.77,4.025,4.025,0,0,1,.45,1.32c-1.027-.04-1.539,1.24-2.308,1.85-0.771-.42-1.711-0.4-2.46-0.87-0.341-.13-0.6.49-0.812,0.04a3.336,3.336,0,0,1,.043-1.32c0.492,0.11.983,0.21,1.5,0.3a0.631,0.631,0,0,0-.17.43,1.621,1.621,0,0,0,1.026.3,12.2,12.2,0,0,0-.769-3.48c-0.685-.21-0.983.71-1.689,0.37a0.989,0.989,0,0,1-.106-1.03c0.427-.63,1.708.43,1.389-0.72a1.064,1.064,0,0,1-.663-0.72,0.863,0.863,0,0,1,.663-1.03,1.642,1.642,0,0,1,.983.32m-1.283.11a1.05,1.05,0,0,0,.107.91c0.683-.12.471,0.66,0.664,1.03-0.45.64-1.647-.24-1.647,0.7,0.556,0.45,1.069-.34,1.689-0.3a21.149,21.149,0,0,1,1.089,3.98,1.689,1.689,0,0,1-1.645-.25,0.28,0.28,0,0,1-.107-0.41,1.349,1.349,0,0,0-.77-0.15,3.034,3.034,0,0,0,.043.77l0.363-.15a10.292,10.292,0,0,0,2.567.81,10.088,10.088,0,0,0,1.132-1.17c0.3-.19.406-0.7,0.77-0.62a2.121,2.121,0,0,0-.214-0.61,0.849,0.849,0,0,0-.662.36c0.319,0.49-.3.87-0.621,1.23-0.15.02-.321,0.19-0.449,0-0.384-1.28-.705-2.57-0.983-3.89a1.382,1.382,0,0,1,.77-0.26c0.234,0.06.3,0.23,0.512,0.06a0.6,0.6,0,0,0,0-.68,0.666,0.666,0,0,0-.619.32,1,1,0,0,1-.921,0c-0.449-.53.236-1.02,0-1.59a1.077,1.077,0,0,0-1.068-.09m0.877,0.25a0.47,0.47,0,0,1-.427.6,0.432,0.432,0,0,1-.257-0.6,0.425,0.425,0,0,1,.684,0m-0.256.09h-0.107v0.32h0.107v-0.32Zm20.672,2v0.04a1.579,1.579,0,0,1-1.54-.59,2.339,2.339,0,0,0,1.54.55m-1.689,1.94c-0.107,0-.043-0.17-0.064-0.26l0.257-.19a1.061,1.061,0,0,1-.193.45m-12.483-32.64a5.919,5.919,0,0,1,1.2-2.15,4.193,4.193,0,0,1,.6,2.23,5.225,5.225,0,0,1,1.712-1.68,3.7,3.7,0,0,1,.192,2.26,7,7,0,0,1,1.5-.77,1.578,1.578,0,0,1,.044,1.17l-0.3.98a3.4,3.4,0,0,1,1.433-.51,0.257,0.257,0,0,1,.255.19,5.047,5.047,0,0,1-.983,2.15,2.729,2.729,0,0,1,1.348.15c0,0.66-.686,1.09-0.984,1.6,0.491,0.26,1.219-.11,1.647.3a5.143,5.143,0,0,1-1.327,1.38,4.3,4.3,0,0,1,1.283.77,3.2,3.2,0,0,1-2.481.87,0.828,0.828,0,0,0-.341.6,1.32,1.32,0,0,0,.663.1,0.633,0.633,0,0,1,.769-0.25,0.736,0.736,0,0,1,.258.91c-0.044.81-.856,1.92,0.106,2.52,0.342,0.61-.641,1-0.364,1.64-0.063,1.46-1.219,2.98-.213,4.38a4.162,4.162,0,0,0,3.143,1.68,2.137,2.137,0,0,0,1.475-1.1,2.455,2.455,0,0,0-.15-2.51,0.975,0.975,0,0,0-1.432,1.31l0.149,0.17a1.888,1.888,0,0,1-1.838-.21,1.814,1.814,0,0,1-.621-1.38,2.5,2.5,0,0,1,1.945-1.98,1.749,1.749,0,0,1,0-1.39,1.393,1.393,0,0,1,.472.2c-0.279.12-.15,0.48-0.107,0.68,0.042,0.25.556,0.51,0.149,0.76a2.192,2.192,0,0,0-1.838,1.11,1.84,1.84,0,0,0,.086,1.79,1.063,1.063,0,0,0,1.026.32c0.191-.55-0.214-1.15.362-1.53a1.758,1.758,0,0,1,1.39-.22,1.788,1.788,0,0,1,1.026,1.09,2.536,2.536,0,0,1-.214,1.94c-0.855,1.38-2.373,1.38-3.742,1.68a1.467,1.467,0,0,1,.771,1.02,3.113,3.113,0,0,1-.662,2.09c-0.128.76-1.583,0.96-.813,1.79,0.385,0.04.77-.45,1.111-0.05a2.2,2.2,0,0,0,0,2.26,2.1,2.1,0,0,0,1.6.7,2.651,2.651,0,0,1-.663-1.17,2.764,2.764,0,0,0,.257-1.06c0.556-.54.535,0.27,1.068,0.29a1.691,1.691,0,0,0,.878-0.1,1.487,1.487,0,0,1-.878-0.87c-0.107-.96.321-1.86,0.107-2.75a1.618,1.618,0,0,1-1.24-.83c0.493-.47.684,0.42,1.133,0.51a2.813,2.813,0,0,1,1.647.62,8.5,8.5,0,0,1,.512,1.64,0.453,0.453,0,0,1,.557-0.3,1.778,1.778,0,0,0,1.09,1.02c0.407-.38-0.192-0.98.3-1.34a3.714,3.714,0,0,1,2.352,3.02,3.4,3.4,0,0,0-.257-2.87,5.011,5.011,0,0,0-1.283-.92c0.191-.49.854-0.27,1.133-0.77a2.549,2.549,0,0,0-1.39-1.21c-0.257-.21-0.6.19-0.812-0.17,0.15-.34.834-0.1,0.771-0.66a3.1,3.1,0,0,0-2.054-.4,6.617,6.617,0,0,1-1.795.72c-0.107.15-.257,0.43-0.471,0.19-0.257-.59.748-0.27,1.026-0.66a6.4,6.4,0,0,0,2.994-4.81l-0.173-.85c0.129-.68,1.54-0.55.835-1.34a1.219,1.219,0,0,0-1.24-.05,0.8,0.8,0,0,1-.555.26c-0.407-.26-0.023-1.19-0.728-0.91-0.191.14-.235,0.53-0.555,0.44a4.045,4.045,0,0,1-.876-3.36,1.2,1.2,0,0,0-1.24.4,2.383,2.383,0,0,0-.3,2.05,6.948,6.948,0,0,0,.555,1.12,1.025,1.025,0,0,1-.812-0.4c-0.235-1-.685-2.3.257-3.13a2.833,2.833,0,0,1,2.78-1.13,3.229,3.229,0,0,1,.812.87,1.333,1.333,0,0,1-.771,1.24l-0.769-.51a2.708,2.708,0,0,0,.47,2.24,2.078,2.078,0,0,1,1.07-.15c0.341,1.25,1.3-.02,2.009.06a2.771,2.771,0,0,1,1.369.19,1.662,1.662,0,0,1,.769,1.39c0.021,0.85-.855,1.21-1.476,1.53a4.443,4.443,0,0,0-.405-1.32c-1.411.57-.044,2.26-0.983,3.21-0.193.92-1.22,1.47-1.5,2.34a6.223,6.223,0,0,1,2.266.52c-0.087.25-.235,0.47-0.3,0.72a8.655,8.655,0,0,1,2.052,1.57c-0.449.22-1.047,0.15-1.281,0.73-0.13.34,0.255,0.28,0.4,0.4,1.283,1.09,1.453,2.75,1.54,4.39a4.379,4.379,0,0,1-1.6,2.51c-0.535.64-1.3,1.15-.919,2.05a1.39,1.39,0,0,1-.919.1c-0.578-.55-0.919.34-1.39,0.52-0.15.17-.3,0.59-0.621,0.36a1.214,1.214,0,0,0-.4-0.94c-0.064-.74-1.026-0.28-1.433-0.19a2.055,2.055,0,0,0-1.688,1.47,0.916,0.916,0,0,0,.62,1.02,1.634,1.634,0,0,0,1.368-.04,0.578,0.578,0,0,0,.214-0.92,0.527,0.527,0,0,1-.257-0.47,1.845,1.845,0,0,1,1.645.32,1.643,1.643,0,0,1,.664,1.32c0.514-.1,1.431-0.06,1.54-0.76l0.148-.11c0.557,0.62.066,1.43-.148,2.04-0.407,1.02-1.84.05-1.754,1.39a1.8,1.8,0,0,1-1.581.87,0.557,0.557,0,0,1-.3-0.21,1.411,1.411,0,0,0,.3-1.32,3.45,3.45,0,0,1-2.93-.92,2.4,2.4,0,0,1-.705-1.13,13.956,13.956,0,0,0-.876,2.56,17.2,17.2,0,0,1-5.239,6.49c-0.706-.17-1.238-0.32-1.945-0.47-0.62-.4-1.368-0.44-1.946-0.87-2.95-.96-5.132-3.92-6.327-6.58-0.279-.08-0.193.26-0.343,0.34a1.76,1.76,0,0,1-1.453.68c-0.492-.1-0.963-0.81-1.475-0.25-0.621-.05-1.2-0.62-1.861-0.11-0.213.21-.255,0.49-0.45,0.7a1.44,1.44,0,0,1-.255-1.57,1.69,1.69,0,0,1,1.176-1.02c-0.022-.56-0.277-1.54.512-1.84,0.214,0,.514-0.27.621,0.05a1.73,1.73,0,0,0,.812,1.02,1.006,1.006,0,0,0,.983-0.36c-0.364-1.36-2.138-.94-3.142-1.39a2.518,2.518,0,0,1-1.026-.59c-0.47,0-1.241.89-1.433,0.04v-0.21a1.734,1.734,0,0,0-.7.17,1.179,1.179,0,0,0-1.24.25,0.429,0.429,0,0,1-.15-0.47c0.619-.66-0.3-1.8.878-2.15a0.65,0.65,0,0,0-.323-0.7,0.518,0.518,0,0,0-.362.09,0.386,0.386,0,0,1,0-.56,2.4,2.4,0,0,1,2.116-.61c0.236-3.05,3.442-4.13,5.794-5.01a0.906,0.906,0,0,0-.664-0.4l-0.726-.11a2.211,2.211,0,0,1-2.309,1.24l-0.45.55a1.8,1.8,0,0,1-.212-1.68,1.638,1.638,0,0,1,.876-0.58c0.193-.4-0.4-0.34-0.576-0.55-0.9-.19-2.033-0.47-2.823.15a0.892,0.892,0,0,0-.257.98,0.858,0.858,0,0,0,.683.29,0.662,0.662,0,0,0,.6-0.25,0.676,0.676,0,0,1,.107-0.55h0.15c0.171,0.55,1,.95.619,1.64-0.9.49,0.064,1.38-.619,1.98-0.236.68-1.283,0.59-1.219,1.42-0.171.28-.427,0.11-0.621,0a1.143,1.143,0,0,1-.4-1.53c0.6-.68-0.407-0.98-0.621-1.53a2.875,2.875,0,0,1,.407-3.11c0.835-.39,1.475-1.24,2.566-0.98-0.064-.62-0.748-1.11-0.964-1.73a4.459,4.459,0,0,1-.105-4.3c0.683-1.7,2.607-1.79,3.592-3.17a0.786,0.786,0,0,0-.321-0.85,0.612,0.612,0,0,1-.557-0.32,2.468,2.468,0,0,1,2.2-.62,1.916,1.916,0,0,1,1.177,1.64c1.581-1.02,2.115,1.66,3.59,1.02-0.042-.4-0.576-0.25-0.811-0.51a2.061,2.061,0,0,1-.727-1.42,1.463,1.463,0,0,1,1.645.29,2.083,2.083,0,0,1,.771,1.35,2.413,2.413,0,0,1-1.327,2.15c-0.448.23-1,.17-1.431,0.4a1.612,1.612,0,0,1-.471,1.64,2.626,2.626,0,0,1-2.1.45c-0.234-.51.535-0.73,0.407-1.32a1.47,1.47,0,0,0-.728-0.73,2.9,2.9,0,0,0-2.672.73c-0.6.81-1.154,1.96-.556,2.96a5.143,5.143,0,0,0,2.93,2.4,1.061,1.061,0,0,0-.471-1.02c0.107-.45.578-0.17,0.769-0.47a2.2,2.2,0,0,0-1.176-2.19c0.407-.47,1.113-0.09,1.647-0.04a2.752,2.752,0,0,1,1.582,1.36,2.017,2.017,0,0,0,.834-0.19,6.791,6.791,0,0,1,1.111.04,1.013,1.013,0,0,0-.406,1.24,2.112,2.112,0,0,0,1.433,1.21,2.609,2.609,0,0,0,1.753-.19,1.681,1.681,0,0,0,.513-1.39c-0.577-.53-1.453-0.55-1.947-1.02,0.216-1.75,1.5-3.04,2.823-4.19-0.022-.58-0.277-1.37.406-1.73-0.064-.87-0.513-1.55-0.362-2.51,0.277,0.02.427-.45,0.725-0.21,0.214-.39-0.363-0.68-0.619-0.85-0.812-.15-1.219-1.11-1.5-1.79a26.269,26.269,0,0,0-1.625-6.5c0-.27-0.277-0.7.042-0.87a2.873,2.873,0,0,1,1.583,1.49c0.213-.53-0.021-1.26.427-1.7a3.843,3.843,0,0,1,1.176,1.64c0.406-.98-0.45-1.71-0.514-2.6,0.449-.38.856,0.25,1.283,0.4a5.739,5.739,0,0,1,1.026,1.43,5.837,5.837,0,0,1,.621-2.09c0.983,0.41.813,1.64,1.113,2.41m-0.963-1.96c-0.172-.06-0.043.13-0.15,0.17a9.228,9.228,0,0,0,.042,4.39l-0.362.25a24.177,24.177,0,0,0,.575,3.37,4.11,4.11,0,0,1,1.69,3.32c0.3,0.15.406-.41,0.706-0.51a0.7,0.7,0,0,1,.726.1c0.129,0.49.791,0.13,1.133,0.32a0.841,0.841,0,0,1,.77-0.36c0.021-.36-0.213-0.11-0.363-0.32a0.938,0.938,0,0,0,.407-0.91c0.662,0.32-.15.81,0.255,1.23l0.364-.4-0.257-.17c0.471-.11,1.155.02,1.69-0.09a0.985,0.985,0,0,0,.769-0.51c-0.662-.62-1.711-0.32-2.566-0.47-0.342.11-.747,0.9-1.026,0.3a0.641,0.641,0,0,1,.514-0.15,0.606,0.606,0,0,0,.15-0.7,0.289,0.289,0,0,1,.427-0.11,0.266,0.266,0,0,0,0,.41c0.256-.11.64,0.02,0.919-0.11,0.62-.17,1.518-0.38,1.646-1.07a5.122,5.122,0,0,0-2.822.41,0.75,0.75,0,0,1-.363.62c-0.128.02-.321,0.19-0.406,0,0.662-.11.278-0.85,0.406-1.13,0.577,0.38,1.112-.24,1.646-0.47,0.149-.09.042-0.38,0.3-0.34a1.375,1.375,0,0,0,.727-1.09,5.628,5.628,0,0,0-2.672,1.13,1.2,1.2,0,0,1-.321.87c-0.15.07-.278,0.3-0.449,0.15-0.043.2,0.107,0.47-.15,0.56a0.762,0.762,0,0,1-.063-0.77,0.936,0.936,0,0,1,.255.06,0.767,0.767,0,0,0,.407-0.72c-0.278-.45.641-0.57,0.684-0.87l-0.063.06-0.107-.1a3.107,3.107,0,0,0,1.966-2.56c-1.368.06-2.009,1.43-2.929,2.3l-0.065.26c0.193,0.1,0,.36.257,0.4l-0.15.15a0.175,0.175,0,0,0,.065.17,3.033,3.033,0,0,0-.514.6c0.171,0.25-.02.44-0.213,0.61-0.171-.21.129-0.66-0.257-0.76,0.172-.22.47,0.02,0.557-0.3a0.943,0.943,0,0,0-.087-0.98c-0.619.32-.575,1.08-0.941,1.6a1.324,1.324,0,0,1,.065-0.94,1.643,1.643,0,0,0,.107-1.32c-0.15.04-.343-0.09-0.427,0.1,0.064,0.3-.321.56-0.043,0.81-0.087.11-.021,0.3-0.214,0.32-0.171-.08-0.064-0.27-0.085-0.42a4.608,4.608,0,0,1-.065-1.11c0.043-.15-0.321-0.26-0.042-0.36,0.107,0.04.107,0.25,0.256,0.19,0.513-.91.919-1.9,1.389-2.85l0.087,0.1a18.552,18.552,0,0,1-1.433,3.11,0.888,0.888,0,0,0,.514-0.25c0.726-1.28,1.517-2.64,1.174-4.24a8.831,8.831,0,0,0-1.987,3.87l-0.47.26c-0.407.34-.044,1.07-0.3,1.38-0.385-.31-0.107-1.1-0.256-1.64l0.3,0.32,0.407-.51a7.01,7.01,0,0,0,.427-4.34h-0.107a9.13,9.13,0,0,0-1.089,4.39l-0.152.14c-0.512-.12-0.385.47-0.406,0.83,0.044,0.13.3,0.3,0.044,0.41-0.214-.02-0.107-0.26-0.257-0.36a0.165,0.165,0,0,0-.15.06l-0.107-.11c0.343-.29,0-0.74.107-1.08,0.15,0.04.32,0.38,0.47,0.11a7.452,7.452,0,0,0-.107-3.69Zm-2.523.11c0.513,0.89.833,1.87,1.347,2.76a5.018,5.018,0,0,0,.6,1.84,7.789,7.789,0,0,0-.6-3.22c-0.45-.47-0.621-1.26-1.347-1.38m-1.134,1.12-0.042,1.9a20.6,20.6,0,0,0,.471,2.3,0.776,0.776,0,0,0-.514.7c0.471,0.9-.043,2.28,1.219,2.77a3.36,3.36,0,0,1,1.09,1.24c0.428,0.34.3,1.38,1.113,1.1,0.4-.53.812,0.17,1.238,0.17a1.366,1.366,0,0,0-.362-0.93c-1.968-.83-1.283-3.24-1.8-4.9-0.235-.11-0.171.21-0.362,0.21-0.28.28,0.148,0.66-.087,0.92a0.719,0.719,0,0,0-.47-0.36,1.551,1.551,0,0,0,.15-0.92h0.106a0.785,0.785,0,0,1,.214.25l0.3-.25a13.481,13.481,0,0,0-.919-3.17c-0.042,1.06.065,2.11,0.108,3.06l-0.258.15c-0.426.34,0.15,0.79,0,1.09-0.063-.6-0.6-0.07-0.768-0.21,0.449-.15.169-0.69,0.255-0.92l0.087,0.11a0.447,0.447,0,0,0,.363-0.32,7.443,7.443,0,0,0-1.134-3.99m-1.8.22c0.213,0.85.684,1.59,0.939,2.45l-0.106.25c0.47,1.43.493,3.07,0.962,4.49,0.279,1.15,1.54.98,2.117,1.94a1.427,1.427,0,0,0,.364.62c-0.022-.77-0.728-1.26-1.026-1.9-2.054-.7-1.519-3.02-2.117-4.59-0.064-.11-0.3-0.3-0.107-0.41a2.911,2.911,0,0,1,.514,1.43,2.133,2.133,0,0,0-.087-1.9c-0.427-.81-0.577-1.89-1.453-2.38m8.786,3.51c-0.406.43,0.106,0.9-.064,1.34l0.364-.17a6.132,6.132,0,0,0,2.2-3.92c-1.325.39-1.8,1.75-2.5,2.75m-5.087-2.66a34.115,34.115,0,0,1,1.645,6.96,6.279,6.279,0,0,1,1.54,2.19c0.257-1.4-.728-2.46-1.647-3.42a22.939,22.939,0,0,0-1.538-5.73m-0.557,9.05a9.5,9.5,0,0,0,.256,2.19H957.2a6.31,6.31,0,0,0-.3-2.13Zm4.981,0.06a22.1,22.1,0,0,0-.17,2.39,0.926,0.926,0,0,0,.427.32c0.064-.24.6-0.09,0.342-0.41a1.19,1.19,0,0,1,.728-0.06c0.17,0.02.127,0.19,0.106,0.32l0.256,0.04c0.022-.62.129-1.32,0.108-2.04l-1.241-.11v0.72a0.459,0.459,0,0,0-.105.51c-0.3.34,0.17,0.62-.257,0.92l-0.15-.15a17.778,17.778,0,0,1,.256-2.19c-0.022-.13-0.129-0.34-0.3-0.26m10.092,0.09a1.191,1.191,0,0,0-1.069.51,1.509,1.509,0,0,1,.983.47c0.213,0.06.256,0.38,0.448,0.4a1,1,0,0,0,.321-0.96,0.834,0.834,0,0,0-.683-0.42M959.1,3278a9.337,9.337,0,0,0,.107,2.05,16.627,16.627,0,0,0,.107-2.01,0.538,0.538,0,0,1-.214-0.04m-11.182.19c-0.448-.04-1.089-0.34-1.388.11a1.282,1.282,0,0,1,.619,1.43c-0.9,1.53-2.928,1.51-3.635,3.23-0.919,1.26-.3,3.24.257,4.24a4.372,4.372,0,0,1-.214-1.94,4.731,4.731,0,0,1,3.122-3.13,2.051,2.051,0,0,1,1.967.47c0.7,0.41.492,1.13,0.512,1.72l0.707-.19a1.12,1.12,0,0,0,.769-0.98c0.192-.55-0.791-0.72-0.257-1.17a3.385,3.385,0,0,0,1.8-.21,1.925,1.925,0,0,0,1.091-1.28,1.177,1.177,0,0,1-1.2.32,2.985,2.985,0,0,1-1.625-1.02,1.383,1.383,0,0,0-1.5.15,1.52,1.52,0,0,1-.362-1.13,1.662,1.662,0,0,0-.664-0.62m10.82-.08-1.477-.07c0.044,0.17-.107.45,0.15,0.47a12.639,12.639,0,0,1,.107,1.58,0.714,0.714,0,0,1,.556.15,0.16,0.16,0,0,0-.043.17h0.106a0.636,0.636,0,0,0-.063-0.22l0.727-.14c0.149-.24-0.343-0.37.042-0.52Zm5.194-.07c-0.192.96-.064,1.86-0.321,2.77l0.471-.1a0.43,0.43,0,0,0-.15-0.41l0.363-2.15c-0.086-.17-0.236-0.09-0.363-0.11m1.988,0-0.342,2.45h0.149l0.407-2.3c-0.064-.04-0.064-0.21-0.214-0.15m-5.793.37c-0.791-.2-0.365.74-0.557,1.12a0.422,0.422,0,0,1,.451.05c-0.087.19-.3,0.06-0.451,0.1v0.3c0.107-.13.235,0.04,0.364,0.07l-0.107.25,0.3,0.15c-0.086-.77.811-0.23,1.175-0.47-0.085-.3.257-0.93-0.3-0.91a0.5,0.5,0,0,1,.3-0.05v-0.4c-0.321-.38-0.812.08-1.175-0.21m4.467,0a7.055,7.055,0,0,0-.3,1.78c0.107-.12.235,0.05,0.342,0.05l-0.15.17c0.279,0.1.384,0.76,0.727,0.3,0.107-.64.194-1.39,0.3-2.09Zm-12.677.51a1.459,1.459,0,0,0,.576.61,0.689,0.689,0,0,0,.664.11,0.948,0.948,0,0,0-.215-0.47c-0.278-.23-0.876-0.62-1.025-0.25m6.991,1.57,0.192,0.43v-0.17c-0.064-.09.043-0.34-0.192-0.26m-1.647.07a2.415,2.415,0,0,1,0,.96l-0.107-.09v0.15a0.1,0.1,0,0,0,.107.04c0.235-.17.876-0.02,0.706-0.51a1.045,1.045,0,0,0-.706-0.55m1.283,0a0.884,0.884,0,0,0-.15.66,1.168,1.168,0,0,0,.407.3c-0.086-.26.192-0.9-0.257-0.96m0.706,0c0.341,0.34-.192.64,0.064,1.02a0.543,0.543,0,0,0,.448-0.15c0.065-.23-0.107-0.34-0.041-0.58-0.107-.12-0.214-0.42-0.471-0.29m1.6,0.04a1.987,1.987,0,0,1,.149.87c0.108-.06,0-0.59.108-0.76,0.385,0.21.128,0.74,0.107,1.06a1.109,1.109,0,0,0,.512-0.19,2.6,2.6,0,0,0-.063-0.58c-0.064-.42-0.535-0.29-0.813-0.4m-4.062.11-0.107.1a0.471,0.471,0,0,0,.214.66,1.214,1.214,0,0,0-.107-0.76m3.8,0a0.837,0.837,0,0,0-.469.55,1.061,1.061,0,0,0,.62.43,1.382,1.382,0,0,0-.151-0.98m1.8,0a0.527,0.527,0,0,0-.319.46,0.481,0.481,0,0,0,.469.45,3.931,3.931,0,0,1,0-.87,0.441,0.441,0,0,1,.213.42V3281a0.323,0.323,0,0,0-.363-0.29m0.513,0.04,0.044,0.17a0.78,0.78,0,0,1-.107.77l-0.043-.07v0.11l0.619-.04-0.064-.47a0.689,0.689,0,0,0-.449-0.47m2.5,0.32a1.179,1.179,0,0,0,.319.81v-0.81l0.107,0.1c0.022-.36-0.235-0.34-0.426-0.1m0.619-.15a2.047,2.047,0,0,1,0,1.02l0.32-.21c-0.107-.28.021-0.73-0.32-0.81m-2.159.3c-0.15.38,0.234,0.36,0.427,0.51v-0.21c-0.02-.22-0.15-0.6-0.427-0.3m0.576-.05c0.386,0.22.043,0.66,0.664,0.56a0.462,0.462,0,0,0-.043-0.3,0.09,0.09,0,0,0-.107.04c-0.171-.1-0.257-0.42-0.514-0.3m10.262,0.77c1.026,0.13,1.176,1.28,1.476,1.98a0.634,0.634,0,0,0,.428-0.45,1.527,1.527,0,0,0-.321-1.44,1.206,1.206,0,0,0-1.583-.09m-16.482-.17,0.107,0.47c0.47,0.7,1.5.19,2.159,0.04,0.063-.25-0.257-0.23-0.363-0.45a2.267,2.267,0,0,1-1.9-.06m-1.326.21a2.982,2.982,0,0,0-1.068.92c0.533,0.32-.215,1,0.255,1.42a19.451,19.451,0,0,0,5.581-.65l0.107,0.1a0.3,0.3,0,0,1-.214.36,23.22,23.22,0,0,1-6.862,1.58l-0.215-.19a9.27,9.27,0,0,1,.984-2.3,4.468,4.468,0,0,0-1.54,2.85,20.988,20.988,0,0,0,8.509-1.79,3.136,3.136,0,0,1,.32-2.15c-0.277-.21-0.448.21-0.726,0-1.326.24-2.629,1.45-3.892,0.41-0.106-.75-0.726-0.43-1.239-0.56m8.21,0.26c-0.664.34-1.133-.43-1.754-0.11-0.257.64-.769,1.34-0.4,2.05,0.469,0.21.748-.34,1.133-0.51a0.672,0.672,0,0,1,.619.21c0,1.13-.235,2.21-0.214,3.26a4.018,4.018,0,0,0,3.592,1.95,7.1,7.1,0,0,1-2.416-1.74c-1.538-1.62.534-3.3-.148-5.22-0.15-.15-0.28.07-0.407,0.11m-9.642,1.94a1.983,1.983,0,0,0-.257,1.17l3.634-.66,0.407-.15c-1.09.04-2.1,0.15-3.272,0.1Zm8.209,0.21c-0.3.47-.876-0.09-1.133,0.36a12.907,12.907,0,0,0,.812,3c0.172,0.51.984,0.88,0.684,1.43-0.6-.06-0.855.98-1.453,0.32a11.722,11.722,0,0,1-1.732-4.15c-0.832.23-1.774,0.55-2.672,0.76a19.38,19.38,0,0,0-2.78.51,11.608,11.608,0,0,1,3.657,5.11,0.41,0.41,0,0,1-.32.22,0.972,0.972,0,0,1-.344-0.56,1.872,1.872,0,0,0-1.089,1.83c1.26,1.35,2.928-.08,4.211-0.55,1.026-1.13,1.838-2.87,3.485-3.06v-0.22c-1.711-1.08-1.24-3.28-1.176-5h-0.15Zm-1.539.7c0.021-.53-0.386-0.02-0.62-0.08-0.385.38,0.086,0.81,0,1.27a12.573,12.573,0,0,0,1.433,2.96l0.62-.32a8.423,8.423,0,0,1-1.433-3.83m-18.065,0a4.531,4.531,0,0,0,.662,3.17c-0.234.73,0.856,0.28,1.133,0.77l-0.212.32a7.14,7.14,0,0,0-2.652-.06c-0.343.25-.9,0.51-0.685,1.02l0.578-.55a3.76,3.76,0,0,1,3.954.55c0.364,1-1.346.7-1.133,1.74a10.871,10.871,0,0,1,1.39-.32c0.235-.23.792-0.29,0.556-0.76a0.621,0.621,0,0,1,.406-0.41,12.81,12.81,0,0,0,2.973.58c1.794-.62,3.7-1,5.194-2.22l0.107,0.11c-1.153,1.49-2.95,1.87-4.575,2.41-0.341.53-1.133,0.4-1.646,0.72a4.845,4.845,0,0,0-1.325,1.11,17.283,17.283,0,0,0,4.873-1.32l0.194,0.21a3.254,3.254,0,0,0-.194,1.68,1.756,1.756,0,0,1,1.133-.91,0.768,0.768,0,0,1,.3.4,1.837,1.837,0,0,0,1.39-.91c0.535-.34.749-1.18,1.432-1.49,0.3-.26-0.107-0.71-0.257-1.03a9.279,9.279,0,0,0-1.9-2.3,2.351,2.351,0,0,1-1.026,1.32,2.8,2.8,0,0,1-3.079-.55,1.75,1.75,0,0,1-.513-1.79,2.05,2.05,0,0,0-1.218.56,0.657,0.657,0,0,1-.321-0.71,1.984,1.984,0,0,0-1.476-1.02c0.064,0.19.214,0.36,0.3,0.56-0.17.68,0.833,1.74-.257,1.93a1.24,1.24,0,0,0,.769.94l-0.3.45a4.511,4.511,0,0,1-1.5-.3c-1.474-.66-3.1-2.28-3.078-3.9m20.311,2.77a1.571,1.571,0,0,0,.362.81c0.514,0.34.876,1.15,1.6,0.83v-0.15a20.091,20.091,0,0,1-1.965-1.49m2.371,2.19-0.576-.04c-2.011-.21-3.442,1.32-4.3,2.92-1.326.64-2.907,1.51-4.254,1.28a1.123,1.123,0,0,0,.812.4,3.238,3.238,0,0,0,1.9-.47,5.28,5.28,0,0,0,1.9-1.13c1.09-1.45,2.565-3.15,4.51-2.81v-0.15Zm0.407,0.07c-0.171.36,0.32,0.32,0.364,0.59a0.593,0.593,0,0,0-.364-0.59m-25.548.76a2.408,2.408,0,0,0,.878,2.64c0.362,0.66-.429,1.11-0.173,1.86,0.087,0.04.13,0.21,0.257,0.14-0.02-.78.876-0.87,1.283-1.38,0.107-.25.3-0.81-0.15-0.96-0.257-.47.407-0.53,0.621-0.76a0.806,0.806,0,0,0-.107-0.73c-0.514.24-.877,0.68-1.476,0.36a1.573,1.573,0,0,1-.876-1.63,0.921,0.921,0,0,0-.257.46m23.8-.21c-0.6.62-1.711,0.81-1.99,1.79l2.16-.51a1.588,1.588,0,0,1,.406.62,4.011,4.011,0,0,0,.769-0.41,1.357,1.357,0,0,0,.407-1.13c-0.064-.96-1.2-0.34-1.752-0.36m5.3,1.38c0.022,0.94-.535,2.05.086,2.81,0.321,0.2.726-.21,0.983,0.15a1.858,1.858,0,0,1-1.54.92c-0.342.11-.769-0.43-0.919,0.06-0.449.79,0.491,1.11,0.812,1.54-0.128.21-.428,0.06-0.555,0.25-0.963.24-1.925-.59-2.459-1.19a27.367,27.367,0,0,1,.557,4.92,7.4,7.4,0,0,1,2.095-2c0.02-.43-0.257-0.98.064-1.28a2.144,2.144,0,0,1,1.688.06,2.5,2.5,0,0,1,.983-1.23c0.684-.15.814,0.74,1.433,0.98a1.67,1.67,0,0,0,1.431-.11,1.324,1.324,0,0,0,.621-1.28c-0.086-1.13-.492-2.49-1.6-2.81-0.278.43,0,1.19-.662,1.39-0.3-.51-0.962-0.56-1.176-1.13a0.627,0.627,0,0,0-.471.3c-0.214.1-.3-0.15-0.448-0.26-0.15-.77,0-1.87-0.919-2.09m-5.388.41a9.183,9.183,0,0,1-2.522.55,8.187,8.187,0,0,1-2.608,1.75c-1.028.25-2.352,0.51-3.08-.51-2.693.59-5.194,1.32-7.8,1.89,0.749,4.39,1.54,8.77,4.361,12.31a13.389,13.389,0,0,0,6.821,4.04c0.129-.17.257-0.04,0.405,0,1.048-.25,1.776-1.38,2.631-2.04,4.51-4.66,4.253-12.48,1.795-17.99m1.582,0.11a1.873,1.873,0,0,1-.769.4,1.011,1.011,0,0,0,.15.55,1.362,1.362,0,0,0,.619-0.95m-15.436.8c-1.453.6-3.483-.04-4.425,1.54a1.806,1.806,0,0,0-.106,1.68,1.29,1.29,0,0,0,1.089.11c0.214-.26.985-0.22,0.664-0.77,1.475-.68,3.228-0.75,4.767-1.28a3.493,3.493,0,0,1-.256-1.89c-0.557.25-1.176,0.4-1.733,0.61m5.281-.55a3.034,3.034,0,0,1-1.8,1.28,0.951,0.951,0,0,1-.255-0.58l-0.407.17a0.923,0.923,0,0,0-.257.81l2.865-.72a1.263,1.263,0,0,0-.15-0.96m-9.086.36c-1.261,1.24-2.373,2.71-2.266,4.6-0.085,1.28,1.027,2.24,2.01,2.9l-0.107.1a3.945,3.945,0,0,1-2.566-3.47,8.212,8.212,0,0,1,1.24-3.28c-1.069.66-1.283,1.86-1.6,2.92-0.406.75-1.261,0.11-1.8,0.32v0.19c0.385,0.39.257,1.11,0.94,1.17a0.457,0.457,0,0,1-.214.47,1.184,1.184,0,0,0-1.069.04,5.489,5.489,0,0,0,.086,1.03,1.507,1.507,0,0,0,1.5-.34,0.558,0.558,0,0,1,.407.7c0.342,0.34.706-.32,1.133-0.45a0.7,0.7,0,0,1,.212.41c0.921,0.85,2.332.57,3.422,1.06a3.2,3.2,0,0,0-1.475-1.13c0.064-.3-0.384-0.21-0.514-0.45-0.17-.72.749-0.06,0.878-0.57l-0.364-.6a0.794,0.794,0,0,1,.706-0.17,1.529,1.529,0,0,0,.427-1.61,1.72,1.72,0,0,1-1.5.25,2.046,2.046,0,0,1-.983-1.49,7.847,7.847,0,0,1,1.539-2.56Zm19.2,2.39a2.412,2.412,0,0,0,.086-0.77c-0.492-.04-0.13.55-0.086,0.77m10.091,0.83c-0.364.85-.79,1.87-1.838,2.08a2.347,2.347,0,0,1-2.266-.81c-0.835-.04-0.621.96-1.026,1.33-0.385-.6-1.049-0.34-1.54-0.41v0.55c-0.043.28,0.471,0.43,0.171,0.69a0.483,0.483,0,0,1-.257-0.07,8.723,8.723,0,0,0-2.052,1.79,3.6,3.6,0,0,0-.171,3.07,3.2,3.2,0,0,1,.428-2.5,4.027,4.027,0,0,1,3.421-1.19c0.683,0.17-.043.88,0.619,0.98,0.3-.19.835-0.53,0.621-0.98,0.6-.66.6,0.75,1.283,0.47-0.193-1.02,1.11-1.77,1.538-2.4-1.838,1.49-4.361.83-6.37,1.93l-0.086-.08c1.753-1.28,4.361-.81,6.2-2a3.6,3.6,0,0,1,.921-0.62,2.628,2.628,0,0,0,.4-1.83m-27.343,4.38-0.557-2.19-0.619.55c0.385,0.37-.277.64-0.107,0.94Zm0.257,1.39-0.107.51a1.651,1.651,0,0,1-1.583,1.02c-0.555-.13-0.791-0.83-1.176-1.13-0.534.45,0.107,1.11,0.107,1.68-0.15.47-.6,0-0.876,0.22a1.056,1.056,0,0,0-.664,1.06l0.664-.4a0.878,0.878,0,0,1,1.026.15c0.257,0.12.792,0.23,0.919-.15,0.642-.45.535,0.49,1.07,0.57a0.97,0.97,0,0,0,.941-0.17c-0.279-.42-1.176-0.57-1.242-1.28a5.25,5.25,0,0,1,.557-0.44,1.806,1.806,0,0,0,.364-1.64m21.4,0.81,0.043,0.61a2.015,2.015,0,0,1-.769.88,2.04,2.04,0,0,1-2.138-.56c-0.171,1.05.962,1.37,1.581,1.79,0.514,0.28.941-.59,1.283,0.15a1.276,1.276,0,0,1,.3,1.22,1.715,1.715,0,0,0,.834-1.33c0.149-.55.6-0.14,0.961-0.29a1.279,1.279,0,0,0,.835-1.03,6.728,6.728,0,0,1-1.647.26c-0.578-.08-0.128-0.55-0.214-0.87a1.3,1.3,0,0,0-1.069-.83m-20.993.36c-0.064.47-.9,0.72-0.556,1.23,0.321,0.15.683,0.6,1.026,0.2a2.328,2.328,0,0,0-.47-1.43m9.749,0.32c0.084,0.53-.45,1.02-0.043,1.53,0.6,0.13.578-.89,1.283-0.51a0.73,0.73,0,0,1,.255.92c-0.278.66-.96-0.05-1.324,0.4,0.255,1.24.469,2.49,0.812,3.68a1.424,1.424,0,0,0,.619-0.57,0.721,0.721,0,0,0-.148-0.51c0.3-.41.876-0.39,1.217-0.81a1.722,1.722,0,0,1,.407,1.49,1.25,1.25,0,0,0-.557-0.11l-1.795,1.9c-0.726-.66-1.838-0.39-2.566-1.02-0.234.04-.426,0.17-0.662,0.19l-0.107-.15a4.3,4.3,0,0,1,.043-1.28l1.5,0.26c0.127,0.17-.214.27-0.107,0.51a2.9,2.9,0,0,0,1.026.36,13.96,13.96,0,0,0-.664-3.64c-0.726-.36-1.538,1.06-1.945-0.09a2.6,2.6,0,0,1,.15-0.83,1.168,1.168,0,0,1,.876.15,0.661,0.661,0,0,0,.557-0.25c0.214-.81-1.154-0.81-0.664-1.73a1.294,1.294,0,0,1,1.283-.36,1.083,1.083,0,0,1,.557.47m-1.54-.07a1.839,1.839,0,0,0,.171.92c0.748-.21.321,0.66,0.662,0.94a2.785,2.785,0,0,1-.983.4,0.6,0.6,0,0,0-.705-0.06,0.671,0.671,0,0,0,.043.57,0.437,0.437,0,0,0,.619-0.21c0.407-.02.919-0.4,1.219-0.04,0.193,1.34.685,2.55,0.769,3.94a2.419,2.419,0,0,1-1.367-.11c-0.15-.17-0.728-0.38-0.364-0.66l-0.769-.17v0.83c0.15-.02.257-0.13,0.4-0.15a11,11,0,0,0,2.566.92,19.98,19.98,0,0,0,1.838-1.9l0.216,0.11v-0.15c-0.173-.19-0.043-0.73-0.514-0.51-0.257.15-.578,0.47-0.3,0.76a3.06,3.06,0,0,1-1.026.96c-0.6-.68-0.555-1.72-0.833-2.59,0.021-.6-0.471-1.11-0.15-1.69a1.065,1.065,0,0,1,.876,0,0.373,0.373,0,0,0,.364-0.1c0.3-1.69-.749.27-1.39-0.22-0.557-.4-0.235-0.98-0.107-1.47,0.043-.63-0.9-0.63-1.24-0.32m0.983,0.37-0.107.15c-0.127-.09-0.127-0.45-0.364-0.26s0.321,0.75-.191.4a0.389,0.389,0,0,1,.043-0.59c0.255,0,.662-0.07.619,0.3m11.695,0.98-0.15-.11,0.15,0.04v0.07Zm-114.387,66.78v10.37h6.267v-1.31h-4.873v-3.13h4.123v-1.31h-4.123v-3.31h4.723v-1.31h-6.117Zm15.5,4.8,3.224-4.8h-1.68l-2.384,3.66-2.369-3.66h-1.679l3.209,4.8-3.6,5.57h1.664l2.774-4.41,2.774,4.41h1.679Zm15.189,4.92a5.317,5.317,0,0,0,2.459-4.51,5.233,5.233,0,1,0-5.247,5.31,5.481,5.481,0,0,0,1.634-.25l1.154,1.83,1.08-.66Zm-1.9-3.07-1.064.68,1.049,1.72a4.3,4.3,0,0,1-1.139.06,3.8,3.8,0,0,1-3.554-3.9,3.833,3.833,0,1,1,7.662,0,3.907,3.907,0,0,1-1.784,3.34Zm13.18,2.52a2.313,2.313,0,0,1-2.369-2.36v-6.81h-1.409v6.81a3.779,3.779,0,0,0,7.557,0v-6.81h-1.409v6.81A2.313,2.313,0,0,1,898.737,3380.89Zm9.492-9.17v10.37h1.395v-10.37h-1.395Zm7.977,7.38h-1.394a3.4,3.4,0,0,0,3.613,3.14,3.191,3.191,0,0,0,3.449-2.71c0.21-1.65-.825-2.75-2.759-3.25l-1.349-.33c-1.3-.31-1.47-0.99-1.47-1.44a1.972,1.972,0,0,1,3.884.13h1.394a3.054,3.054,0,0,0-3.329-3.04,3.125,3.125,0,0,0-3.343,2.92c0,0.91.33,2.15,2.519,2.71l1.334,0.33c0.93,0.21,1.845.74,1.755,1.85a1.876,1.876,0,0,1-2.085,1.52A2.089,2.089,0,0,1,916.206,3379.1Zm10.826-7.38v10.37h1.395v-10.37h-1.395Zm6.223,0v1.33h3.134v9.04H937.8v-9.04h3.134v-1.33h-7.677Zm12.506,0v10.37h6.267v-1.31h-4.873v-3.13h4.124v-1.31h-4.124v-3.31h4.723v-1.31h-6.117Zm15.459,13.98a6.348,6.348,0,0,0,1.125.17c2.324,0,3.178-1.55,3.178-3.37v-10.78h-1.394v10.78a1.732,1.732,0,0,1-1.784,2,5.8,5.8,0,0,1-.99-0.12Zm10.121-13.98v10.37h6.268v-1.31h-4.873v-3.13h4.123v-1.31h-4.123v-3.31h4.723v-1.31h-6.118Zm21.847,0-2.594,8.11-1.9-6.71h-1.065l-1.9,6.71-2.594-8.11h-1.5l3.493,10.37h1.215l1.814-6.47,1.829,6.47h1.215l3.493-10.37h-1.5Zm6.133,0v10.37h6.269v-1.31h-4.87v-3.13h4.12v-1.31h-4.12v-3.31h4.72v-1.31h-6.119Zm11.469,0v10.37h5.61v-1.31h-4.21v-9.06h-1.4Zm10.42,0v10.37h5.61v-1.31h-4.21v-9.06h-1.4Zm10.42,0v10.37h6.27v-1.31h-4.87v-3.13h4.12v-1.31h-4.12v-3.31h4.72v-1.31h-6.12Zm15.81,6.44a2.9,2.9,0,0,0,2.7-3.19,2.969,2.969,0,0,0-3.06-3.25h-3.97v10.37h1.4v-3.88h1.32l2.67,3.88h1.7Zm-0.41-5.13a1.952,1.952,0,0,1-.06,3.87h-2.46v-3.87h2.52Zm12.13,9.06v-4.77l3.96-5.6h-1.68l-3,4.2-2.96-4.2h-1.67l3.92,5.6v4.77h1.43Z" transform="translate(-770 -3266)"/>
</svg>
