<?xml version="1.0" encoding="UTF-8"?>
<svg width="160" height="48" id="Layer_2" xmlns="http://www.w3.org/2000/svg" viewBox="0 0 447.6 260">
<defs>
    <style>
      .cls-1 {
        fill-rule: evenodd;
        mix-blend-mode: luminosity;
        stroke:#a19385;
        fill:#a19385;
      }
    </style>
  </defs>
  <g id="Layer_1-2" data-name="Layer_1" class="cls-1">
    <path d="M286.74,152.79c7.25-14.28,17.65-26.1,29.02-37.19,3.32-3.24,6.31-6.86,9.1-10.57.8-1.08,1.02-3.57.31-4.52-.7-.95-3.16-1.43-4.42-.96-3.72,1.39-7.57,2.88-10.77,5.16-20.38,14.48-40.59,29.19-60.86,43.82-2.31,1.67-4.67,3.29-7.33,5.17,0-.98-.08-1.25.02-1.45.51-1.04,1.07-2.06,1.6-3.1,6.62-13.06,11.47-26.55,10.98-41.53-.35-10.97-6.7-18.5-17.56-19.54-5.07-.49-10.22-.09-15.46-.09,1.44-2.85,3.11-5.88,4.55-9.01,9.65-20.88,7.06-40.56-7.83-56.03-11.28-11.72-25.38-18.54-41.19-21.96-1.86-.4-3.76-.67-5.65-.99h-8.56c-1.24.28-2.47.69-3.73.84-5.74.69-10.65,3.07-14.71,7.15-1.99,1.99-3.29,4.26-2.18,7.43.99-.09,1.9-.02,2.73-.26,11.45-3.33,23.17-4.13,35.01-3.55,7.3.36,14.34,1.76,20.62,5.92,13.9,9.2,22.64,21.4,23.02,38.65.26,11.72-4.52,21.63-10.97,30.92-1.5,2.15-3.26,4.5-5.46,5.75-9.9,5.61-20.1,10.67-30,16.28-17.89,10.13-34.51,22.01-48.73,37-6.02,6.35-11.47,13.11-13.88,21.72-1.28,4.57-1.7,9.24,1.6,13.33,3.75,4.64,9.83,5.37,17.06,2.17,12.99-5.74,22.94-15.49,32.65-25.36,16.67-16.94,31.47-35.46,45.17-54.87.98-1.4,2.52-2.93,4.06-3.3,5.48-1.34,11.04-2.76,16.63-3.1,5.93-.36,9.96,3.79,10.5,9.75.22,2.43.04,4.93-.3,7.35-2.64,19.1-11.09,35.39-24.04,49.47-2.79,3.03-2.48,4.57,1.44,6.15,4.85,1.96,9.35,1.15,13.59-1.83,12.73-8.92,25.43-17.88,38.28-26.63,4.12-2.81,8.65-5.03,12.99-7.53-4.26,9.26-8.53,17.95-9.65,27.79-.76,6.67,2.74,10.2,9.33,9.31,10.47-1.43,19.11-6.96,27.56-12.78,2.87-1.99,5.47-4.37,8.2-6.57-.27-.42-.54-.83-.81-1.25-1.19.48-2.51.77-3.55,1.48-2.23,1.54-4.13,3.67-6.51,4.9-6.15,3.2-12.31,6.52-18.8,8.85-4.24,1.53-6.7-1.44-5.61-5.91.55-2.24,1.49-4.42,2.54-6.48ZM138.65,170.62c-2.6,2.08-5.53,3.92-8.59,5.16-1.73.7-4.81.7-5.89-.38-1.34-1.34-2.32-4.66-1.56-6.18,2.72-5.49,5.51-11.26,9.6-15.71,17.75-19.29,39.37-33.31,62.99-44.39.08-.03.23.07.95.31-18.25,21.54-35.51,43.59-57.5,61.19Z"/>
    <path d="M329.45,246.7c1.38-4.52,2.66-8.7,3.66-11.97,5.49-2.03,10.69-3.54,15.49-5.87,3.57-1.74,5.46-5.31,4.84-9.41-.25-1.66-1.45-3.75-2.84-4.5-1.26-.68-3.35.18-5.44.4,3.88,6.6,2.7,10.59-3.53,13.11-5.9,2.38-12.15,2.44-18.66,2.45,2.84-6.24,1.81-10.2-2.67-11.91-4.19-1.6-10.47.29-13.32,4-2.84,3.69-2.53,7.31,1,11.93.38.48.69,1.01,1.36,2.03-1.65,1.43-3.33,2.66-4.74,4.16-2.86,3.04-3.51,6.67-1.67,10.41,1.73,3.51,4.99,4.46,8.73,4.7,5.25.33,9.61-1.43,12.9-4.56,5.72,2.91,11.06,5.62,16.39,8.33h6.23c5.28-2.26,5.98-3.39,4.2-6.89-9.01,3.15-15.59-1.65-21.93-6.41ZM308.83,250.5c-3.15-3.48-2.4-7.93,2.19-12.3,3.93,3.68,7.87,7.37,12.01,11.25-5.1,4.3-10.96,4.64-14.2,1.05ZM327.09,244.37c-.42.21-.83.42-1.25.63-4.93-4.82-9.99-9.52-14.71-14.53-1.9-2.01-3.08-5.09-.43-7.23,1.39-1.12,4.31-1.53,5.97-.86,2.92,1.17,3.85,3.97,2.75,7.15-.3.85-.49,1.74-.85,3.07,3.37.42,6.42.8,10.25,1.27-.6,3.61-1.16,7.06-1.73,10.5Z"/>
    <path d="M0,252.21c1.9.1,3.81.19,6.07.31.51-10.29,1-20.18,1.5-30.26-1.64-.27-3.05-.51-4.84-.8,4.86-3.24,10.84-1.73,12.84,2.8,3.13,7.09,6.31,14.15,9.84,22.05,1.91-4.57,3.55-8.51,5.21-12.43,1.21-2.86,2.4-5.73,3.7-8.55,2.58-5.63,6.04-6.87,13.52-4.1-2.16.46-3.38.72-5.09,1.08.43,9.8.87,19.7,1.32,29.75,2.05.35,3.96.67,5.88,1-.05.36-.11.72-.16,1.08h-17.05c-.05-.37-.09-.73-.14-1.1,1.73-.28,3.46-.56,5.73-.93-.37-8.38-.74-16.87-1.16-26.38-.76,1.47-1.15,2.12-1.44,2.81-3.25,7.75-6.44,15.52-9.76,23.24-.45,1.06-1.53,1.85-2.32,2.76-.81-.87-1.93-1.61-2.39-2.63-3.74-8.37-7.36-16.79-11.94-25.15v25.51c1.34.16,3.28.39,5.21.62,0,.55,0,1.1,0,1.65-4.83,0-9.66.02-14.49.03v-2.34Z"/>
    <path d="M439.04,220.54c-11.75-4.4-23.48,1.64-26.08,13.85-1.35,6.33-1.1,12.86,4.41,17.52,8.2,6.94,24.38,2.74,28.49-7.2.66-1.62,1.16-3.3,1.74-4.95v-8.57c-1.51-4.63-3.61-8.8-8.56-10.65ZM427.42,251.77c-1.82-.38-3.74-1.29-5.13-2.51-5.85-5.13-5.58-19.03.31-24.08,6.7-5.75,16.6-2.56,18.66,6.09.48,2,.53,4.1.66,5.18.14,11.28-5.7,17.14-14.5,15.32Z"/>
    <path d="M208.56,225.34v26.75c1.9.29,3.78.58,5.67.86-.03.35-.06.7-.08,1.04h-13.17c-.04-.33-.08-.65-.11-.98,1.53-.28,3.06-.56,4.86-.88v-29.91c-1.56-.22-3.13-.43-4.95-.68,3.23-2.51,10.85-2.09,13.1.59,5.48,6.56,10.91,13.16,16.36,19.75.79.96,1.62,1.89,2.9,3.37v-23.04c-2.03-.23-3.82-.42-5.6-.62.03-.35.06-.71.09-1.06h12.9l.1,1.01c-1.52.22-3.04.44-4.91.71v33.15c-2.05-1.33-3.49-1.88-4.36-2.91-6.96-8.19-13.81-16.47-20.69-24.73-.54-.65-1.11-1.28-2.1-2.42Z"/>
    <path d="M277.63,221.16c-.76,3.41-1.53,6.89-2.31,10.36-.53-.11-1.06-.22-1.59-.33.29-2.44.58-4.88.87-7.26-8.92-3.22-16.1-.65-19.04,3.46-3.67,5.13-3.28,15.33.91,20.51,3.15,3.9,11.03,5.58,15.33,3.16.62-.35,1.18-1.35,1.23-2.09.16-2.3.06-4.62.06-7.14-2.18-.31-4.1-.58-6.02-.85.02-.32.04-.64.06-.95h14.57c.04.26.07.52.11.79-1.12.33-2.23.66-3.57,1.06,0,1.28,0,2.55,0,3.83.02,6.98-.03,7.15-7.02,8.56-2.89.58-5.93,1.1-8.83.86-8.02-.65-13.15-5.18-14.56-12.25-1.73-8.68,1.43-16.79,8.05-20.66,5.85-3.42,14.81-3.95,21.78-1.05Z"/>
    <path d="M95.17,252.63c-3.71.59-4.72-1.76-5.8-4.68-3.01-8.12-6.27-16.15-9.59-24.15-.71-1.7-.86-4.76-3.79-3.84-1.42.45-2.83,2.28-3.43,3.8-3.35,8.54-6.53,17.15-9.6,25.8-.76,2.15-1.76,3.22-4.15,3-.9-.08-1.87.58-2.8.91.09.18.19.36.28.54h14.04c.02-.37.04-.73.06-1.1-1.67-.23-3.33-.46-4.99-.69,1.63-10.4,2.25-10.98,11.58-10.95,4.14.02,6.1,2.96,7.25,10.94-1.8.25-3.59.51-5.38.77.03.35.06.71.09,1.06h18.26c-1.27-.91-1.69-1.46-2.03-1.41ZM69.51,239.18c1.72-4.67,3.28-8.91,5.21-14.15,1.86,5.24,3.37,9.5,5.02,14.15h-10.23Z"/>
    <path d="M403.17,241.67c.28,8.92-1.96,11.76-10.29,13.05-11.02,1.7-18.81-2.84-20.63-12.04-2.22-11.24,3.6-20.57,14.44-22.83,5.12-1.07,10.22-.8,15.56,1.09-.84,3.68-1.63,7.1-2.42,10.52-.51-.09-1.03-.19-1.54-.28.27-2.43.53-4.86.8-7.3-7.1-3.02-15.49-1.41-19.12,3.67-3.88,5.44-3.07,15.94,1.62,21.08,3.51,3.84,12.66,4.8,16.63,1.48,1.04-.87,1.32-2.67,1.91-4.07.68-1.61,1.31-3.25,1.96-4.87l1.07.5Z"/>
    <path d="M102.82,252.99c1.36-.25,2.72-.5,4.38-.8v-29.85c-.99-.31-2.1-.66-3.21-1,.03-.27.06-.54.09-.81h14.8c.03.34.06.68.09,1.03-1.67.2-3.33.4-5.3.63v30.28c4.13,0,8.23.12,12.32-.1.83-.04,1.81-1.19,2.35-2.06.88-1.42,1.46-3.03,2.57-5.43,1.48,7.23-.37,9.67-6.19,9.67s-12.18.01-18.28-.01c-1.18,0-2.36-.17-3.54-.26-.03-.43-.05-.85-.08-1.28Z"/>
    <path d="M150.14,222.43v30.06c4.19,0,8.3.14,12.39-.11.93-.06,1.95-1.32,2.61-2.25.96-1.34,1.64-2.89,2.44-4.34.38.15.76.31,1.14.46-.6,2.4-1.11,4.83-1.85,7.18-.16.51-1.17,1.06-1.78,1.06-8.4,0-16.8-.09-25.2-.19-.13,0-.26-.37-.83-1.24,1.73-.32,3.18-.58,4.89-.9v-29.78c-.99-.33-2-.67-3-1,.02-.27.04-.55.06-.82h14.52l.19.82c-1.81.34-3.63.68-5.58,1.05Z"/>
    <path d="M176.73,252.95c1.42-.23,2.83-.47,4.46-.74v-29.91c-1.22-.28-2.46-.57-3.71-.86.03-.3.05-.6.08-.9h14.33c.04.28.08.56.13.84-1.38.28-2.77.56-4.51.92v29.73c1.63.37,3.31.75,4.98,1.13-.06.33-.13.65-.19.98h-15.49c-.03-.4-.05-.8-.08-1.19Z"/>
  </g>
</svg>