<svg width="48" height="48" id="Layer_2" xmlns="http://www.w3.org/2000/svg" viewBox="0 0 225.02 225.03"><defs><style>.cls-1{fill:#a19385;}</style></defs><g id="Layer_1-2"><path class="cls-1" d="M193.86,190.2c-1.88,1.96-3.8,3.88-5.82,5.71-1.91-2.5-4.9-4.13-8.29-4.13-5.79,0-10.48,4.69-10.48,10.48,0,2.32,.78,4.44,2.05,6.18-2.64,1.63-5.36,3.12-8.14,4.53-1.71-3.47-5.24-5.88-9.37-5.88-5.79,0-10.48,4.69-10.48,10.48,0,1.06,.2,2.05,.49,3.01-2.6,.76-5.23,1.43-7.9,2-1.1-4.61-5.23-8.07-10.19-8.07-5.79,0-10.48,4.68-10.5,10.46-.91,.02-1.82,.07-2.73,.07-1.59,0-3.18-.06-4.76-.12-.23-5.59-4.79-10.05-10.44-10.05-4.68,0-8.6,3.09-9.94,7.32-2.49-.57-4.96-1.21-7.39-1.94,.11-.62,.19-1.25,.19-1.9,0-5.79-4.69-10.48-10.48-10.48-3.64,0-6.84,1.86-8.72,4.67-2.51-1.3-4.97-2.66-7.37-4.14,.9-1.55,1.46-3.32,1.46-5.24,0-5.79-4.69-10.48-10.48-10.48-2.99,0-5.67,1.26-7.58,3.27-2.12-1.92-4.15-3.94-6.11-6.01,1.92-1.9,3.12-4.53,3.12-7.46,0-5.79-4.69-10.48-10.48-10.48-2.03,0-3.9,.61-5.5,1.59-1.58-2.44-3.1-4.93-4.49-7.5,3.27-1.77,5.52-5.19,5.52-9.17,0-5.79-4.69-10.48-10.48-10.48-1.12,0-2.18,.22-3.19,.54-.83-2.55-1.55-5.16-2.19-7.8,4.86-.9,8.56-5.15,8.56-10.29,0-5.79-4.69-10.48-10.48-10.48-.38,0-.74,.07-1.12,.12-.11-1.99-.16-3.98-.16-6,0-1.22,.06-2.43,.09-3.64,.51,.07,1.03,.16,1.57,.16,5.79,0,10.48-4.69,10.48-10.48,0-5.45-4.16-9.87-9.47-10.38,.7-3.18,1.52-6.31,2.48-9.38,1.23,.51,2.56,.79,3.97,.79,5.79,0,10.48-4.69,10.48-10.48,0-4.31-2.61-8.01-6.33-9.62,1.35-2.52,2.81-4.97,4.34-7.38,1.82,1.55,4.16,2.52,6.74,2.52,5.79,0,10.48-4.69,10.48-10.48,0-3.53-1.75-6.63-4.42-8.53,1.94-2.08,3.95-4.08,6.05-6.01,1.82,3.12,5.15,5.23,9.03,5.23,5.79,0,10.48-4.69,10.48-10.48,0-2.85-1.15-5.43-2.99-7.31,2.65-1.66,5.37-3.19,8.16-4.63,1.41,4.13,5.28,7.11,9.88,7.11,5.79,0,10.48-4.7,10.48-10.48,0-1.58-.38-3.06-1-4.41,2.95-.87,5.94-1.64,8.99-2.28,.39,5.43,4.88,9.74,10.43,9.74s10.5-4.7,10.5-10.48c0-.53-.08-1.05-.16-1.56,.75-.02,1.5-.06,2.25-.06,2,0,3.98,.06,5.96,.16-.12,.64-.2,1.28-.2,1.94,0,5.79,4.69,10.48,10.48,10.48,5.42,0,9.82-4.12,10.37-9.39,2.7,.66,5.37,1.41,8,2.25-.53,1.25-.82,2.63-.82,4.07,0,5.79,4.69,10.48,10.48,10.48,4.3,0,7.98-2.59,9.59-6.29,2.36,1.29,4.65,2.68,6.9,4.13-1.4,1.79-2.28,4-2.28,6.45,0,5.79,4.69,10.48,10.48,10.48,3.36,0,6.32-1.61,8.24-4.07,2,1.88,3.94,3.83,5.79,5.85-2.58,1.91-4.28,4.95-4.28,8.41,0,5.79,4.69,10.48,10.48,10.48,2.43,0,4.63-.86,6.41-2.24,1.56,2.51,3.01,5.08,4.37,7.72-3.71,1.61-6.3,5.3-6.3,9.6,0,5.79,4.69,10.48,10.48,10.48,1.29,0,2.51-.26,3.66-.69,.78,2.6,1.46,5.24,2.05,7.91-5.03,.78-8.88,5.08-8.88,10.32,0,5.79,4.69,10.48,10.48,10.48,.33,0,.64-.07,.97-.1,.03,1.19,.09,2.38,.09,3.57,0,2.02-.06,4.02-.16,6.01-.42-.05-.84-.13-1.27-.13-5.79,0-10.48,4.69-10.48,10.48,0,5.19,3.76,9.46,8.71,10.31-.71,2.93-1.55,5.81-2.48,8.65-1.24-.52-2.6-.81-4.03-.81-5.79,0-10.48,4.69-10.48,10.48,0,4.23,2.51,7.85,6.12,9.5-1.29,2.33-2.67,4.6-4.12,6.83-1.69-1.16-3.73-1.85-5.94-1.85-5.79,0-10.48,4.69-10.48,10.48,0,3.08,1.34,5.81,3.45,7.73h0Zm-80.96-54.19c-30.51,0-32.09-48.37,0-47.83l72.42,.21c-10.36-29.9-38.71-51.41-72.15-51.41-42.21,0-76.42,34.2-76.42,76.41s34.21,76.42,76.42,76.42c34.32,0,63.36-22.64,73-53.8H112.91Zm17.34-13.85h3.86v-23.2h-6.15l-4.89,17.32h-.06l-4.79-17.32h-6.35v23.2h3.86v-19.35h.07l5.55,19.35h3.02l5.82-19.35h.06v19.35h0Zm17.05,0h12.53v-3.39h-8.28v-6.84h7.51v-3.39h-7.51v-6.18h7.95v-3.39h-12.2v23.2h0Zm24.93,0h4.26v-10.1h7.15v-3.39h-7.15v-6.32h7.48v-3.39h-11.74v23.2"/></g></svg>