<svg width="160" height="48" id="Layer_2" xmlns="http://www.w3.org/2000/svg" viewBox="0 0 657.75 195.01"><defs><style>.cls-1{fill:none;stroke:#a19385;stroke-linecap:round;stroke-miterlimit:10;stroke-width:6px;}.cls-2{fill:#a19385;}</style></defs><g id="Layer_1-2"><path class="cls-2" d="M491.91,1.29c95.78-11.19,155.46,52.03,161.61,122.7,.14,1.55,.02,3.13,.02,5.06h-100.03v-30.55h61.8c-5.6-32.93-52.83-66.94-92.39-66.63v97.01h-31V1.29Z"/><path class="cls-2" d="M489,76.89c-1.43-43.46-41.04-79.45-83.92-76.15-47.26,3.65-81.22,43.77-75.6,88.94,.66,5.25,2.47,6.47,7.51,6.44,37-.21,74-.11,111-.12h7.73c-2.15,4.59-3.68,7.85-4.86,10.36,7.45,7.36,14.72,14.55,22.18,21.93,11.37-14.88,16.59-32.16,15.96-51.4Zm-125.36-11.95c2.3-16.43,22.64-32.16,42.76-33.27,21.71-1.2,43.66,13.63,48.41,33.27h-91.17Z"/><path class="cls-2" d="M264.34,2.86c-39.34-9.5-79.87,11.75-93.79,50.01-9.85,27.1-5.66,52.6,11.08,75.74,7.54-7.51,14.77-14.7,22.14-22.04-1.24-2.72-2.73-5.98-4.82-10.57h8.38c37,0,73.99-.04,110.99,.07,4.04,.02,6.13-.63,6.68-5.34,4.73-40.76-21.07-78.31-60.66-87.87Zm-64.16,61.98c2.22-16.25,22.43-31.92,42.37-33.16,21.7-1.35,43.6,13.27,48.7,33.16h-91.07Z"/><path class="cls-2" d="M38.91,98.34h29.48v30.61H1.03c.39-16.61,3.65-32.36,10.54-47.04C36.08,29.7,77.48,2.62,135.28,.59c7.27-.25,14.57,.23,21.83-.13,4.78-.24,6.19,1.26,6.16,6.1-.2,33.87-.11,67.74-.11,101.61,0,6.81,0,13.62,0,20.83h-30.92V32.17c-42.23-.59-81.64,30.26-93.33,66.17Z"/><g><path class="cls-2" d="M150.72,165.59c-.38,0-.73,.03-1.04,.11-.31,.08-.56,.15-.75,.21v9.5c0,2.44,.02,4.95,.07,7.52,.05,2.57,.2,5.12,.45,7.66l-.19,.05c-.22-.44-.49-.98-.82-1.63-.33-.64-.69-1.33-1.06-2.06-.38-.74-.77-1.48-1.18-2.21-.4-.74-.8-1.44-1.17-2.09l-8.98-15.04c-.44-.79-.92-1.33-1.46-1.63-.53-.29-1.17-.44-1.92-.44-1.13,0-1.98,.28-2.54,.84v26.56c0,1.13,.69,1.69,2.07,1.69,.34,0,.68-.04,1.01-.12,.33-.07,.57-.15,.73-.21v-14.05c0-1.72-.05-3.55-.14-5.48-.1-1.92-.22-3.64-.38-5.14l.19-.05c.22,.44,.49,.99,.82,1.65,.33,.65,.69,1.34,1.08,2.06,.39,.72,.8,1.46,1.22,2.21,.43,.75,.83,1.44,1.2,2.07l8.93,15.04c.44,.78,.93,1.32,1.46,1.62,.53,.3,1.17,.45,1.93,.45,.53,0,1.01-.07,1.45-.21,.44-.14,.8-.34,1.08-.59v-26.6c0-1.13-.69-1.69-2.06-1.69Z"/><path class="cls-2" d="M195.41,191.81c-.09-.25-.19-.45-.28-.61h-14.1v-9.87h11.37c.47,0,.83-.15,1.08-.45,.26-.29,.38-.71,.38-1.24,0-.32-.05-.61-.14-.87-.09-.27-.19-.48-.28-.64h-12.41v-9.07h12.83c.47,0,.83-.15,1.08-.47,.25-.31,.38-.73,.38-1.27,0-.31-.05-.6-.14-.87-.1-.26-.19-.47-.29-.63h-15.6c-.63,0-1.13,.19-1.5,.56s-.57,.88-.57,1.51v24.44c0,.63,.19,1.13,.57,1.5,.37,.38,.87,.57,1.5,.57h14.81c.47,0,.83-.15,1.08-.45s.37-.71,.37-1.25c0-.34-.04-.64-.14-.89Z"/><path class="cls-2" d="M236.44,191.81c-.09-.25-.19-.45-.28-.61h-14.1v-9.87h11.37c.47,0,.83-.15,1.09-.45,.25-.29,.37-.71,.37-1.24,0-.32-.05-.61-.14-.87-.09-.27-.19-.48-.28-.64h-12.41v-9.07h12.83c.47,0,.83-.15,1.08-.47,.25-.31,.38-.73,.38-1.27,0-.31-.05-.6-.14-.87-.1-.26-.19-.47-.28-.63h-15.61c-.63,0-1.13,.19-1.5,.56s-.57,.88-.57,1.51v24.44c0,.63,.19,1.13,.57,1.5,.37,.38,.87,.57,1.5,.57h14.81c.47,0,.83-.15,1.08-.45s.37-.71,.37-1.25c0-.34-.04-.64-.14-.89Z"/><path class="cls-2" d="M282.08,173.46c-.75-1.8-1.8-3.31-3.15-4.51-1.35-1.21-2.97-2.12-4.86-2.73-1.9-.61-3.99-.92-6.28-.92-1.22,0-2.44,.05-3.66,.14-1.23,.1-2.32,.3-3.29,.62-.54,.15-.93,.36-1.18,.63s-.38,.65-.38,1.15v24.16c0,1.03,.66,1.75,1.98,2.16,1.13,.35,2.32,.56,3.57,.64,1.25,.07,2.38,.11,3.38,.11,2.29,0,4.36-.3,6.21-.91,1.85-.61,3.42-1.55,4.72-2.8s2.3-2.83,3.01-4.72c.7-1.9,1.06-4.13,1.06-6.7,0-2.41-.38-4.52-1.13-6.32Zm-5.57,15.25c-1.86,2-4.65,3.01-8.34,3.01-.91,0-1.8-.03-2.66-.1-.86-.06-1.67-.18-2.42-.37v-22.38c.63-.12,1.31-.21,2.05-.28,.73-.06,1.6-.09,2.6-.09,1.6,0,3.1,.21,4.49,.63,1.4,.43,2.62,1.09,3.67,2,1.05,.91,1.88,2.08,2.49,3.5,.61,1.43,.92,3.14,.92,5.15,0,3.95-.94,6.92-2.8,8.93Z"/><path class="cls-2" d="M360.24,190.52c-.09-1.52-.2-3.18-.33-4.98-.12-1.81-.26-3.68-.4-5.62-.14-1.94-.29-3.76-.44-5.45-.16-1.69-.32-3.19-.48-4.49-.15-1.3-.29-2.23-.42-2.8-.22-1-1.06-1.5-2.54-1.5-.37,0-.78,.04-1.22,.12s-.8,.19-1.08,.35c-.47,1.1-1,2.3-1.6,3.62-.59,1.31-1.22,2.72-1.88,4.23-.65,1.5-1.33,3.06-2.02,4.67-.69,1.62-1.38,3.26-2.07,4.92h-.18c-.54-1.26-1.09-2.57-1.67-3.95s-1.18-2.78-1.79-4.19c-.61-1.4-1.22-2.79-1.83-4.15-.61-1.37-1.22-2.66-1.81-3.88-.57-1.16-1.57-1.74-3.01-1.74-.59,0-1.13,.09-1.6,.28-.47,.19-.83,.39-1.08,.61-.12,1.48-.26,3.1-.4,4.89-.14,1.79-.28,3.6-.42,5.45-.14,1.85-.27,3.67-.38,5.45-.11,1.79-.21,3.42-.3,4.89-.1,1.48-.17,2.73-.21,3.76-.05,1.04-.07,1.71-.07,2.02,0,.54,.14,.94,.42,1.23,.28,.28,.77,.42,1.46,.42,.34,0,.66-.03,.96-.1,.3-.06,.54-.12,.73-.18,.12-2.26,.25-4.37,.37-6.35,.13-1.97,.25-3.92,.38-5.85,.12-1.93,.24-3.9,.35-5.92,.11-2.02,.21-4.21,.31-6.56h.19c.75,1.91,1.73,4.33,2.96,7.24,1.22,2.91,2.68,6.13,4.37,9.63,.15,.35,.43,.6,.82,.76,.39,.15,.84,.23,1.34,.23,.44,0,.84-.06,1.2-.19,.36-.12,.65-.26,.87-.42,.94-2.13,1.78-4.07,2.54-5.8,.75-1.74,1.43-3.3,2.04-4.68,.61-1.38,1.14-2.62,1.6-3.71,.45-1.1,.85-2.09,1.2-2.96h.18c.07,1.19,.15,2.63,.24,4.34,.09,1.71,.2,3.58,.31,5.62,.1,2.04,.22,4.18,.35,6.44,.12,2.25,.26,4.53,.42,6.81,.06,.63,.27,1.06,.64,1.3,.36,.23,.77,.35,1.24,.35,.75,0,1.41-.19,1.97-.57-.06-.87-.14-2.07-.23-3.59Z"/><path class="cls-2" d="M404.33,165.59c-.38,0-.73,.03-1.06,.11-.33,.08-.57,.15-.73,.21v18.29c0,1.25-.19,2.35-.56,3.29-.38,.94-.89,1.73-1.53,2.37-.64,.64-1.41,1.12-2.31,1.43-.89,.32-1.85,.47-2.89,.47s-1.99-.15-2.89-.47c-.89-.31-1.66-.79-2.3-1.43-.64-.64-1.15-1.43-1.53-2.37-.37-.94-.56-2.04-.56-3.29v-16.88c0-1.15-.68-1.73-2.02-1.73-.38,0-.73,.03-1.06,.11-.33,.08-.57,.15-.73,.21v18.62c0,1.59,.24,3.04,.73,4.32,.49,1.29,1.2,2.38,2.14,3.29,.94,.91,2.1,1.61,3.48,2.12,1.38,.5,2.96,.75,4.74,.75s3.37-.25,4.75-.75c1.38-.51,2.55-1.21,3.5-2.12,.96-.91,1.68-2,2.16-3.29,.49-1.28,.73-2.73,.73-4.32v-17.21c0-1.15-.69-1.73-2.06-1.73Z"/><path class="cls-2" d="M446.84,181.26c-1.43-1.3-3.38-2.31-5.85-3.03l-2.87-.85c-1.76-.5-3.01-1.09-3.76-1.78s-1.13-1.59-1.13-2.68c0-1.41,.52-2.51,1.57-3.29,1.05-.79,2.5-1.18,4.35-1.18,1.6,0,3.05,.24,4.35,.71,1.3,.47,2.36,1.02,3.17,1.64,.35-.19,.63-.44,.85-.75,.22-.31,.33-.69,.33-1.13,0-.47-.22-.92-.66-1.36-.44-.44-1.06-.84-1.86-1.2s-1.74-.64-2.82-.85c-1.08-.2-2.25-.3-3.5-.3-1.47,0-2.8,.18-3.97,.54s-2.19,.87-3.03,1.53c-.85,.66-1.5,1.46-1.95,2.42-.46,.95-.68,2.03-.68,3.22,0,1.97,.57,3.54,1.71,4.7,1.15,1.16,2.72,2.03,4.73,2.63l4.08,1.22c1.79,.53,3.1,1.21,3.93,2.02,.83,.82,1.24,1.88,1.24,3.2,0,1.5-.54,2.73-1.62,3.69-1.08,.95-2.67,1.43-4.77,1.43-.97,0-1.86-.09-2.68-.28-.81-.19-1.55-.43-2.21-.73-.65-.3-1.23-.63-1.73-.99-.51-.36-.93-.71-1.27-1.05-.44,.15-.83,.41-1.16,.77-.32,.36-.49,.81-.49,1.34,0,.47,.23,.95,.68,1.43,.46,.49,1.1,.94,1.93,1.34,.83,.41,1.83,.74,3.01,.99,1.17,.25,2.48,.38,3.92,.38,3.29,0,5.83-.77,7.62-2.31,1.78-1.53,2.68-3.54,2.68-6.01,0-2.32-.72-4.13-2.14-5.43Z"/><path class="cls-2" d="M473.27,165.59c-.37,0-.73,.03-1.05,.11-.33,.08-.58,.15-.73,.21v26.98c0,1.16,.69,1.74,2.07,1.74,.37,0,.72-.04,1.03-.12,.31-.07,.55-.15,.7-.21v-26.98c0-1.15-.67-1.73-2.02-1.73Z"/><path class="cls-2" d="M520.56,190.14c-.29-.33-.58-.55-.9-.68-.81,.63-1.82,1.17-3.03,1.62-1.21,.46-2.62,.68-4.25,.68-1.54,0-2.93-.24-4.19-.72-1.25-.49-2.32-1.22-3.22-2.19-.89-.97-1.59-2.18-2.09-3.62s-.75-3.13-.75-5.08,.26-3.6,.78-5.07c.51-1.47,1.23-2.7,2.14-3.67,.9-.97,1.97-1.7,3.19-2.21,1.22-.5,2.55-.75,4-.75,1.75,0,3.18,.25,4.27,.75,1.1,.51,2.06,1.04,2.87,1.6,.34-.15,.65-.39,.92-.7,.26-.32,.4-.69,.4-1.13s-.21-.89-.64-1.34c-.42-.45-1.02-.86-1.78-1.22-.77-.36-1.7-.65-2.78-.87-1.08-.22-2.26-.33-3.55-.33-1.84,0-3.61,.31-5.28,.94-1.68,.63-3.14,1.57-4.4,2.82-1.25,1.25-2.25,2.81-2.98,4.68-.74,1.86-1.11,4.03-1.11,6.5s.36,4.64,1.08,6.49c.73,1.85,1.7,3.39,2.94,4.63,1.24,1.24,2.7,2.17,4.4,2.8,1.69,.62,3.52,.94,5.5,.94s3.54-.2,4.79-.59,2.24-.84,2.96-1.34c.75-.53,1.13-1.13,1.13-1.79,0-.43-.14-.82-.42-1.15Z"/></g><line class="cls-1" x1="3" y1="144.57" x2="654.75" y2="144.57"/></g></svg>