<svg width="58" height="48" id="Layer_2" xmlns="http://www.w3.org/2000/svg" viewBox="0 0 178.67 148.58"><defs><style>.cls-1{fill:#a19385;fill-rule:evenodd;}</style></defs><g id="Layer_1-2"><g><polygon class="cls-1" points="2.16 128.62 11.24 138.99 11.24 128.62 13.66 128.62 13.66 144.09 11.41 144.09 2.42 133.63 2.42 144.09 0 144.09 0 128.62 2.16 128.62 2.16 128.62"/><path class="cls-1" d="M20.05,138.21c0-1.81,.35-4.32,3.03-4.32,2.07,0,2.77,1.64,2.77,4.24,0,2.42-.52,4.49-2.85,4.49-2.59,0-2.94-2.33-2.94-4.32v-.09h0Zm-3.54,.17c0,3.28,2.25,5.96,6.31,5.96s6.66-2.42,6.66-6.22c0-3.46-2.25-5.88-6.4-5.88s-6.57,2.68-6.57,6.14h0Z"/><path class="cls-1" d="M35.18,132.51l.17,2.94c.6-1.64,1.9-3.11,3.72-3.11,.26,0,.69,0,1.38,.17l-.43,2.59c-.35-.09-.78-.17-1.3-.17-.95,0-2.16,.43-2.68,1.9-.43,.86-.43,2.07-.43,3.2v4.06h-3.37v-11.58h2.94Z"/><path class="cls-1" d="M44.95,135.96c0-1.47,1.21-2.16,2.51-2.16,1.47,0,2.42,.78,2.42,2.16,0,1.64-1.38,2.16-2.51,2.16-1.38,0-2.42-.69-2.42-2.07v-.09h0Zm9.08-1.82v-1.64h-4.32c-.78-.09-1.47-.26-2.59-.26-3.46,0-5.19,1.73-5.19,3.8s1.82,2.94,2.94,3.28c-1.04,.95-1.82,1.73-1.82,2.42,0,.95,1.21,1.3,1.99,1.47-1.47,.43-3.37,1.12-3.37,2.59,0,1.64,2.94,2.77,6.05,2.77,3.89,0,6.66-1.73,6.66-3.89,0-3.54-5.19-3.37-7.09-3.46-1.04-.09-1.82-.17-1.82-.69,0-.17,.17-.43,.69-.95,.35,0,.69,.09,1.38,.09,2.51,0,5.36-.95,5.36-3.46,0-1.21-.61-1.73-1.04-2.07h2.16Zm-9.42,11.24c0-1.04,1.04-1.73,3.28-1.73,1.73,0,3.54,.43,3.54,1.64s-1.82,1.64-3.46,1.64-3.37-.43-3.37-1.56h0Z"/><path class="cls-1" d="M59.3,136.57c.26-1.81,1.38-2.77,2.77-2.77,1.56,0,2.51,1.21,2.51,2.77h-5.27Zm8.38,1.56c0-.43,.35-5.88-5.71-5.88-3.46,0-6.4,2.33-6.4,5.96,0,3.28,2.33,6.14,6.66,6.14,2.16,0,3.63-.69,4.84-1.3l-.78-1.56c-.95,.43-2.16,.95-3.46,.95-1.99,0-3.72-1.3-3.63-4.32h8.47Z"/><path class="cls-1" d="M77.45,134.5c-.86-.26-1.82-.52-2.94-.52-.43,0-1.82,.09-1.82,1.04,0,.52,.52,.86,1.64,1.47l1.47,.78c2.33,1.3,3.03,2.25,3.03,3.54,0,1.99-1.99,3.54-4.93,3.54-.78,0-2.59-.17-4.24-.95l.69-1.56c.95,.35,2.07,.78,3.37,.78s2.07-.52,2.07-1.3c0-.69-.78-1.12-2.07-1.82l-.95-.52c-1.47-.86-3.11-1.82-3.11-3.46,0-1.9,2.07-3.28,4.84-3.28,1.04,0,2.42,.26,3.54,.61l-.6,1.64h0Z"/><path class="cls-1" d="M93.44,131.04c-.86-.35-1.99-.69-3.37-.69-3.2,0-5.53,2.16-5.53,6.14,0,3.72,1.99,5.7,4.93,5.88,.86,.09,1.64-.09,1.99-.17v-4.15h-2.16v-1.9h5.53v7c-1.47,.6-3.2,1.21-5.53,1.21-5.19,0-8.56-3.28-8.56-7.95s3.28-8.04,8.73-8.04c1.64,0,3.28,.26,4.67,.78l-.69,1.9h0Z"/><path class="cls-1" d="M100.53,132.51l.17,2.94c.69-1.64,1.99-3.11,3.72-3.11,.26,0,.69,0,1.38,.17l-.43,2.59c-.26-.09-.78-.17-1.3-.17-.95,0-2.16,.43-2.68,1.9-.35,.86-.43,2.07-.43,3.2v4.06h-3.28v-11.58h2.85Z"/><path class="cls-1" d="M111.33,132.51v6.91c0,.95,0,1.56,.52,2.07,.52,.61,1.3,.69,1.73,.69,1.21,0,2.07-.6,2.51-1.56,.35-.78,.35-1.9,.35-2.59v-5.53h3.37v11.58h-2.94l-.17-1.99c-1.04,1.56-2.59,2.25-4.32,2.25-1.99,0-3.28-.95-3.89-1.99-.43-.78-.43-1.73-.43-2.68v-7.17h3.28Z"/><path class="cls-1" d="M126.37,138.3c0-2.68,1.21-3.98,2.85-3.98,2.16,0,2.68,1.99,2.68,3.8,0,1.64-.35,4.06-2.68,4.06-2.16,0-2.85-1.9-2.85-3.89h0Zm-3.37-5.79v15.82h3.37v-5.96c1.12,1.64,2.77,1.99,3.8,1.99,3.03,0,5.27-2.33,5.27-6.4s-2.51-5.7-5.1-5.7c-2.16,0-3.54,1.21-4.24,2.25l-.09-1.99h-3.03Z"/><path class="cls-1" d="M141.24,138.3c0-2.68,1.21-3.98,2.85-3.98,2.16,0,2.68,1.99,2.68,3.8,0,1.64-.35,4.06-2.68,4.06-2.16,0-2.85-1.9-2.85-3.89h0Zm-3.37-5.79v15.82h3.37v-5.96c1.12,1.64,2.77,1.99,3.8,1.99,3.03,0,5.27-2.33,5.27-6.4s-2.51-5.7-5.1-5.7c-2.16,0-3.54,1.21-4.24,2.25l-.09-1.99h-3.03Z"/><path class="cls-1" d="M156.02,136.57c.17-1.81,1.38-2.77,2.77-2.77,1.47,0,2.51,1.21,2.51,2.77h-5.27Zm8.38,1.56c0-.43,.35-5.88-5.7-5.88-3.46,0-6.4,2.33-6.4,5.96,0,3.28,2.33,6.14,6.66,6.14,2.16,0,3.63-.69,4.84-1.3l-.78-1.56c-.95,.43-2.16,.95-3.46,.95-1.99,0-3.8-1.3-3.63-4.32h8.47Z"/><path class="cls-1" d="M169.93,132.51l.17,1.99c.95-1.73,2.85-2.25,4.32-2.25,1.73,0,3.2,.69,3.89,1.9,.43,.69,.35,1.56,.35,2.68v7.26h-3.2v-7c0-.95,0-2.77-2.33-2.77-2.94,0-2.77,3.28-2.77,4.32v5.45h-3.37v-11.58h2.94Z"/><path class="cls-1" d="M144,55.32c6.66-8.3,11.93-17.55,14.95-27.57-4.84,2.94-12.1,5.88-18.06,5.88-7.61-.09-12.36-3.54-20.05-13.57l-3.11-3.98C106.14,.95,96.98,0,90.67,0c-10.98-.09-19.97,6.14-25.5,15.73,1.21,.61,2.42,1.3,3.54,2.07,4.67-6.05,10.2-10.11,16.6-10.11,6.66,.09,12.1,3.2,18.5,11.58l5.71,7.35c8.21,10.72,15.3,14.18,22.82,14.18,5.53,0,11.24-1.73,14.18-3.11-3.03,6.14-7.78,12.71-12.71,18.41,5.62,6.22,12.45,12.01,17.72,15.04,0,0-7.43,6.83-19.36,6.74-13.14,0-22.04-3.98-35.61-24.46l-4.49-6.74c-11.76-17.89-23.68-24.38-37.6-24.38-22.65-.09-37.43,17.89-37.43,17.89,6.31,3.8,12.36,8.21,17.63,13.31-6.66,8.38-11.93,17.63-15.04,27.57,4.84-2.85,12.19-5.79,18.07-5.79,7.69,0,12.45,3.54,20.14,13.48l3.03,4.06c11.58,15.04,20.74,16.08,27.05,16.08,11.06,0,19.97-6.22,25.5-15.73-1.12-.69-2.33-1.38-3.54-2.07-4.58,6.05-10.11,10.03-16.6,10.03s-12.1-3.11-18.5-11.5l-5.62-7.43c-8.21-10.63-15.39-14.09-22.91-14.09-5.45,0-11.15,1.73-14.09,3.11,3.03-6.22,7.69-12.79,12.71-18.5-5.62-6.14-12.45-11.93-17.72-15.04,0,0,7.43-6.74,19.28-6.74,13.22,.09,22.04,4.06,35.61,24.55l4.49,6.74c11.84,17.81,23.68,24.29,37.69,24.38,22.56,0,37.34-17.89,37.34-17.89-6.22-3.89-12.27-8.3-17.55-13.4h0Z"/></g></g></svg>