<?xml version="1.0" encoding="UTF-8"?><svg id="Layer_2" xmlns="http://www.w3.org/2000/svg" viewBox="0 0 263.44 51.83"><defs><style>.cls-1{fill:#a19385;}</style></defs><g id="Layer_1-2"><g><g><path class="cls-1" d="M26.64,24.75l-3.95-3.99h0s2.69-2.69,2.69-2.69c.09-.09,.17-.17,.26-.25l.05-.05h0s.05-.05,.09-.08c.01-.01,.03-.03,.05-.04,.04-.04,.08-.07,.12-.1h.01c.06-.06,.11-.11,.17-.15,.26-.21,.52-.41,.79-.59,.06-.05,.13-.09,.2-.13,.06-.04,.13-.08,.2-.13,.07-.04,.13-.08,.2-.12,.07-.04,.13-.08,.2-.12,.07-.04,.14-.08,.21-.11,.07-.04,.14-.07,.21-.11,.19-.09,.38-.18,.57-.26,0,0,0,0,0,0,0,0,.01,0,.02,0,2.06-.89,4.39-1.16,6.57-.73h0s0,0,0,0c1.5,.3,2.93,.92,4.17,1.9,.03,.02,.06,.05,.09,.07,.25,.2,.49,.42,.72,.65l.15,.15c.23,.23,.44,.46,.64,.71,3.26,4,2.9,10.3-1.07,14.27l-18.99,18.99-4-4,18.99-18.99c.25-.25,.48-.52,.67-.81,.03-.05,.07-.1,.1-.16,.03-.05,.06-.1,.09-.16,0,0,0,0,0-.01,.03-.05,.06-.1,.08-.15,.03-.06,.06-.11,.08-.16,.07-.15,.14-.3,.2-.46,.02-.05,.04-.11,.06-.17,.02-.06,.04-.11,.05-.17,.03-.1,.06-.2,.08-.3,0-.01,0-.02,0-.03,0-.02,0-.04,.01-.06,.02-.08,.03-.16,.04-.24,.02-.15,.04-.29,.05-.44,0-.02,0-.04,0-.06,0-.07,0-.14,0-.2,0-.24-.02-.48-.05-.72-.02-.12-.04-.24-.07-.36-.03-.11-.06-.23-.09-.34-.04-.12-.08-.24-.13-.35-.09-.22-.2-.44-.33-.65-.03-.05-.06-.1-.1-.15-.06-.08-.11-.17-.18-.25-.06-.08-.13-.16-.2-.24-.06-.08-.14-.15-.21-.22h0c-.05-.06-.11-.11-.17-.16h0s-.09-.09-.14-.13c-.04-.03-.08-.06-.12-.1,0,0,0,0,0,0-.04-.03-.09-.07-.13-.1-.05-.03-.09-.07-.14-.1-.06-.04-.13-.08-.2-.12-.04-.03-.09-.05-.13-.08-.02,0-.04-.02-.05-.03-.01,0-.03-.01-.04-.02-.15-.08-.31-.15-.47-.21,0,0,0,0,0,0-.05-.02-.1-.04-.15-.05,0,0-.01,0-.02,0-.12-.04-.24-.08-.36-.11-.08-.02-.16-.04-.24-.06-.08-.02-.16-.03-.24-.04-.08-.01-.15-.02-.23-.03,0,0,0,0-.02,0-1.13-.11-2.31,.19-3.31,.88-.06,.04-.12,.08-.18,.13-.06,.04-.11,.09-.17,.14-.13,.1-.25,.22-.37,.34l-2.63,2.63h0Z"/><path class="cls-1" d="M10.06,36.75c-2.5,0-5-.9-7.01-2.88l-.11-.11c-4.04-4.11-3.87-10.75,.2-14.83L22.07,0l3.96,3.96L7.3,22.7c-.31,.31-.58,.65-.79,1.02-.04,.06-.08,.13-.11,.19-.21,.38-.36,.77-.46,1.18-.03,.1-.05,.2-.06,.3-.1,.5-.11,1-.05,1.5,.04,.33,.12,.66,.23,.97,.05,.15,.1,.29,.17,.42,.22,.48,.53,.94,.93,1.33,.03,.03,.06,.05,.08,.08,.04,.05,.09,.09,.14,.13,0,0,.01,.01,.02,.02,.06,.05,.12,.1,.18,.15,.02,.02,.05,.04,.07,.05,.07,.05,.14,.1,.21,.15,.17,.11,.34,.21,.52,.3,.18,.09,.36,.17,.55,.23,.1,.04,.19,.06,.29,.09h.04c.06,.03,.12,.04,.18,.06,.06,.01,.12,.03,.17,.04h.05s.08,.02,.12,.03c.08,.01,.16,.02,.23,.03,.05,0,.1,0,.15,.01,.02,0,.04,0,.05,0,.03,0,.05,0,.09,0,.05,0,.1,0,.16,0,.08,0,.15,0,.23,0,0,0,.02,0,.02,0,.07,0,.15-.01,.22-.02,.08,0,.16-.02,.24-.03,.08-.01,.15-.02,.23-.04,.01,0,.02,0,.03,0,.07-.01,.14-.03,.21-.05,0,0,0,0,0,0,.08-.02,.15-.04,.23-.06,.08-.02,.15-.05,.23-.08,.15-.06,.3-.12,.45-.19,.07-.04,.15-.07,.22-.11,.15-.08,.29-.16,.42-.25,.06-.04,.13-.09,.2-.14,.21-.15,.4-.32,.58-.51h0l2.01-2.01,3.95,3.99-1.35,1.35s-.04,.04-.06,.05l-.54,.55c-1.17,1.16-2.56,2.05-4.06,2.61-.01,0-.02,0-.03,.01-1.22,.46-2.52,.7-3.82,.7h0Z"/><path class="cls-1" d="M34.48,27.33l-11.11,11.11h-.01s-7.87,7.88-7.87,7.88l-7.57-7.57c.92,.17,1.87,.2,2.84,.19,5.1-.04,9.66-4.94,9.66-4.94l2.51-2.51-1.51-1.53-3.94-3.99-1.51-1.53-3.54,3.54c-.54,.54-1.23,.83-1.9,.85h-.13c-.13,0-.25-.01-.38-.03-.08-.02-.16-.04-.25-.06-.4-.11-.78-.33-1.11-.65-1.03-1.03-.96-2.77,.14-3.88L27.55,5.48l7.4,7.4c-3.52-.47-7.28,.5-10.14,2.83-.1,.08-.19,.16-.28,.24-.04,.03-.08,.07-.12,.1-.07,.06-.15,.13-.21,.19-.11,.1-.22,.21-.33,.32l-4.19,4.19,1.51,1.52,3.94,3.99,1.51,1.53,4.16-4.16c1.11-1.11,2.85-1.17,3.87-.14,.38,.38,.62,.85,.7,1.37,.13,.86-.2,1.79-.88,2.47h0Z"/></g><g><path class="cls-1" d="M63.36,20.3c-.55-2.08-1.51-3.71-4.05-3.71-2.11,0-3.1,1.56-3.1,3.3,0,2.14,1.22,3.04,3.5,4.4,2.26,1.33,4.75,2.81,4.75,5.91s-2.61,5.45-6.05,5.45c-1.59,0-3.19-.46-4.17-.81-.17-.75-.61-3.45-.67-4l.41-.09c.52,1.91,1.91,4.29,4.84,4.29,2.37,0,3.39-1.85,3.39-3.79,0-2.14-1.42-3.39-3.48-4.63-2.23-1.36-4.58-2.78-4.58-5.71s2.26-4.92,5.65-4.92c1.77,0,2.9,.35,3.53,.43,.12,1.04,.26,2.43,.46,3.79l-.43,.09Z"/><path class="cls-1" d="M70.84,33.5c-2.06-1.74-3.33-4.4-3.33-7.44,0-5.13,3.48-10.08,9.47-10.08,1.77,0,3.45,.52,4.89,1.42l1.19-1.74,.55,.38-1.19,1.77c2.23,1.68,3.74,4.4,3.74,7.76,0,6.05-4.23,10.08-9.44,10.08-2,0-3.85-.64-5.33-1.71l-1.53,2.23-.55-.43,1.53-2.23Zm1.07-1.56l9.12-13.32c-1.22-1.33-2.81-2.03-4.63-2.03-3.27,0-6.2,2.84-6.2,8.66,0,2.72,.61,5.04,1.71,6.69Zm9.59-12.8l-9.18,13.41c1.25,1.56,2.98,2.46,5.01,2.46,3.33,0,6.11-2.9,6.11-8.57,0-3.19-.72-5.62-1.94-7.3Z"/><path class="cls-1" d="M98.84,20.3c-.55-2.08-1.51-3.71-4.05-3.71-2.11,0-3.1,1.56-3.1,3.3,0,2.14,1.22,3.04,3.5,4.4,2.26,1.33,4.75,2.81,4.75,5.91s-2.61,5.45-6.05,5.45c-1.59,0-3.19-.46-4.17-.81-.17-.75-.61-3.45-.67-4l.41-.09c.52,1.91,1.91,4.29,4.84,4.29,2.37,0,3.39-1.85,3.39-3.79,0-2.14-1.42-3.39-3.48-4.63-2.23-1.36-4.58-2.78-4.58-5.71s2.26-4.92,5.65-4.92c1.77,0,2.9,.35,3.53,.43,.12,1.04,.26,2.43,.46,3.79l-.43,.09Z"/><path class="cls-1" d="M117.79,20.5c-.23-.84-.41-1.33-.69-1.88-.49-1.04-.9-1.45-2.61-1.45h-3.39v14.8c0,2.23,.2,2.52,2.72,2.87v.38h-7.67v-.38c2.46-.41,2.61-.67,2.61-2.87v-14.8h-3.48c-1.56,0-1.82,.46-2.23,1.16-.41,.72-.61,1.36-.87,2.2h-.46c.2-1.56,.35-3.21,.43-4.66h.29c.38,.46,.61,.52,1.62,.52h12.13c.81,0,1.1-.09,1.42-.52h.35c0,1.22,.12,2.98,.26,4.55l-.43,.09Z"/><path class="cls-1" d="M137.45,35.36h-1.16c-2.64-.14-3.27-.52-4.4-2.08-.96-1.36-2.26-3.56-3.27-5.3-.72-1.27-1.07-1.48-2.43-1.48h-1.1v5.45c0,2.26,.23,2.55,2.52,2.9v.38h-7.33v-.38c2.26-.35,2.49-.58,2.49-2.9v-12.31c0-2.29-.2-2.52-2.49-2.87v-.38h7.1c2.03,0,3.59,.32,4.66,1.07,1.04,.72,1.74,2,1.74,3.53,0,2.49-1.71,4.08-3.68,4.95,.52,.93,1.88,3.21,2.75,4.52,.98,1.56,1.68,2.58,2.35,3.3,.72,.78,1.19,1.01,2.35,1.25l-.09,.35Zm-10.8-9.44c1.45,0,2.29-.09,3.07-.67,1.1-.81,1.48-1.97,1.48-3.68,0-3.21-1.74-4.58-4.05-4.58-.98,0-1.48,.09-1.71,.23-.23,.17-.35,.43-.35,1.27v7.41h1.56Z"/><path class="cls-1" d="M151.93,31.01c-.15,.98-.67,3.36-.9,4.2h-13.32v-.38c2.55-.35,2.72-.52,2.72-2.95v-12.02c0-2.52-.09-2.72-2.32-3.1v-.38h8.31c2.55,0,3.45,0,3.97-.06,0,1.04,.12,3.07,.2,4l-.41,.06c-.2-.75-.61-1.8-.96-2.35-.55-.78-.96-.84-2.66-.84h-2.98c-.75,0-.81,.09-.81,.84v6.78h3.45c2.03,0,2.26-.43,2.61-2.35h.41v5.5h-.41c-.46-1.97-.67-2.35-2.55-2.35h-3.5v6.75c0,1.94,.72,2.06,2.38,2.06h2.64c1.45,0,1.85-.26,2.58-1.3,.46-.61,.84-1.36,1.19-2.2l.38,.09Z"/><path class="cls-1" d="M173.1,16.76c-2.03,.43-2.26,.78-2.32,2.75-.03,.78-.09,1.33-.09,3.94v12.11h-.52l-13-15.96v8.14c0,2.78,.06,3.65,.09,4.6,.09,1.71,.49,2.11,2.84,2.49v.38h-6.57v-.38c2.14-.46,2.55-.75,2.64-2.52,.03-.81,.09-1.88,.09-4.58v-8.4c0-.52-.12-.9-.41-1.27-.72-.87-1.51-1.1-2.64-1.3v-.38h4.34l12.25,14.77v-7.7c0-2.61-.06-3.07-.09-4.03-.12-1.88-.55-2.37-2.98-2.66v-.38h6.37v.38Z"/><path class="cls-1" d="M189.27,31.01c-.15,.98-.67,3.36-.9,4.2h-13.32v-.38c2.55-.35,2.72-.52,2.72-2.95v-12.02c0-2.52-.09-2.72-2.32-3.1v-.38h8.31c2.55,0,3.45,0,3.97-.06,0,1.04,.12,3.07,.2,4l-.41,.06c-.2-.75-.61-1.8-.96-2.35-.55-.78-.96-.84-2.66-.84h-2.98c-.75,0-.81,.09-.81,.84v6.78h3.45c2.03,0,2.26-.43,2.61-2.35h.41v5.5h-.41c-.46-1.97-.67-2.35-2.55-2.35h-3.5v6.75c0,1.94,.72,2.06,2.38,2.06h2.64c1.45,0,1.85-.26,2.58-1.3,.46-.61,.84-1.36,1.19-2.2l.38,.09Z"/><path class="cls-1" d="M216.14,16.76c-2.32,.29-2.52,.61-2.52,3.16v11.82c0,2.64,.26,2.78,2.52,3.1v.38h-7.33v-.38c2.32-.32,2.49-.67,2.49-3.1v-6.31h-9.82v6.31c0,2.49,.26,2.78,2.49,3.1v.38h-7.33v-.38c2.29-.29,2.49-.61,2.49-3.1v-11.82c0-2.72-.17-2.81-2.49-3.16v-.38h7.33v.38c-2.29,.32-2.49,.55-2.49,3.16v4.66h9.82v-4.66c0-2.58-.14-2.9-2.49-3.16v-.38h7.33v.38Z"/><path class="cls-1" d="M228.74,35.21v-.38c1.68-.32,2.03-.55,1.65-1.68-.38-1.19-1.04-3.19-1.88-5.47h-5.71c-.61,1.77-1.16,3.21-1.56,4.55-.67,1.97-.26,2.17,2,2.61v.38h-6.08v-.38c1.68-.29,2.14-.52,3.19-3.21l6.02-15.55,.49-.06c1.8,5.24,3.68,10.48,5.62,15.81,.9,2.58,1.25,2.61,3.07,3.01v.38h-6.81Zm-3.01-15.61c-.93,2.46-1.77,4.87-2.64,7.24h5.15l-2.52-7.24Z"/><path class="cls-1" d="M250.23,30.78c-.17,.9-.78,3.5-1.07,4.43h-13v-.38c2.58-.35,2.72-.58,2.72-2.98v-12.19c0-2.4-.23-2.61-2.49-2.9v-.38h7.18v.38c-2.14,.38-2.35,.49-2.35,2.9v12.66c0,2.03,.38,2.11,2.23,2.11l1.88-.03c1.68,0,2.35-.06,3.1-1.07,.49-.69,.96-1.56,1.39-2.66l.41,.12Z"/><path class="cls-1" d="M262.34,20.3c-.55-2.08-1.51-3.71-4.05-3.71-2.11,0-3.1,1.56-3.1,3.3,0,2.14,1.22,3.04,3.5,4.4,2.26,1.33,4.75,2.81,4.75,5.91s-2.61,5.45-6.05,5.45c-1.59,0-3.19-.46-4.17-.81-.17-.75-.61-3.45-.67-4l.41-.09c.52,1.91,1.91,4.29,4.84,4.29,2.37,0,3.39-1.85,3.39-3.79,0-2.14-1.42-3.39-3.48-4.63-2.23-1.36-4.58-2.78-4.58-5.71s2.26-4.92,5.65-4.92c1.77,0,2.9,.35,3.53,.43,.12,1.04,.26,2.43,.46,3.79l-.43,.09Z"/></g></g></g></svg>