<?xml version="1.0" encoding="UTF-8"?>
<svg width="160" height="48"  id="Layer_2" xmlns="http://www.w3.org/2000/svg" viewBox="0 0 1199.01 356.78">
<defs>
    <style>
      .cls-1 {
        fill-rule: evenodd;
        mix-blend-mode: luminosity;
        stroke:#a19385;
        fill:#a19385;
      }
    </style>
  </defs>
  <g id="Layer_1-2" data-name="Layer_1" class="cls-1">
    <path d="M212.47,17.56c4.89-4.42,13.12-5.53,20.03-7.36,5.73-1.51,11.78-1.82,17.69-2.66-.66-2.51-1.32-5.03-1.98-7.54-10.95,3.44-25.62,3.6-32.17,10.93-23.29,26.04-44.49,20.73-71.91,5.72-32.12-17.6-74.33-.21-89.65,31.73-15.58,32.49-2.93,66.56,32.36,84.81,15.02,7.76,30.89,13.92,46.42,20.7,9.29,4.05,14.19,9.46,9.26,20.28-8.91,19.56-16.98,39.49-25.82,59.08-5.45,12.07-16.8,15.5-25.8,7.8-10.41-8.91-19.94-20.92-24.9-33.51-6.96-17.64-8.94-37.16-14-55.62-1.18-4.29-6.17-7.56-9.41-11.31-1.69,1.07-3.39,2.13-5.08,3.2,15.73,21.99,17.6,46.43,9.65,70.26-7.57,22.7-19.27,44.03-27.13,61.48,8.46-4.32,20.72-13.58,34.42-16.74,14.3-3.3,29.97-.74,44.86-.74,1.71,31.06-34.76,81.03-62.62,86.66-5.29,1.07-11.65-2.41-17.36-4.26-5.35-1.75-10.49-4.13-15.73-6.23-1.2,1.67-2.4,3.33-3.6,5,4.89,5.85,9.77,11.7,14.66,17.54h21.11c29.87-11.69,46.15-36.48,60.23-62.89,11.25-21.1,25.07-35.97,52.05-32.68,8.35,1.02,17.39-1.96,25.9-4.02,24.67-5.98,37.11-20.91,40.99-46.22,5.37-35.13-6.73-61.33-37.94-79.14-4.75-2.71-11.73-9.55-10.89-12.72,9.61-36.4,16.43-74.49,46.36-101.55ZM87.19,90.64c-13.51-7.7-26.96-17.95-21.48-37.32,4.76-16.83,25.5-32.21,43.38-32.77,30.84-.96,56.85,29.85,53.15,64.29-1.21,11.24-5.5,22.15-9.54,37.64-24.09-11.54-45.51-20.46-65.51-31.84ZM196.47,227.49c-11.46,22.09-49.71,32.02-71.49,18.38,10.43-26.08,20.88-52.19,31.33-78.31,38.37,16.87,51.9,37.29,40.16,59.93Z"/>
    <path d="M609.75,266.79c-7.86-9.84-9.79-25.95-10.59-39.41-1.58-26.5-.47-53.15-.47-78.19-12.95-7.86-22.46-14.54-32.81-19.5-4.57-2.2-11.66-2.83-16.19-.9-39.43,16.88-58.88,69.72-40.39,108.05,9.37,19.44,24.85,24.88,44.74,15.6,6.6-3.08,13.06-6.47,17.16-8.51,12.91,20.27,24.26,39,36.58,57.09,8.56,12.58,2.81,22.36-7.08,27.81-8.46,4.67-20.31,7.04-29.79,5.42-25.26-4.32-49.96-11.82-75.08-17.1-18.14-3.82-35.25-.96-47.77,9.07,19.64,3.74,39.79,8.04,60.09,11.33,20.03,3.24,40.42,8.63,60.31,7.47,38.51-2.25,72.31-39.38,41.29-78.23ZM573.1,223.24c-1.84,6.74-8.38,14.98-14.65,17.01-6.09,1.97-16.42-.97-21.55-5.49-21.96-19.32-21.7-67.08-.09-86.88,3.01-2.76,10.97-4.61,13.43-2.73,8.67,6.61,18.07,13.9,23.03,23.13,3.63,6.76.71,16.97.71,25.65h-.26c0,9.82,1.87,20.15-.62,29.31Z"/>
    <path d="M331.94,164.08c-2.33-12.12-2.81-24.58-4.09-36.59-.56.36-5.09,3.23-9.61,6.09-34.63-23.82-60.38-18.03-78.06,17.7-11.8,23.84-13.91,48.51-7.23,74.33,2.2,8.51,1.58,17.73,2.1,24.63,6.82,2.01,15.15,3.36,22.45,6.84,20.37,9.72,46.55,3.7,61.25-15.2,18.33-23.56,18.51-50.09,13.19-77.8ZM250.4,213.05c-1.36-17.47-4.98-35.13-3.49-52.36,1.7-19.75,17.48-29.15,34.69-24.52,20.31,5.46,25.09,19.05,12,34.88-11.79,14.26-23.91,28.26-35.88,42.38-2.44-.12-4.88-.25-7.32-.38ZM317.1,229.11c-2.7,12.3-11.07,20.37-24.99,19.9-15.25-.52-24.4-10.06-30.56-22.48-1.17-2.36,1.57-7.63,3.86-10.5,13.34-16.7,27.09-33.08,42.8-52.11,11.49,22.82,13.56,43.83,8.89,65.19Z"/>
    <path d="M615.89,148.09c6.03-3.98,13.24-8.75,22.6-14.92,0,24.22-.03,46.35.02,68.48.02,9.17-2.31,19.39,1.03,27.2,3.31,7.76,12.64,18.43,18.89,18.15,8.29-.37,20.56-8.53,23.38-16.16,9.37-25.37,11.01-51.97,0-80.25,7.9-5.02,16.53-10.5,27.1-17.22v123.86c-11.65.78-26.01,6.86-20.14-20.96-8.71,7.29-13.63,10.65-17.62,14.89-9.13,9.7-19.87,14.87-32.99,10.81-14.09-4.36-16.83-16.9-17.65-29.27-.97-14.46-.07-29.03-.79-43.51-.66-13.19-2.4-26.32-3.82-41.08Z"/>
    <path d="M1004.04,131.74c3.36,8.19,4.99,12.15,7.21,17.58,8.07-4.69,14.9-8.89,21.95-12.7,20.07-10.84,37.84-6.63,46.1,14.29,5.55,14.07,6.47,30.32,7.38,45.72,1.18,20.03.29,40.18.29,61.28h-21.7c.81-27.12,2.69-53.47,2.04-79.75-.51-20.61-16.01-35.86-31.91-34.92-16.85.99-27.09,14.2-27.29,36.05-.24,25.91-.06,51.82-.06,78.67h-25.44c9.84-33.67,10.25-66.28,2.46-99.88-1.48-6.37,11.12-15.96,18.96-26.35Z"/>
    <path d="M1137.87,201.83c17.56-11.48,34.91-23.35,51.63-35.99,12.72-9.61,12.39-17.78.75-28.34-17.16-15.57-46.93-15.49-64.13.18-28.8,26.25-31.19,77.31-4.95,105.91,18.17,19.8,45.91,21.02,69.22.74-24.06,4.97-42.73,1.59-56.06-18.27-6.9-10.28-7.54-16.98,3.54-24.23ZM1125.14,195.58c2.46-17.22,3.93-34.67,8.01-51.5,1.16-4.8,12.23-12.15,14.77-10.82,9.19,4.81,17.77,11.96,24.28,20.05,2.49,3.1.88,13.36-2.5,16.47-11.41,10.5-24.46,19.26-36.88,28.69-2.56-.96-5.12-1.92-7.68-2.89Z"/>
    <path d="M954.67,137.32c-16.71-14.75-44.6-15.42-61.38-1.46-30.42,25.3-33.71,80-6.51,108.48,18.02,18.87,44.43,19.96,67.05,1.62-5.73,0-10.2-.56-14.47.1-16.48,2.54-27.71-5.1-37.9-16.96-10.26-11.96-9.73-20.72,3.98-29.46,16.73-10.66,33.23-21.8,48.98-33.84,12.64-9.67,12.1-18.03.25-28.48ZM935.14,169.23c-11.94,10.71-25.32,19.85-39.85,31.02-7.35-22.4-4.17-41.12,3.51-58.69,5.54-12.69,16.34-11.2,26.38-4.11,12.95,9.16,18.23,24.37,9.96,31.78Z"/>
    <path d="M350.11,72.42c7.7-6.66,15.41-13.32,23.11-19.98,1.59.51,3.18,1.03,4.77,1.54v201.06h-24.99c6.32-61.34,3.72-121.63,2.05-181.93-1.65-.23-3.3-.46-4.95-.68Z"/>
    <path d="M768.67,68.2c-.7,14.69-1.46,29.15-2.06,43.61-.47,11.39-.7,22.76,18.66,19.43-15,.72-19.29,6.64-18.74,19.69,1.07,25.56-.12,51.22.22,76.82.11,8.58,2.05,17.14,3.35,27.3h-23.46c.16-36.84.9-73.08-.12-109.28-.16-5.64-8.31-11.07-11.67-15.23.54-.05,5.15-.48,13.12-1.24-1.53-12.41-3.01-24.32-4.45-36.01,7.87-7.85,17.07-17.03,25.15-25.1Z"/>
    <path d="M838.71,64.14c-1.06,21.35-2.08,41.99-3.13,63.25,7.37,1.84,12.57,3.13,21.66,5.39-8.87.98-13.83,1.52-19.51,2.15v120.15h-22.14c.59-37.69,1.72-73.96,1.12-110.21-.09-5.33-8.37-10.53-11.56-14.27.68-.12,5.66-.99,11.36-1.98.32-5.83,1.08-10.99.8-16.09q-1.59-28.6,21.41-48.38Z"/>
    <path d="M398.41,142.95c2.67-2.21,8.82-7.27,18.62-15.36,10.02,30.85,19.86,59.02,28.17,87.62,4.32,14.87,12.73,5.01,22.45-5.73-4.2,9.39-11.14,29.12-16.23,38.01-2.48,4.33-7.76,7.08-11.77,10.55-2.63-4-6.28-7.66-7.74-12.04-11.1-33.32-21.77-66.77-33.5-103.06Z"/>
    <path d="M464.71,216.55c6.72-35.88,15.43-63.85-8.23-69.83,1.15-11.24,4.69-20.06,18.41-19.06,14.32,1.05,17.2,11.41,14.56,22.49-3.57,14.99-19.93,51.7-24.74,66.4Z"/>
  </g>
</svg>