<?xml version="1.0" encoding="UTF-8"?>
<svg width="160" height="48"  id="Layer_2" xmlns="http://www.w3.org/2000/svg" viewBox="0 0 900 232.82">
<style>
      .cls-1 {
        fill-rule: evenodd;
        mix-blend-mode: luminosity;
        stroke:#a19385;
        fill:#a19385;
      }
    </style>
  <g id="Layer_1-2" data-name="Layer_1" class="cls-1">
    <path d="M304.85,179.01c-4.69-22.24-13.52-41.95-32.68-55.98-10.26-7.52-17.16-18.16-21.78-29.99-4.28-10.91-6.79-22.05.1-33.06-.38-.45-.62-.93-1-1.16-18.25-11.03-37.65-19.22-59.28-18.38-15.73.6-31.39,3.38-47.06,5.31-15.89,1.95-31.77,2.73-46.44-4.99-18.48-9.72-38.07-12.55-58.57-11.28-1.51.09-3.03.01-4.8.01,4.14-12.24,2.03-20.47-6.33-25.85-2.2-1.42-4.67-2.44-7.01-3.64h-7C6.55,2.7,2.15,7.31,0,14v7c2.56,3.61,4.46,8.1,7.85,10.58,3.76,2.76,5.35,5.98,6.37,10.09,9.98,40.39,19.96,80.79,30.04,121.16,5.49,21.96,11.12,43.89,16.82,65.79.39,1.5,1.71,3.66,2.88,3.86,3.13.54,6.42.19,10.21.19-.74-3.02-1.2-5.11-1.76-7.16-17.42-63.57-34.86-127.13-52.25-190.71-1.14-4.15-1.92-7.95-6.65-10.22-4.37-2.09-5.03-8.18-2.35-11.76,2.57-3.43,7.4-4.1,11.19-1.57,3.99,2.68,5.72,8.2,2.9,11.77-2.28,2.89-1.77,5.3-.86,8.25,12.77,41.17,25.5,82.35,38.24,123.54,7.57,24.5,15.08,49.01,22.75,73.48.52,1.64,1.93,3.99,3.23,4.2,3.5.59,7.17.21,11.55.21-19.07-56.64-37.89-112.53-56.7-168.42.39-.14.79-.29,1.18-.43,28.9,39.63,41.79,86.13,55.34,132.95,1.45-1.23,2.08-1.74,2.67-2.28,12.43-11.42,28.49-12.71,42.56-3.71,3.31,2.12,7.07,3.72,10.82,4.97,13.01,4.32,25.73,2.26,38.04-2.76,18.71-7.65,38.04-10.76,58.18-9.11,16.69,1.38,32.88,5.02,48.65,10.6,1.94.69,3.94,1.21,6.76,2.07-1.02-6.46-1.65-12.07-2.81-17.57ZM294.67,181.41c-9.75-2.18-19.22-4.74-28.85-6.36-25.09-4.22-49.68-2.52-73.72,6.56-7.22,2.72-15.01,4.27-22.68,5.34-6.42.91-12.7-1.23-17.66-5.54-13.08-11.36-27.52-10.92-42.68-5.53-.92.32-1.85.59-3.47,1.11-12.15-49.39-30.08-95.94-63.75-135.84,10.04-2.51,19.34-2.28,28.55.23,4.47,1.23,8.97,2.72,13.1,4.8,21.81,10.96,44.68,11.74,68.25,8.18,13.3-2.01,26.71-3.84,40.13-4.42,14.77-.64,28.47,4.45,41.59,10.97,2.32,1.15,2.79,2.45,2.41,5.11-.65,4.56-1.29,9.42-.41,13.85,3.76,18.86,12.26,35.28,27.78,47.12,17.31,13.21,27.2,30.66,31.6,51.61.1.49.17.99.17,1.49,0,.31-.16.63-.36,1.32Z"/>
    <path d="M900,164c-4.76-.28-9.51-.56-14.74-.87,0-10.49,0-20.61,0-30.73,0-1,0-2,0-3-.07-8.08-2.47-11.34-8.53-11.57-6.96-.27-12.76,4.76-12.93,11.75-.24,9.65-.29,19.33,0,28.98.12,4.09-1.29,5.35-5.15,5.01-2.92-.26-5.88-.05-9.42-.05,0-5.2,0-9.65,0-14.1,0-12.16.15-24.32-.08-36.47-.07-3.88,1.04-5.66,5.01-5.17.16.02.33,0,.5,0,4.34.03,9.56-1.37,8.83,7.42,5.58-6.46,11.29-9.37,18.4-9.22,9.65.19,14.26,3.6,17.06,12.86.23.77.71,1.46,1.07,2.19v43Z"/>
    <path d="M331.02,86.84c5.29,0,9.94-.29,14.51.18,1.3.13,3.06,2.3,3.43,3.82,3.44,14.05,6.62,28.17,9.9,42.27.41,1.75.92,3.48,2.53,5.44.53-1.73,1.16-3.44,1.57-5.2,3.21-13.6,6.49-27.18,9.5-40.82.85-3.85,2.28-5.46,6.58-5.38,11.28.2,11.24-.04,13.96,11.08,3.26,13.38,6.61,26.74,10.98,40.24.43-1.07,1.01-2.11,1.26-3.22,3.21-14.62,6.48-29.23,9.47-43.89.7-3.44,2.11-4.83,5.62-4.6,3.61.24,7.24.05,11.62.05-.57,2.64-.89,4.54-1.39,6.38-5.83,21.51-11.83,42.99-17.42,64.56-1.19,4.6-3.12,6.1-7.82,5.89-10.73-.47-8.44,1.31-11.11-9.06-3.68-14.34-7.23-28.71-10.87-43.06-.31-1.21-.82-2.36-2.26-3.53-1.75,7.02-3.52,14.03-5.23,21.05-2.4,9.86-4.85,19.71-7.09,29.61-.77,3.41-2.2,4.98-6.01,4.97-9.8-.03-9.81.16-12.56-9.42-5.89-20.46-11.77-40.92-17.65-61.39-.45-1.58-.81-3.19-1.51-5.98Z"/>
    <path d="M640.23,163.53c0-18.19-.05-35.5.13-52.8.01-.99,1.78-2.36,3.01-2.82,1.31-.5,2.96-.06,4.45-.18,3.92-.31,7.15.16,6.6,4.4,5.39-2.01,10.74-4.88,16.41-5.88,6.59-1.16,11.92,2.14,15.28,8.76,1.33-1.2,2.44-2.08,3.42-3.08,5.54-5.72,12.41-6.85,19.81-5.43,6.8,1.31,11.1,6.53,11.34,14.54.39,12.98.18,25.98.3,38.97.02,2.54-1,3.41-3.52,3.6-10.63.78-10.62.86-10.63-9.5,0-8.33.03-16.66-.09-24.98-.12-8.06-2.35-11.26-7.52-11.25-6.22.02-11.35,5.26-11.45,12.08-.14,8.99-.01,17.99-.02,26.98q0,6.55-6.5,6.6c-1,0-2.01-.07-3,.05-3.6.43-5.01-.85-4.91-4.72.24-9.99.11-19.99.02-29.98-.07-7.81-2.09-10.82-7.15-11.05-5.95-.26-11.41,4.85-11.55,11.35-.21,9.82-.19,19.66.02,29.48.08,3.66-1.03,5.21-4.81,4.91-3.08-.24-6.2-.05-9.65-.05Z"/>
    <path d="M505.5,163.49c-3.99,0-7.79.23-11.53-.16-.96-.1-2.44-2.17-2.45-3.34-.14-23.16-.15-46.31.06-69.47.01-1.23,2.03-3.35,3.31-3.5,10.93-1.33,10.94-1.23,10.92,9.86,0,5.43,0,10.85,0,17.47,2.02-1.69,3.08-2.59,4.16-3.47,6.85-5.64,14.62-6.35,22.56-3.29,7.51,2.9,9.08,9.81,9.21,16.87.24,12.79.07,25.58.07,39.02-4.26,0-8.08.32-11.79-.21-1.05-.15-2.45-2.77-2.49-4.28-.22-9.82-.07-19.66-.11-29.48-.03-8.25-2.3-11.35-8.38-11.67-6.79-.35-12.85,4.75-13.08,11.67-.32,9.82-.13,19.66-.18,29.48,0,1.29-.15,2.59-.27,4.5Z"/>
    <path d="M805.85,138.79c10.97-.03,21.94,0,33.5,0,0-3.98.35-7.31-.06-10.54-1.63-12.72-8.52-20.3-19.61-21.96-14.42-2.15-25.8,3.49-30.99,15.36-10.49,24.02,4,45.02,29.89,43.22,2.46-.17,5-.57,7.31-1.41,7.39-2.68,11.34-8.18,12.69-16.64-3.88,0-7.34-.23-10.76.11-1.37.14-3.03,1.25-3.84,2.42-3.25,4.67-7.84,5.35-12.83,4.6-5.11-.77-8.21-4-9.71-8.9-1.6-5.19-.93-6.23,4.41-6.25ZM813.02,116.65c8.18-.32,12.29,3.66,12.29,12.7h-23.89c-.58-7.29,4.25-12.42,11.6-12.7Z"/>
    <path d="M586.85,106.83c-14.9-3.82-28.73,2.41-33.75,15.78-3.34,8.89-3,18.01.03,26.94,2.88,8.51,9.15,13.55,17.83,14.91,5.03.79,10.35.74,15.42.08,9.62-1.24,16.18-8.53,16.31-17.76-3.78,0-7.57-.09-11.35.07-.77.03-1.69.85-2.23,1.54-4.49,5.71-9.25,7.24-15.62,4.92-5.28-1.92-7.92-6.57-7.71-14.55h6.19c9.33.01,18.66.14,27.99-.1,1.39-.04,3.86-1.74,3.94-2.82,1.12-14.11-4.07-25.69-17.05-29.01ZM566.15,129.38c-1.16-4.57,1.02-7.8,4.26-10.25,4.35-3.29,9.36-3.49,14.16-1.24,4.38,2.05,5.72,6.08,5.71,11.49h-24.13Z"/>
    <path d="M729.67,146.55h12.74c3.12,7.33,6.98,8.09,16.04,7.56,3.3-.19,6.39-1.39,6.75-5.36.38-4.15-2.4-6.01-5.91-6.79-5.68-1.26-11.54-1.84-17.08-3.51-9.82-2.96-14.04-10.96-11.11-20.11,1.84-5.75,6.19-9.64,11.75-10.42,7.43-1.05,15.18-1.4,22.6-.47,7.36.93,11.83,6.27,13.32,14.81-3.76.48-7.43,1.08-11.12,1.3-.75.04-1.73-1.25-2.36-2.1-3.71-5.02-13.93-6.91-18.79-3.12-1.23.96-2.42,3.19-2.14,4.53.33,1.63,1.97,3.74,3.5,4.24,4.24,1.38,8.73,1.99,13.1,2.97,2.59.58,5.22,1.09,7.71,1.97,7.71,2.71,10.89,7.28,10.95,15.4.06,7.31-3.44,12.92-10.41,15.45-9.21,3.34-18.68,3.32-27.89.12-7.78-2.71-11.64-8.55-11.65-16.46Z"/>
    <path d="M479.77,163.51c-4.32,0-8.12.23-11.86-.16-.93-.1-2.37-2.19-2.38-3.37-.14-23.16-.07-46.31-.14-69.47,0-2.88,1.29-3.62,3.93-3.77,10.43-.58,10.41-.65,10.41,9.7,0,20.16.02,40.32.03,60.48,0,1.96,0,3.91,0,6.59Z"/>
    <path d="M614.17,163.57c0-2.47,0-4.11,0-5.75.01-21.82.15-43.65-.08-65.47-.05-4.5,1.37-5.65,5.64-5.61,10.76.08,8.76-.03,8.79,8.88.09,20.99-.11,41.98.1,62.97.04,4.13-1.35,5.33-5.17,5.03-2.93-.23-5.89-.05-9.28-.05Z"/>
    <path d="M439.34,135.55c0-7.83.13-15.66-.06-23.48-.08-3.31,1.17-4.38,4.35-4.36,12.48.08,9.9-.64,10.01,9.6.15,13.82-.08,27.65.11,41.47.05,3.76-1.21,4.91-4.89,4.82-11.72-.28-9.3.93-9.49-9.56-.11-6.16-.02-12.32-.02-18.49Z"/>
    <path d="M454.47,99.53h-15.65c.45-4.29-.54-10.02,1.64-11.74,2.56-2.02,8.96-2.08,11.66-.15,2.26,1.62,1.6,7.32,2.35,11.89Z"/>
    <path d="M207.69,86.85c-.94,20.33-1.84,39.87-2.78,60.07-6.26,0-12.05.21-17.8-.16-1.22-.08-2.78-2.09-3.38-3.55-3.96-9.52-7.7-19.14-11.52-28.72-.29-.74-.67-1.45-2.15-2.13v34.55c-6.32,0-11.74.11-17.15-.11-.97-.04-2.32-1.28-2.76-2.29-8.14-18.6-16.16-37.25-24.19-55.9-.12-.27-.02-.64-.02-1.68,4.74,0,9.5-.26,14.19.18,1.25.11,2.72,2.18,3.36,3.67,4.37,10.21,8.55,20.51,13.31,32.07.44-7.7.82-14.17,1.15-20.64.2-3.82.4-7.65.47-11.48.04-2.65,1.08-4.1,3.89-3.87.16.01.33,0,.5-.01q11.95-.6,16.77,10.31c3.53,7.98,7.05,15.97,10.58,23.96.38-.05.76-.1,1.14-.15,0-3.87-.03-7.74.01-11.6.06-6,.23-11.99.24-17.99,0-3.32,1.32-4.81,4.8-4.58,3.6.23,7.22.05,11.34.05Z"/>
  </g>
</svg>