<?xml version="1.0" encoding="UTF-8"?>
<svg id="Layer_2" xmlns="http://www.w3.org/2000/svg" viewBox="0 0 500 500">
  <defs>
    <style>
      .cls-1 {
        fill: #fff;
      }
    </style>
  </defs>
  <g id="Layer_1-2" data-name="Layer_1">
    <g>
      <path class="cls-1" d="M500,500H0C0,333.33,0,166.67,0,0c166.67,0,333.33,0,500,0,0,166.67,0,333.33,0,500ZM379.88,37.91h-8.47v8.82h8.31c0-3.15,0-6.05.01-8.95,3.12.05,6.24.1,9.36.15v18.2h-17.74v17.95h8.71l-.14-.14v9.23h-8.83c0,3.3,0,6.09,0,8.88h-18.21v8.86h-17.6v8.88c2.97.14,5.69.28,8.92.43v8.53h8.52c0-6.14,0-12.06.01-17.97h18.21v-8.88h17.72v9.24h-8.34v9.03h8.81v8.52h18.03v-8.3h9.05v8.27h9.03v-8.4h8.59c.14,2.97.27,5.7.43,8.94h8.53v8.87h-17.91v9.04c-3.33,0-6.14,0-8.95,0v-8.74h-53.84c0,3.13,0,5.93,0,8.73-3.05,0-6.1,0-9.16.01v-8.72h-8.86v8.72h-9.3v9.12h-8.87v17.88c-3.35,0-6.16,0-8.97,0v-9.01h-18.01v-18.23h-8.99v-8.92h18.32v8.8h8.87v-8.95h17.59v-8.88h-17.33v-9.08h8.27v-18.05h-8.86v-8.39h-9.04v8.38h-8.89v-8.97h-26.61v-26.61c2.97-.14,5.71-.27,8.35-.4v-8.93h-17.29v-18.08h8.42v-8.42h-17.96v8.4h-8.59c-.14-2.97-.27-5.71-.41-8.67-6.22,0-12.03,0-17.83,0v-8.74h-35.84c0,3.12,0,5.93,0,8.73h-9.01v9.01c-3.04,0-6.08,0-9.12,0v-9.22h-8.86v-8.6h-26.76v17.35h17.47c.15-3.08.29-5.81.43-8.46,3.38-.17,6.19-.31,8.99-.44v9.21h8.88c0,15.04,0,30.09-.01,45.13h-9.29v-8.81h-8.49v17.88h8.61v8.93l.14-.14h-8.97c0,6.56,0,12.35,0,18.15h-9.25v-18.29h-8.91v-17.87h9.29v-18.1h17.43v-9.02h-17.84v-8.45h-9.03v8.42h-17.5v-8.95h8.47v-17.5h-8.91v8.8h-17.58c-.17,3.08-.32,5.81-.48,8.56h-8.87c0-6.13,0-11.93,0-17.73h8.75v-8.57h-8.6v8.72h-8.73v27.07h8.76c0,3.3,0,6.09,0,8.89h-8.75v17.55h8.6v-17.7h9.28v-8.67h8.57c.17,2.95.32,5.68.5,8.9h17.8c0,3.33,0,6.14,0,8.94h-9.24v9.02c-3.31,0-6.1,0-8.9,0v-8.75h-8.57v8.6h8.72v9.29h17.65v8.89h-35.67v8.96h-9.24v-9c-3.3,0-6.09,0-8.88,0v-8.75h-8.57v8.6h8.72v9.24h-9.02c0,3.3,0,6.1,0,8.89h-9.17v-18.26h-18.08v-8.49h-17.45v8.79h8.39c.17,3.06.33,5.79.51,9.02h17.78v8.95c-9.04,0-18.08,0-27.12,0v-8.75h-8.57v8.6h8.72v9.31h-8.8v8.87h8.34v9.07h-8.28v18.05h17.39v8.9H11.24v8.88h17.45v9.25h-8.39v17.87h8.77v26.95h-9.27v9.06h-8.49v9h8.77c0,3.32,0,6.13,0,8.93h-8.72v8.84c3.13,0,5.92,0,8.71,0v9.01h9.01v9.25H11.35v35.74c3.13,0,5.92,0,8.72,0,0,3.06,0,6.12-.01,9.19h-8.8v26.57h8.65c0-9.11,0-17.92,0-26.72,6.06,0,12.12-.01,18.18-.02v9.26h-8.67v8.98h8.41c.14,3.05.27,5.78.42,8.99h8.84c0,3.32,0,6.11,0,8.91h-8.72v8.86h8.72c-.05,3.04-.11,6.09-.16,9.13l.14-.14h-8.78c0,6.56,0,12.43-.01,18.3-2.95-.13-5.89-.26-9.07-.4-.16-3-.31-5.73-.49-8.97h-8.35v-9.05h8.28v-17.38h-8.83v8.73h-8.42v27.01h8.43c.14,3.06.27,5.79.41,8.74,6.22,0,12.01,0,17.81,0v8.74h8.57v-8.59h-8.72c.07-2.99.15-5.98.22-8.97h44.57v-9.22h-17.31v-8.62h26.73v17.96h9.06v8.45h17.41v-8.84h-8.28v-17.91c3.13,0,5.94,0,8.75,0v8.75h8.57v-8.59h-8.72v-9.15c6.55,0,12.36,0,18.17,0v27.27h-8.82v8.58c2.94.16,5.68.31,8.62.47v8.68h-26.95v9.15l.14-.14h-9.23v9.37h-8.74c0,9.28,0,18.03,0,26.78h-8.73v17.84c3.13,0,5.92,0,8.72,0v8.72h8.86v-8.72h9.22v-26.59h17.94c0,3.13,0,5.93,0,8.73h-8.74v8.57h8.59v-8.72h9.28v-18.11h8.42v-18.04h-8.47c-.17-3.35-.32-6.16-.45-8.97h18.29v-17.93h8.89c0-3.32,0-6.12,0-8.92,6.06,0,12.12,0,18.17,0v18.29h8.69v8.58c-2.96.16-5.69.31-8.93.48v8.35h-9.05v-8.27h-8.71c0,12.12,0,23.91,0,35.69h-17.74v8.58h17.59v-8.73c3.04.06,6.08.12,9.12.18l-.14-.14v9.29h9.28v8.86h17.89c0,3.34,0,6.15,0,8.96h-17.74v8.58h17.59v-8.73h9.23v-8.99c3.31,0,6.1,0,8.9,0v17.71h8.84c0-6.14,0-11.92,0-17.7h9.01v-9.01h9.31v8.81h35.43v-17.8h-8.73l.14.14v-9.14c6.38,0,12.19,0,18,0v36.27h18.1v8.47h8.91v-17.72l-.14.14c3.04-.05,6.09-.11,9.13-.16v9c6.4,0,12.2,0,18,0v8.74h17.57v-17.58h-8.72v-9.26h9.01v-8.9h9.26v-17.99h17.9v17.64h9.11v-8.25h8.44v17.87h-8.28v18.05h8.86v8.38h17.88v-8.36h27.07v8.47h17.57c.17-2.95.33-5.68.51-8.92h17.47v-8.88h-17.38v-9.07h17.31v-8.94h-26.72l.14.14v-9.29h8.65v-17.52c-2.96-.16-5.69-.31-8.4-.46v-17.87c6.14,0,11.93,0,17.73,0v8.74h8.57v-8.59h-8.72c0-3.04,0-6.09.01-9.13h8.72v-8.86h-8.72v-18.23h8.73v-26.76c-3.13,0-5.92,0-8.72,0v-9.31h8.79v-8.43h-26.65v8.74h-9.31v-9.23h-8.46v-9.07h17.42v-17.43h-8.95v8.39h-8.46v-17.4h26.84v17.42c3.08.16,5.82.29,9.06.46v8.49h8.44v-26.95h-8.41v-8.61c2.97-.14,5.72-.26,8.36-.39v-8.94h-8.3v-18.08h8.41v-26.87h-17.79c0-9.36,0-18.16,0-26.96h17.71v-8.84c-6.14,0-11.92,0-17.7,0,0-3.06,0-6.11,0-9.17h17.74v-18.08h-8.76c0-3.3,0-6.09,0-8.89h8.75v-17.55h-8.6v17.7c-6.04-.06-12.08-.12-18.12-.18l.14.14v-9.28h-26.83v-8.9h17.66c0-15.34,0-30.13,0-44.93h9.26v35.64h8.99v-8.31h9.03v8.46h8.5v-17.88h-8.78c0-3.32,0-6.13,0-8.94h8.72v-8.86h-8.72v-8.71h-26.85v8.74h-9.26v-8.85h-8.8v17.46h-9.15v-17.79h-8.9l.14.14v-17.81h-8.83c-.16,2.94-.32,5.68-.47,8.42h-8.86c0-12.14,0-23.95,0-35.75,3.05,0,6.09-.01,9.14-.02v8.75h8.57v-8.59h-8.72v-18.22h-9.18v-8.57h-17.39v8.88h8.76c0,3.31,0,6.11,0,8.91h-9.21v8.84ZM308.06,65.1h-8.72v8.53h8.57c0-3.13,0-5.9,0-8.68,3,.06,6,.12,9,.18v8.47h8.82v-8.31c-3.15,0-6.05,0-8.95-.01.05-3.12.1-6.24.15-9.36,6.04.05,12.09.11,18.13.16l-.14-.14v35.68h9.17v-8.67h17.57v-18.04h-8.72l.14.14v-18.24h8.83c0-6.3,0-12.08,0-17.87h8.75V11.4h-8.6v17.7h-27.21v8.99c-3.32,0-6.12,0-8.92,0v-9.31h-9.1V11.35h-8.74c0,9.13,0,17.92,0,26.72-3.1.07-6.21.14-9.3.2v-9.21h-8.88V11.26h-8.57v17.65c3.11,0,5.92,0,8.73,0v9.22h8.86v17.79c3.58,0,6.37,0,9.16,0,0,3.06,0,6.12-.01,9.19ZM73.63,73.76V11.41H11.28v62.34h62.35ZM425.24,73.62h62.34V11.29h-62.34v62.33ZM11.25,487.63h62.34v-62.35H11.25v62.35ZM136.91,470.21v8.86h-17.51v8.64h44.24v-8.95h-17.86v-8.55h-8.87ZM262.76,479.36h-26.52v8.36h26.52v-8.36ZM65.24,415.64h26.52v-8.37h-26.52v8.37ZM487.64,442.76v-17.52h-8.36v17.52h8.36ZM371.42,470.21v17.49h8.25v-17.49h-8.25ZM326.23,19.73h17.45v-8.38h-17.45v8.38ZM281.24,73.63h8.35v-8.35h-8.35v8.35Z"/>
      <path d="M469.91,199.93v26.96h17.79v26.87h-8.41v18.08h8.3v8.94c-2.64.12-5.38.25-8.36.39v8.61h8.41v26.95h-8.44v-8.49c-3.24-.16-5.98-.3-9.06-.46v-17.42h-26.84v17.4h8.46v-8.39h8.95v17.43h-17.42v9.07h8.46v9.23h9.31l-.14-.16v9.14l.14-.14h-18.14v9.14l.14-.14h-9.24v-8.86h-8.9v-9.12h8.83v-27.06h-8.83c0-3.33,0-6.14,0-8.94,2.92,0,5.84,0,8.77,0v-8.61h-8.63v8.74h-9.26v-9.01h-17.87c0-6.04,0-12.09-.01-18.13,2.92,0,5.84,0,8.77,0v-17.59h-8.63v17.73c-12.04,0-24.09,0-36.13-.01v-18.23h8.75v-26.94h-8.74l.15.15v-8.7h-18.26v8.31h-17.76v-8.74l-.14.14h8.75v-27.14h-8.75l.14.14v-9h18l-.14-.14v26.71h9.23v-17.29h9.05v17.41h8.91v-8.35h9.05v8.73h8.43v9.05h-8.28v17.74c3.13,0,5.94,0,8.75,0,0,2.92,0,5.84,0,8.77h8.61v-8.63h-8.74v-9.29h17.83v-26.88h-17.68v-8.96l-.14.14h18.24v-9h8.91l-.14-.14v18.28h9.34v9.02h8.37v9.02h-8.4v8.84h26.89v8.85c3.32,0,6.13,0,8.93,0,0,8.91,0,17.82,0,26.76h8.62v-26.62h-8.76v-35.99h9.15l-.16-.14ZM442.75,262.79v-26.49h-26.41v26.49h26.41ZM443.21,280.75h26.5v-8.42h-26.5v8.42Z"/>
      <path d="M38.28,398.23v-18.3c2.98,0,5.88,0,8.78,0,0,2.92,0,5.84,0,8.77h8.61v-8.63h-8.74c.05-3.04.11-6.09.16-9.13l-.16.14h26.73v-9.14h-26.73l.16.14v-8.91h-8.84c-.15-3.21-.28-5.94-.42-8.99h-8.41v-8.98h8.67c0-3.42,0-6.34,0-9.26,0,0-.16.14-.16.14h9.29v17.68h8.89v-17.83h8.95c0,2.93,0,5.86,0,9,6.38,0,12.19,0,17.99,0,0,2.92,0,5.84,0,8.77h8.61v-8.63h-8.74v-8.99h18.15l-.14-.14v27.23h-17.56v9.04h8.42c.14,3.06.26,5.8.39,8.47h9.11v-8.85h8.84v-8.9c3.32,0,6.12,0,8.92,0,0,2.92,0,5.84,0,8.77h8.61v-8.63h-8.74v-9.27h-8.66v-8.81h26.47v-27.13h-8.8v-8.92h26.98c0-3.24,0-6.02,0-8.81,0,0-.14.16-.14.16h9.3c0,6.05,0,11.91,0,17.78-5.91,0-11.83,0-17.76,0v8.62h17.63v-8.75c3.04,0,6.08,0,9.13,0,0,2.93,0,5.85,0,8.75h8.87v-8.75c6.04,0,12.09,0,18.13,0,0,2.93,0,5.85,0,9.28h-8.84v8.58c2.95.16,5.67.31,8.9.49v17.64c3.33,0,6.14,0,8.94,0v9.23h9.12v8.77h8.88v8.99h-18.14l.14.14v-9.31h-18.24v-8.47h-9.06v8.41h-8.87v-17.78h-8.98l.14.14v-9.24h-9.27v-8.46h-8.88v17.7l.14-.14h-8.75v9.14h8.75l-.14-.14v9.14l.14-.14h-9.14v9.14l.14-.16h-18.17v9.15l.15-.15h-8.75v17.91h8.28v8.84h-17.41v-8.45h-9.06v-17.96h-26.73v8.62h17.31v9.22c-14.77,0-29.67,0-44.57,0,0,0,.16.14.16.14ZM182.16,343.62h8.59v-8.32h-8.59v8.32ZM65.2,352.67h8.42v-8.42h-8.42v8.42Z"/>
      <path d="M290.07,442.91h-18c0,3.29,0,6.22,0,9.14-2.92,0-5.84,0-8.77,0v8.61h8.63v-8.74h8.73v17.8h-35.43v-8.81h-9.31l.14.16v-8.74h-18.14v17.74l.14-.16h-8.9v8.99h-9.23l.15.15v-8.96h-17.89v-8.86h-9.28c0-3.43,0-6.36,0-9.29,2.92,0,5.84,0,9.19,0v-8.84c2.93,0,5.86,0,8.79.01v17.51h8.88v-17.36c-3.15,0-6.08,0-9,0,0-3.05,0-6.09,0-9.02h-8.53c0,3.16,0,6.08,0,8.99-3.03,0-6.06,0-9.19,0v8.86c-3.04-.06-6.08-.12-9.12-.18l.15.15v-35.69h8.71v8.27h9.05v-8.35c3.24-.17,5.97-.32,8.93-.48v-8.58h-8.69v-18.29l-.16.14c3.04-.05,6.09-.1,9.13-.15,0,2.92,0,5.84,0,9.19h8.84v35.99h9.16l-.15-.15v8.71h17.74v-26.83h-8.41c-.16-3.06-.3-5.79-.46-9.02h-9.03v-8.55c-3.34,0-6.15,0-8.96,0,0-3.03,0-6.06,0-9.19h-8.86v-9.13h-8.99l.14.14v-9h27l-.14-.14v9.31h27.33c0,6.36,0,12.17,0,17.98-3.11-.06-6.22-.11-9.33-.16v-8.75h-8.59v8.61c3.14,0,5.93,0,8.73,0,0,2.91,0,5.82,0,8.79h9.05v-8.62c2.98-.06,5.97-.11,8.95-.17,0,2.91,0,5.82,0,9,15.34,0,30.17,0,45,0-.05,3.05-.09,6.1-.14,9.14l.14-.14h-17.74v18.14h17.74l-.14-.14v9.14l.14-.16ZM262.7,442.92v-26.58h-26.32v26.58h26.32Z"/>
      <path d="M478.93,344.09h8.72v26.76h-8.73v18.23l.16-.14h-8.75v9.14h8.75l-.16-.14c0,3.04,0,6.09-.01,9.13l.15-.15h-17.72v17.87c2.71.15,5.44.3,8.4.46v17.52h-8.65c0,3.44,0,6.37,0,9.29-8.92,0-17.84,0-27.28,0v8.68h-8.56c-.16-2.96-.3-5.69-.45-8.41h-8.42v17.45h26.43c.16-2.94.3-5.67.47-8.9h17.66v-8.96h26.72v8.94h-17.31v9.07h17.38v8.88h-17.47c-.19,3.24-.34,5.98-.51,8.92h-17.57v-8.47h-27.07v8.36h-17.88v-8.38h-8.86v-18.05h8.28v-17.87h-8.44v8.25h-9.11v-17.64l-.16.14h9.24v-9.27h8.5v-17.73h-8.74v-9.14h18.14c0,2.92,0,5.84,0,8.75h17.86c0-3.14,0-5.94,0-8.75,3.05,0,6.09,0,9.14,0v8.75h8.87v-8.75h8.74v-35.86h-17.74c.05-3.05.1-6.09.14-9.14l-.14.14h18.14v-9.14l-.14.14h9.14l-.14-.14v17.74h9.14v-17.74l-.14.16ZM442.66,442.79v-26.41h-26.42v26.41h26.42Z"/>
      <path d="M173.09,74.07c0-15.04,0-30.09.01-45.13l-.15.15c3.04,0,6.08,0,9.12,0l-.14-.16v8.75h9.14v-8.75l-.14.14h18.15c0,3.38,0,6.18,0,8.99-2.92,0-5.84,0-8.77,0v8.61h8.63v-8.74c6.1-.06,12.19-.12,18.28-.17-.06,3.11-.11,6.22-.16,9.33h-8.75v8.59h8.61c0-3.14,0-5.93,0-8.73,2.91,0,5.82,0,8.79,0v-9.05h-8.62c0-5.99-.02-11.97-.03-17.96l-.14.16h17.83c.14,2.96.27,5.7.41,8.67h8.59v-8.4h17.96v8.42h-8.42v18.08h17.29v8.93c-2.64.13-5.37.26-8.35.4v26.61h26.61v8.97h8.89v-8.38h9.04v8.39h8.86v18.05h-8.27v9.08h17.33v8.88h-17.59v8.95h-8.87v-8.8h-18.32l.14.16v-9.29h17.69v-17.87h-17.94v-8.52h-9.05v8.74h-8.85v17.94l.14-.14h-9.14l.14.14v-26.75h-27.35v8.38h-8.84v-8.77h-8.95l.14.14c-.05-6.04-.1-12.09-.15-18.13,2.92,0,5.84,0,8.77,0v-8.61h-8.63v8.74c-3.04,0-6.09,0-9.13-.01v-17.74h-26.86c0,6.14,0,11.94,0,17.74-3.05-.05-6.1-.09-9.14-.14l.16.14ZM236.16,82.62h26.59v-26.33h-26.59v26.33ZM253.77,38.31h-8.42v8.47h8.42v-8.47Z"/>
      <path d="M415.94,82.92h8.9v17.79h9.15v-17.46h8.8v8.85h9.26l-.15-.15v44.93h-17.66v8.9h26.83c0,3.44,0,6.36,0,9.28-2.92,0-5.84,0-8.77,0v8.61h8.63v-8.74c6.04.06,12.08.12,18.12.18l-.15-.15v8.88h8.76v18.08h-17.74l.15.16v-8.82c-12.54,0-24.42,0-36.29,0,.05-3.11.1-6.21.14-9.31,2.92,0,5.84,0,8.77,0v-8.61h-8.63v8.74h-8.77v9.03h8.62c0,5.98,0,11.96,0,17.95l.15-.15h-9.23v-8.98h-8.9l.14.14v-9.31h-8.78v-8.88h8.78v-26.95l-.14.16h8.95v-9.04h17.91v-8.87h-8.53c-.15-3.24-.28-5.97-.43-8.94h-8.59v8.4h-9.03v-8.27h-9.05v8.3h-18.03v-8.52h-8.81v-9.03h8.34v-9.24h-17.72l.15.15v-8.88h8.83c0-3.4,0-6.32,0-9.23,2.92,0,5.84,0,8.77,0v-8.61h-8.63v8.74h-8.71v-17.95h17.74v-18.2l-.16.14h9.14l-.16-.14v35.75h8.86c.15-2.74.31-5.48.47-8.42h8.83c0,5.95,0,11.88,0,17.81-2.92,0-5.84,0-8.77,0v17.59h8.63v-17.73Z"/>
      <path d="M20.09,254.07v-8.93h-8.77v-9h8.49v-9.06h9.27l-.14-.16v8.75h18.14v-8.75l-.14.14h9.25v-9.15c3.3,0,6.09,0,8.88,0,0,2.92,0,5.84,0,8.77h8.61v-8.63h-8.74l.15-9.13-.14.14h18.3v17.68h8.9v-8.52h8.86v26.91h9.22v26.62h8.62c.14-2.97.28-5.7.41-8.36h8.48v17.7h-8.63c0,3.34,0,6.15,0,8.96-2.88,0-5.75,0-9,0,0,3.25,0,6.13,0,9-2.93,0-5.85,0-8.75,0v8.87h8.75v9.23h8.53v8.76h-17.67l.14.14v-9c-9.46,0-18.3,0-27.14,0,0-3.05,0-6.1,0-9.14h17.75v-27.03h-8.75l.15.15v-9.25h-36.34v-9.01h-8.4v-9.01h8.42v-8.52h-17.91v8.67h-8.93l.16.14ZM56.16,262.62h26.59v-26.33h-26.59v26.33ZM92.38,263.16v8.59h8.32v-8.59h-8.32Z"/>
      <path d="M29.07,227.09v-26.95h-8.77v-17.87h8.39v-9.25H11.24v-8.88h17.51v-8.9H11.36v-18.05h8.28v-9.07h-8.34v-8.87h8.8v-9.31l-.15.15c9.04,0,18.08,0,27.12,0l-.14-.16v9.14h9.14l-.14-.14c0,6.05,0,12.1,0,18.14l.14-.14h-9c0,6.44,0,12.29,0,18.14-2.93,0-5.85,0-8.75,0v8.87h8.75c0,6.04,0,12.08,0,18.12-2.92,0-5.84,0-8.77,0v8.61h8.63v-8.74c3.04,0,6.09,0,9.13.01v18.17h8.99l-.15-.15c0,3.04.01,6.08.02,9.12,0,0,.14-.14.14-.14h-26.79v9.24h8.65v8.9l.14-.14h-18.14l.14.16ZM29.25,145.71h8.43v-26.51h-8.43v26.51Z"/>
      <path d="M362.08,137.07v-8.73h53.84v8.74s.14-.16.14-.16h-9.27v9.15c-6.3,0-12.08,0-17.86,0,0-2.92,0-5.84,0-8.77h-8.61v8.63h8.74v9.24h8.57v26.89c-3.12,0-5.91,0-8.71,0,0-2.92,0-5.84,0-8.77h-8.61v8.63h8.74c-.05,3.04-.1,6.09-.15,9.13l.14-.14h-18.24v-26.58h-17.62v8.46c2.94.15,5.67.29,8.42.44v8.68h-17.71l.14.14v-9.14h-27.14l.14.14v-9.14l-.14.16h8.97v-17.88h8.87v-9.12h9.3l-.14-.16v9.14h9.14l-.14-.14v8.75h9.14v-8.75l-.14.14h8.75v-9.14h-8.75l.16.15ZM335.08,163.61h8.6v-8.25h-8.6v8.25Z"/>
      <path d="M163.92,92.06v-8.93h-8.61v-17.88h8.49v8.81c3.43,0,6.36,0,9.29,0,0,0-.16-.14-.16-.14v9c3.39,0,6.26,0,9.14,0,0,2.88,0,5.75,0,9.01h9.01v8.74h8.86v-8.75c6.05.05,12.09.1,18.14.14l-.14-.14v9.29h-8.7v8.59c2.96.15,5.7.29,8.37.43v8.86h-35.35v9.04h8.33v9.03h-8.72v8.91c-3.33,0-6.13,0-8.94,0,0-2.92,0-5.84,0-8.75h-17.87v8.75c-6.05,0-12.09,0-18.14,0v-18.22h18.14v-8.92l-.14.14c2.99.01,5.98.03,8.97.04v8.52h8.87v-8.37c-3.16,0-6.08,0-9,0,0-3.03,0-6.06,0-9.32h-8.86l.16.14v-18.15c3.13,0,6.05,0,8.97,0,0,2.92,0,5.84,0,9.19h8.84v8.52h8.87v-8.37c-3.16,0-6.08,0-9,0,0-3.03,0-6.06,0-9.19h-8.86Z"/>
      <path d="M389.09,433.93h-17.9v17.99h-9.26s.14.16.14.16v-18.32h-8.8v-44.54c2.97-.15,5.7-.28,8.39-.42v-8.93h-8.42c-.17-3.06-.32-5.8-.5-9.05h-9v-8.58h-8.88v8.82h-8.94c0-6.05,0-12.09,0-18.14,5.98,0,11.96,0,18.01,0v-9.01c12.04,0,24.09,0,36.13,0,0,5.98.02,11.97.02,17.95,0,0,.14-.16.14-.16-3.1.12-6.19.24-9.29.36,0-2.92,0-5.84,0-8.77h-8.61v8.63h8.74v54.24h-8.87v8.57h17.92v-8.82h8.94c-.05,6.05-.09,12.1-.14,18.14l.16-.14Z"/>
      <path d="M289.93,127.91v8.92h8.99v18.23l.16-.14h-9.24v-8.85c-3.31,0-6.1,0-8.89,0,0-2.93,0-5.85,0-8.73h-26.55v17.4h8.75v-8.81h17.94v9.29h-9.28v8.86h-17.89v8.96l.15-.15c-6.04,0-12.07,0-18.11,0l.15.15v-9.29h8.66v-8.87h-35.82c0-3.33,0-6.14,0-8.95,8.93,0,17.86,0,27.31,0v-9.08h8.46v-18.06h-17.42v-8.88h17.96v-8.63h8.86v17.78h8.97l-.14-.14v8.75h9.14v-8.75l-.14.14h9.24v9h8.9l-.14-.16Z"/>
      <path d="M65.08,110.07v-8.89h9.02v-9.24l-.15.15h8.88v9c3.41,0,6.32,0,9.24,0,0,0-.14-.16-.14-.16v18.23h18.14c0,3.31,0,6.11,0,8.91-5.92,0-11.84,0-17.74,0v8.87h17.74v18.29h-26.82v8.89h26.82v8.96c-12.04,0-24.09,0-36.13,0,0-2.88,0-5.75,0-9.01h-9.01v-9.3h8.83v-8.88h-17.68v-8.96l-.14.14h18c0-3.59,0-6.36,0-9.14,2.93,0,5.85,0,8.75,0v-8.86c-3.14,0-5.94,0-8.74,0,0-2.88,0-5.75,0-9.14h-9.01l.16.15Z"/>
      <path d="M73.63,73.76H11.28V11.41h62.35v62.34ZM20.18,64.63h44.59V20.28H20.18v44.35Z"/>
      <path d="M425.24,73.62V11.29h62.34v62.33h-62.34ZM434.21,64.66h44.41V20.25h-44.41v44.41Z"/>
      <path d="M11.25,487.63v-62.35h62.34v62.35H11.25ZM20.25,434.21v44.49h44.41v-44.49H20.25Z"/>
      <path d="M109.92,425.06v-9.15c9.22,0,18.09,0,26.96,0,0,0-.16-.14-.16-.14.14,2.81.29,5.63.46,8.98h8.47v18.04h-8.42v18.11h-9.28l.15.15v-8.73h-17.94v26.59h-9.22l.14.16v-18.14h-9.14l.16.14v-26.78h8.74v-9.37c3.4,0,6.32,0,9.23,0,0,5.91,0,11.83,0,17.76h8.62v-17.62h-8.75Z"/>
      <path d="M326.07,469.91c-3.04.05-6.09.11-9.13.16,0-2.92,0-5.84,0-9.19h-8.84v-8.52h-8.87v8.37c3.16,0,6.08,0,9,0,0,3.03,0,6.06,0,9.19h8.86v17.72h-8.91v-8.47h-18.1c0-12.44,0-24.36,0-36.27l-.14.16h17.74v-9.14h-17.74l.14.14v-18.14l-.14.14,9.14-.14v9.01h18.01v8.73h18.07v-8.34h8.47v17.78h-26.35v9.05h8.67v17.92l.14-.16Z"/>
      <path d="M92.09,56.05v-8.88h-8.76v-27.07h8.73l-.15-.15v17.73h8.87c.15-2.75.3-5.48.48-8.56h17.58v-8.8h8.91v17.5h-8.47v8.95h17.5v-8.42h9.03v8.45h17.84v9.02h-17.43v18.1c-3.44,0-6.37,0-9.29,0,0,0,.14.16.14.16v-9.14h-9.14l.16.14v-8.94h-17.8c-.18-3.22-.34-5.95-.5-8.9h-8.57v8.67h-9.28l.15.15Z"/>
      <path d="M325.93,38.09h8.92v-8.99h27.21l-.15-.15v17.87h-8.83c0,6.42,0,12.33,0,18.24-2.92,0-5.84,0-8.77,0v8.61h8.63v-8.74h8.72v18.04h-17.57v8.67h-9.17c0-11.89,0-23.79,0-35.68,2.92,0,5.84,0,8.77,0v-8.61h-8.63v8.74c-6.04-.05-12.09-.11-18.13-.16,0,0,.14.16.14.16v-9.24h9v-8.9l-.14.16Z"/>
      <path d="M163.91,388.93v8.92h-8.89v17.93c-6.44,0-12.37,0-18.3,0,0,0,.16.14.16.14,0-2.8,0-5.59,0-8.69-2.95-.16-5.68-.31-8.62-.47v-8.58h8.82c0-9.43,0-18.35,0-27.27,0,0-.14.16-.14.16h9.14v-9.14l-.14.14h8.75v-9.14h-8.75l.14.14c0-3.05,0-6.1,0-9.14l-.14.14h18.14s-.14-.14-.14-.14v27.14l.14-.14h-8.75v18.14h8.75l-.16-.14Z"/>
      <path d="M109.95,74.09h8.9v-9.02c3.41,0,6.32,0,9.24,0,0,0-.16-.14-.16-.14v9.14h9.14s-.14-.16-.14-.16c0,5.78,0,11.57,0,17.87h8.91v18.29c3.4,0,6.33,0,9.25,0,0,0-.16-.14-.16-.14v9.14l.14-.14h-18.31v-9.14h-8.88v-8.86h-35.95s.14.16.14.16c0-2.81,0-5.62,0-8.96h35.67v-8.89h-17.65v-9.29l-.15.15Z"/>
      <path d="M298.91,155.07h18.01c0,3.16,0,6.09,0,9.01,0,0,.14-.16.14-.16h-8.75v9.14h8.75l-.14-.14v18.14h9.14l-.14-.14v27.14l.14-.14h-17.65v-9.12h8.27v-9.07h-8.84v-17.88h-8.78v-26.94l-.16.14Z"/>
      <path d="M20.07,316.91h-8.72v-35.74h17.74v-9.25l-.16.14h9.23v18.03h8.91l-.15-.15v9.29h-9.12v8.87h-17.86v8.97l.14-.16ZM28.77,298.81v-8.54h-8.45v8.54h8.45Z"/>
      <path d="M452.06,92.1v-8.74h26.85v8.71l.16-.14h-8.75v9.14h8.75l-.16-.14v8.94h8.78v17.88h-8.5v-8.46h-9.03v8.31h-8.99v-35.64c-3.4,0-6.33,0-9.26,0,0,0,.15.15.15.15Z"/>
      <path d="M38.05,406.91h-17.81c-.14-2.95-.27-5.68-.41-8.74h-8.43v-27.01h8.42v-8.73h8.83v17.38h-8.28v9.05h8.35c.18,3.24.32,5.97.49,8.97,3.17.14,6.12.27,9.07.41,0,0-.16-.14-.16-.14-.07,3-.14,5.98-.22,8.97l.15-.15Z"/>
      <path d="M344.07,478.91h-18v-9s-.14.16-.14.16h9.27v-18h26.87s-.14-.16-.14-.16c0,2.8,0,5.59,0,8.9h-9.01v9.26l.16-.14h-9.14v9.14l.14-.16Z"/>
      <path d="M136.91,470.21h8.87v8.55h17.86v8.95h-44.24v-8.64h17.51v-8.86Z"/>
      <path d="M47.07,110.09v-8.95h-17.78c-.18-3.23-.34-5.95-.51-9.02h-8.39v-8.79h17.45v8.49h18.08v18.26l.16-.15h-9.14l.14.16Z"/>
      <path d="M164.23,19.72c-2.81.14-5.62.28-9,.45-.13,2.66-.27,5.38-.43,8.46h-17.47V11.28h26.76c0,3.03,0,5.82,0,8.6,0,0,.14-.16.14-.16Z"/>
      <path d="M389.09,29.07v-8.91h-8.76v-8.88h17.39v8.57h9.18v18.22s.15-.15.15-.15c-3.05,0-6.09.01-9.14.02,0,0,.16.14.16.14v-9.14h-9.14l.16.14Z"/>
      <path d="M308.09,38.07V11.35h8.74v17.42h9.1v9.31s.14-.16.14-.16c-6.05,0-12.1,0-18.14,0l.16.14Z"/>
      <path d="M191.09,20.07v-8.73h35.84c0,2.9,0,5.82,0,8.74,0,0,.14-.16.14-.16-12.05,0-24.1,0-36.14,0l.16.14Z"/>
      <path d="M461.07,335.09v-8.74h26.65v8.43h-8.79v9.31s.14-.16.14-.16h-9.14l.14.14v-9.14h-9.14l.14.16Z"/>
      <path d="M262.76,479.36v8.36h-26.52v-8.36h26.52Z"/>
      <path d="M19.91,325.95v26.72h-8.65v-26.57h8.8l-.15-.15Z"/>
      <path d="M352.91,470.07h8.72v17.58h-17.57v-8.74s-.14.16-.14.16h9.14v-9.14l-.16.14Z"/>
      <path d="M352.72,100.77v17.98h-8.52v-8.53c-3.22-.16-5.95-.29-8.92-.43v-8.88c5.8,0,11.7,0,17.6,0,0,0-.16-.14-.16-.14Z"/>
      <path d="M65.24,415.64v-8.37h26.52v8.37h-26.52Z"/>
      <path d="M182.09,388.93c-6.06,0-12.12,0-18.17,0,0,0,.16.14.16.14v-18.14l-.14.14h9.24v9h8.9l-.14-.14c0,3.05,0,6.1,0,9.14l.16-.14Z"/>
      <path d="M370.94,91.9v8.88c-6.17,0-12.19,0-18.22,0,0,0,.16.14.16.14,0-2.78,0-5.56,0-8.86,6.41,0,12.31,0,18.22,0,0,0-.15-.15-.15-.15Z"/>
      <path d="M487.64,442.76h-8.36v-17.52h8.36v17.52Z"/>
      <path d="M163.94,451.9v8.73h-17.59v-8.58c5.95,0,11.84,0,17.74,0,0,0-.15-.15-.15-.15Z"/>
      <path d="M91.94,55.9v17.7h-8.6v-17.55c2.92,0,5.83,0,8.75,0,0,0-.15-.15-.15-.15Z"/>
      <path d="M469.93,191.08h17.7v8.84c-5.89,0-11.8,0-17.71,0,0,0,.16.14.16.14v-9.14l-.15.16Z"/>
      <path d="M20.06,326.1c0-3.06,0-6.12.01-9.19,0,0-.14.16-.14.16h18v9s.16-.14.16-.14c-6.06,0-12.12.01-18.18.02,0,0,.15.15.15.15Z"/>
      <path d="M298.77,38.28c3.1-.07,6.21-.14,9.31-.21,0,0-.16-.14-.16-.14v18.14l.14-.16h-9.16c0-6.04,0-11.91,0-17.79,0,0-.14.16-.14.16Z"/>
      <path d="M92.07,478.91h-8.72v-17.84c2.91,0,5.82,0,8.73,0,0,0-.16-.14-.16-.14v18.14l.14-.16Z"/>
      <path d="M226.91,469.93v17.7h-8.84c0-5.89,0-11.8,0-17.71,0,0-.14.16-.14.16h9.14l-.16-.14Z"/>
      <path d="M371.42,470.21h8.25v17.49h-8.25v-17.49Z"/>
      <path d="M199.94,478.9v8.73h-17.59v-8.58c5.95,0,11.84,0,17.74,0,0,0-.15-.15-.15-.15Z"/>
      <path d="M479.06,155.1v-17.7h8.6v17.55c-2.92,0-5.83,0-8.75,0,0,0,.15.15.15.15Z"/>
      <path d="M362.06,29.1V11.4h8.6v17.55c-2.92,0-5.83,0-8.75,0,0,0,.15.15.15.15Z"/>
      <path d="M326.23,19.73v-8.38h17.45v8.38h-17.45Z"/>
      <path d="M290.05,28.91h-8.72V11.26h8.57v17.8l.15-.15Z"/>
      <path d="M92.06,20.1v-8.72h8.6v8.57c-2.93,0-5.84,0-8.75,0,0,0,.15.15.15.15Z"/>
      <path d="M20.07,262.91h-8.71v-8.84c2.9,0,5.81,0,8.72,0,0,0-.16-.14-.16-.14,0,3.05,0,6.1,0,9.14l.14-.16Z"/>
      <path d="M29.09,271.93h-9.01c0-3.15,0-6.08,0-9.01,0,0-.14.16-.14.16h9v9l.16-.14Z"/>
      <path d="M469.93,181.92c0,3.06,0,6.11,0,9.17,0,0,.15-.16.15-.16h-8.71v-8.86h8.71l-.15-.16Z"/>
      <path d="M352.93,137.09c3.05,0,6.1,0,9.16-.01,0,0-.16-.15-.16-.15v9.14l.14-.14c-3.05,0-6.1,0-9.14,0l.14.14v-9.14l-.14.16Z"/>
      <path d="M344.07,137.09v-8.72h8.86v8.72s.14-.16.14-.16c-3.05,0-6.1,0-9.14,0l.14.16Z"/>
      <path d="M47.09,370.93h-8.72v-8.86h8.72s-.16-.14-.16-.14v9.14l.16-.14Z"/>
      <path d="M55.92,110.07c3.06,0,6.11,0,9.17,0,0,0-.16-.15-.16-.15.05,3.05.09,6.1.14,9.14-3.05-.05-6.09-.1-9.14-.14l.14.14v-9.14l-.16.15Z"/>
      <path d="M20.1,109.94h-8.72v-8.6h8.57c0,2.93,0,5.84,0,8.75,0,0,.15-.15.15-.15Z"/>
      <path d="M478.91,92.07h8.72v8.86c-2.89,0-5.81,0-8.72,0,0,0,.16.14.16.14v-9.14l-.16.14Z"/>
      <path d="M118.9,380.06h8.72v8.59h-8.57c0-2.93,0-5.84,0-8.75,0,0-.15.15-.15.15Z"/>
      <path d="M478.91,389.07h8.72v8.86c-2.89,0-5.81,0-8.72,0l.16.14v-9.14l-.16.14Z"/>
      <path d="M37.9,407.06h8.72v8.59h-8.57c0-2.93,0-5.84,0-8.75,0,0-.15.15-.15.15Z"/>
      <path d="M74.1,91.94h-8.72v-8.6h8.57c0,2.93,0,5.84,0,8.75,0,0,.15-.15.15-.15Z"/>
      <path d="M478.9,407.06h8.72v8.59h-8.57c0-2.93,0-5.84,0-8.75,0,0-.15.15-.15.15Z"/>
      <path d="M316.77,65.28h8.96v8.31h-8.82c0-2.7,0-5.59,0-8.47,0,0-.14.16-.14.16Z"/>
      <path d="M307.91,64.95v8.68h-8.57v-8.53h8.72l-.15-.15Z"/>
      <path d="M281.24,73.63v-8.35h8.35v8.35h-8.35Z"/>
      <path d="M110.1,73.94h-8.72v-8.6h8.57c0,2.93,0,5.84,0,8.75,0,0,.15-.15.15-.15Z"/>
      <path d="M308.06,65.1c0-3.06,0-6.12.01-9.19,0,0-.14.16-.14.16h9.14s-.14-.16-.14-.16c-.05,3.12-.1,6.24-.15,9.36,0,0,.14-.16.14-.16-3.01-.05-6.01-.11-9.01-.17,0,0,.15.15.15.15Z"/>
      <path d="M406.9,38.06h8.72v8.59h-8.57c0-2.93,0-5.84,0-8.75,0,0-.15.15-.15.15Z"/>
      <path d="M379.72,37.77v8.96h-8.31v-8.82c2.7,0,5.59,0,8.47,0,0,0-.16-.14-.16-.14Z"/>
      <path d="M127.94,460.9v8.72h-8.59v-8.57c2.93,0,5.84,0,8.75,0,0,0-.15-.15-.15-.15Z"/>
      <path d="M235.93,460.91v9.01c-3.15,0-6.08,0-9.01,0,0,0,.16.14.16.14v-9h9l-.14-.16Z"/>
      <path d="M389.09,37.93c-3.12-.05-6.24-.1-9.36-.15,0,0,.16.14.16.14,0-2.77,0-5.54,0-8.84,3.39,0,6.3,0,9.21,0,0,0-.16-.14-.16-.14v9.14l.16-.14Z"/>
      <path d="M289.9,29.06h8.88c0,3.16,0,6.19,0,9.22,0,0,.14-.16.14-.16-2.78,0-5.54,0-8.86,0,0-3.39,0-6.3,0-9.22,0,0-.15.15-.15.15Z"/>
      <path d="M100.93,478.91v8.72h-8.86c0-2.89,0-5.81,0-8.72,0,0-.14.16-.14.16h9.14l-.14-.16Z"/>
      <path d="M182.07,29.09v-9.01c3.15,0,6.08,0,9.01,0,0,0-.16-.14-.16-.14v9.14l.14-.14h-9.14l.14.16Z"/>
      <path d="M173.1,28.94h-8.88c0-3.16,0-6.19,0-9.22,0,0-.14.16-.14.16,2.78,0,5.54,0,8.86,0,0,3.39,0,6.3,0,9.22,0,0,.15-.15.15-.15Z"/>
      <path class="cls-1" d="M299.07,154.93v26.94h8.78v17.88h8.84v9.07h-8.27v9.12h17.65v8.74h17.76v-8.31h18.26c0,2.84,0,5.77,0,8.7-2.91,0-5.82,0-8.75,0v8.57h8.6v-8.72h8.74v26.94h-8.75v18.23s.14-.13.14-.13h-9v9.15h-9.24v-9c-3.3,0-6.09,0-8.88,0,0-2.91,0-5.82,0-8.75h-8.57v8.59h8.72v17.99h-9.17l.14.14v-9.27h-17.84v-8.6c2.96-.16,5.69-.3,8.39-.45v-8.86h-8.41c-.17-3.07-.32-5.8-.5-9.04h-8.34v-9.03h17.27v-9.02h-17.82v-8.47h-9v17.44h-8.62c-.16-2.94-.31-5.67-.48-8.91h-8.8v-8.95c2.93,0,5.86,0,9.01,0v-18.01c3.04,0,6.08,0,9.12,0,0,2.91,0,5.82,0,8.75h8.57v-8.59h-8.72v-17.65h-27.07v8.73h-8.75v8.95h-9.25v18c-6.31,0-12.1,0-17.89,0,0-2.93,0-5.86,0-9.28h8.83v-8.52h-17.85v8.36h-8.99c0-6.14,0-11.93,0-17.71,2.91,0,5.82,0,8.75,0v-8.57h-8.6v8.72c-3.04,0-6.09,0-9.13-.01,0-2.91,0-5.83,0-8.72h-8.86v8.72h-8.78v-27.29h8.78v-17.86l-.14.14h9.14v-9.14l-.14.14h9.14l-.14-.13v8.95h35.82v8.87h-8.66c0,3.44,0,6.37,0,9.29-5.93,0-11.86,0-17.68,0v9.12h8.73v17.41h17.55v-8.73h-8.75v-17.95c6.04,0,12.07,0,18.11,0,0,2.91,0,5.82,0,8.75h8.57v-8.6h-8.72v-8.96h17.89v-8.86h9.28v-9.29l-.14.14h8.89v8.85h9.24ZM352.72,245.35h-26.48v8.65h17.9v8.76h8.57v-17.41ZM200.28,164.25v17.41h8.35v-17.41h-8.35ZM289.58,181.8v-8.52h-8.25v8.52h8.25Z"/>
      <path class="cls-1" d="M380.07,343.93c-12.04,0-24.09,0-36.13,0l.13.14v-8.64h-27.26v8.27h-17.45v-8.86h8.29v-26.89h-35.72l.14.14v-9h-9.15v-18.31h-8.67v-8.87h26.83v-8.95l-.14.14h9.29v9.05h8.5v18.04h-8.48v8.53h26.88v-8.63h8.94l-.14-.14v18.32h-8.64v17.4h17.77v-8.68h18.04v-18.05c3.35,0,6.16,0,8.97,0v8.68h18.1v-8.72h17.9v-8.94l-.13.14h17.87v9.01h9.26l-.14-.14v8.94h8.83v27.06h-8.83c0,3.26,0,6.19,0,9.12l.14-.13c-6.05,0-12.09,0-18.14,0l.14.14v-9.24h8.84c0-3.3,0-6.09,0-8.88,2.91,0,5.82,0,8.75,0v-8.57h-8.59v8.72h-9.27v-17.83h-8.54c-.17,2.95-.32,5.68-.5,8.91h-17.81v26.89l.13-.14ZM361.63,334.76v-8.35h-8.35v8.35h8.35Z"/>
      <path class="cls-1" d="M470.07,182.07h-8.71v8.86h8.71v9.14h-9.15v35.99l.14-.14h-8.93v-8.85h-26.89v-8.84h8.4v-9.02h-8.37v-9.02h-9.34v-18.28h8.9v8.98c3.4,0,6.31,0,9.23,0,0,2.91,0,5.82,0,8.75h17.55v-8.6h-17.7c0-5.98,0-11.96,0-17.95,0,0-.13.15-.13.15h36.3v8.82ZM443.42,209.2v8.52h8.25v-8.52h-8.25Z"/>
      <path class="cls-1" d="M343.93,181.93h17.71v-8.68c-2.75-.14-5.48-.28-8.42-.44v-8.46h17.62v26.58h18.24v8.96h17.68v26.88h-17.83v9.29l.14-.14h-8.75v-17.74h8.28v-9.05h-8.43v-8.73h-9.05v8.35h-8.91v-17.41h-9.05v17.29h-9.23v-26.71Z"/>
      <path class="cls-1" d="M388.93,191.07c.05-3.04.1-6.09.15-9.13,0,0-.14.14-.14.14h8.71v-26.89h-8.57v-9.24l-.14.14h17.86v-9.15h9.27v26.95h-8.78v8.88h8.78v9.31h-8.91v9h-18.24Z"/>
      <path class="cls-1" d="M442.75,262.79h-26.41v-26.49h26.41v26.49ZM433.8,245.42h-8.52v8.25h8.52v-8.25Z"/>
      <path class="cls-1" d="M397.92,271.94c0,6.04,0,12.09.01,18.13,0,0,.13-.14.13-.14-9.05.05-18.09.1-27.14.15,0-2.93,0-5.86,0-9.01h-9.01c.05-3.05.1-6.09.15-9.14,0,0-.14.13-.14.13,12.04,0,24.09,0,36.13.01,0,0-.14-.14-.14-.14Z"/>
      <path class="cls-1" d="M443.07,352.93c-.05,3.05-.1,6.09-.14,9.14l.14-.13h-26.79v-9.1h8.79v-8.9l-.14.13h8.9v8.86h9.24Z"/>
      <path class="cls-1" d="M326.07,191.07h-9.14v-18.14h27.14v9.14h-18v9Z"/>
      <path class="cls-1" d="M460.92,236.06h8.76v26.62h-8.62c0-8.94,0-17.85,0-26.76,0,0-.14.14-.14.14Z"/>
      <path class="cls-1" d="M325.93,218.07v-27.14h8.75v27.14h-8.75Z"/>
      <path class="cls-1" d="M443.21,280.75v-8.42h26.5v8.42h-26.5Z"/>
      <path class="cls-1" d="M461.07,343.93v9.14h-18.14v-9.14h18.14Z"/>
      <path class="cls-1" d="M398.06,272.08v-17.73h8.63v17.59c-2.93,0-5.85,0-8.77,0,0,0,.14.14.14.14Z"/>
      <path class="cls-1" d="M388.92,236.06h8.74v8.63h-8.61c0-2.93,0-5.85,0-8.77,0,0-.14.14-.14.14Z"/>
      <path class="cls-1" d="M425.06,299.08v-8.74h8.63v8.61c-2.93,0-5.85,0-8.77,0,0,0,.14.14.14.14Z"/>
      <path class="cls-1" d="M460.93,334.93h9.14v9.14h-9.14v-9.14Z"/>
      <path class="cls-1" d="M73.93,173.07c12.04,0,24.09,0,36.13,0,0,0-.13-.14-.13-.14v8.98c6.55,0,12.35,0,18.14,0,0,3.06,0,6.11,0,9.17h-17.67v9.06h8.33v18.03h-8.32v17.52h8.7v-8.79c3.32,0,6.13,0,8.93,0,0,2.91,0,5.82,0,8.75h8.57v-8.6h-8.72v-18.13h18.19v17.99c3.38,0,6.18,0,8.99,0,0,2.91,0,5.83,0,8.72h8.86v-8.72h9.3v8.81h17.53c.16-2.96.32-5.69.47-8.41h17.86c0,3.14,0,5.95,0,8.76-2.91,0-5.83,0-8.72,0v8.86h8.72c0,3.05,0,6.1,0,9.14-2.93,0-5.86,0-9.01,0v9.01h-26.69v17.83c9.14,0,17.92,0,26.69,0,0,2.93,0,5.86,0,9.01h9.01v9.25h-9.15v8.89l.13-.14c-6.04,0-12.09,0-18.13,0l.13.14v-17.69h-9.14v17.69l.13-.14c-3.04,0-6.08,0-9.13,0l.14.14v-17.78c-3.5,0-6.4,0-9.3,0,.05-3.11.09-6.22.13-9.33,2.91,0,5.82,0,8.75,0v-8.57h-8.59v8.72h-9.27v-8.84h-8.48v17.86h17.6v8.8h-26.98s.13.14.13.14v-9.14h-9.14l.14.13v-8.96h8.63v-17.7h-8.48c-.13,2.65-.26,5.39-.41,8.36h-8.62v-26.62h-9.22v-26.91h-8.86v8.52h-8.9v-17.68h-18.3c0-3.04-.01-6.08-.02-9.12,2.91,0,5.82,0,8.75,0v-8.57h-8.6v8.72h-8.99c0-6.29,0-12.23,0-18.17,0,0-.14.13-.14.13h18.14v-9.14l-.13.14ZM145.7,262.77v-17.43h-17.29v8.82h8.72v8.6h8.57ZM164.21,253.61h8.53v-8.3h-8.53v8.3ZM83.22,199.73h8.47v-8.38h-8.47v8.38Z"/>
      <path class="cls-1" d="M28.93,272.07v-9h-9c0-3.05,0-6.1,0-9.14h8.93v-8.67h17.91v8.52h-8.42v9.01h8.4v9.01h36.34c0,3.4,0,6.32,0,9.25-5.9,0-11.79,0-17.74,0v8.58h17.59v-8.73h8.75v27.03h-17.75l.13.14v-8.68h-18.19v8.41c-3.05.17-5.78.32-8.51.47v8.81h17.7l-.14-.14c0,3.05,0,6.09,0,9.14l.13-.14h-8.95v17.83h-8.89v-17.68h-9.29v-9h-18v-8.97h17.86v-8.87h9.12c0-3.44,0-6.36,0-9.29,2.91,0,5.82,0,8.75,0v-8.57h-8.59v8.72h-8.91v-18.03h-9.23Z"/>
      <path class="cls-1" d="M100.93,325.93h17.67v-8.76h-8.53v-9.23l-.14.13h9.14v-9.14l-.14.14h9.14s-.13-.14-.13-.14v8.92h8.8v27.13h-26.47v8.81h8.66v9.27l.14-.14h-8.92v8.9h-8.84v8.85h-9.11c-.12-2.67-.25-5.41-.39-8.47h-8.42v-9.04h17.56v-27.23Z"/>
      <path class="cls-1" d="M182.07,380.07h-8.9v-9h-9.24v-27.14h8.98v17.78h8.87v-8.41h9.06v8.47h18.24v9.31h-27v9Z"/>
      <path class="cls-1" d="M245.07,397.93c-2.98.06-5.97.11-8.96.16,0,0,.15.13.15.13v-17.98h-27.33v-9.31h18.14v-8.99l-.14.13h18v36s.13-.14.13-.14Z"/>
      <path class="cls-1" d="M209.07,343.93h-8.94v-17.64c-3.23-.18-5.95-.33-8.9-.49v-8.58h8.84c0-3.43,0-6.35,0-9.28,0,0-.13.14-.13.14,9.04,0,18.09,0,27.13.01l-.14-.14v9.24h-17.51v8.98h8.31v9h-8.79v8.9l.13-.14Z"/>
      <path class="cls-1" d="M73.93,317.07h27.14v9h-18.15v8.99l.14-.14h-17.99c0-3.13,0-6.06,0-9,0,0-.13.14-.13.14h9.14v-9.14l-.13.14Z"/>
      <path class="cls-1" d="M227.07,361.93h-8.88v-8.77h-9.12v-9.23s-.13.14-.13.14h18v18l.14-.13Z"/>
      <path class="cls-1" d="M164.07,344.07h-18.14v-17.7h8.88v8.46h9.27v9.24Z"/>
      <path class="cls-1" d="M46.93,371.07v-9.14h26.73v9.14h-26.73Z"/>
      <path class="cls-1" d="M163.94,307.92v8.75h-17.63v-8.62c5.94,0,11.85,0,17.76,0,0,0-.14-.14-.14-.14Z"/>
      <path class="cls-1" d="M181.93,307.93v8.75h-8.87c0-2.9,0-5.82,0-8.75l-.13.14h9.14l-.13-.14Z"/>
      <path class="cls-1" d="M82.92,335.06h8.74v8.63h-8.61c0-2.93,0-5.85,0-8.77,0,0-.14.14-.14.14Z"/>
      <path class="cls-1" d="M182.16,343.62v-8.32h8.59v8.32h-8.59Z"/>
      <path class="cls-1" d="M65.2,352.67v-8.42h8.42v8.42h-8.42Z"/>
      <path class="cls-1" d="M146.07,343.93c0,3.05,0,6.1,0,9.14h-8.75v-9.14h8.75Z"/>
      <path class="cls-1" d="M118.92,353.06h8.74v8.63h-8.61c0-2.93,0-5.85,0-8.77,0,0-.14.14-.14.14Z"/>
      <path class="cls-1" d="M145.93,352.93h8.75v9.14h-8.75v-9.14Z"/>
      <path class="cls-1" d="M146.07,361.93v9.14h-9.14v-9.14h9.14Z"/>
      <path class="cls-1" d="M46.92,380.06h8.74v8.63h-8.61c0-2.93,0-5.85,0-8.77,0,0-.14.14-.14.14Z"/>
      <path class="cls-1" d="M290.07,406.93h-45c0-3.18,0-6.09,0-9,0,0-.13.14-.13.14h17.65v-9.25h-8.27v-9.06h8.84v-8.59c3.07-.14,5.81-.27,8.46-.39v-8.93h-8.71v-17.93h-8.95l.14.14c0-6.04,0-12.08,0-18.12l-.14.14h8.97v-18.15c3.05.05,6.1.09,9.15.14l-.14-.14v18.31h9.28v8.88h8.88v17.96c-2.91,0-5.83,0-8.73,0v17.86h8.73v9.32h-8.79v17.86h8.64v8.96l.13-.14Z"/>
      <path class="cls-1" d="M209.06,434.1h-9.16c0-12.22,0-24.1,0-35.99,0,0-.13.15-.13.15h8.96v8.55h9.03c.16,3.23.3,5.96.46,9.02h8.41v26.83h-17.74c0-2.86,0-5.78,0-8.71,2.91,0,5.82,0,8.75,0v-8.57h-8.59v8.72Z"/>
      <path class="cls-1" d="M262.7,442.92h-26.32v-26.58h26.32v26.58ZM245.29,425.25v8.42h8.33v-8.42h-8.33Z"/>
      <path class="cls-1" d="M290.07,415.93v18.14h-17.74v-18.14h17.74Z"/>
      <path class="cls-1" d="M236.07,461.07h-9v9h-9.14v-17.74h18.14v8.74Z"/>
      <path class="cls-1" d="M289.93,433.93h17.74v9.14h-17.74v-9.14Z"/>
      <path class="cls-1" d="M190.77,443.26h9.01v17.36h-8.88c0-5.71,0-11.61,0-17.51,0,0-.13.15-.13.15Z"/>
      <path class="cls-1" d="M181.93,389.07c0-3.05,0-6.1,0-9.14h8.99v9.13l.14-.14c-3.04.05-6.09.1-9.13.15Z"/>
      <path class="cls-1" d="M190.92,389.06h8.86c0,3.13,0,6.16,0,9.19,0,0,.13-.15.13-.14-2.78,0-5.56,0-8.85,0,0-3.35,0-6.27,0-9.19,0,0-.14.14-.14.14Z"/>
      <path class="cls-1" d="M227.06,397.92h-8.73v-8.61h8.59v8.75l.14-.14Z"/>
      <path class="cls-1" d="M226.92,398.06c3.11.05,6.22.1,9.33.16,0,0-.15-.13-.14-.13,0,2.78,0,5.55,0,8.62h-9.05c0-2.97,0-5.88,0-8.79,0,0-.14.14-.14.14Z"/>
      <path class="cls-1" d="M299.07,415.93c-3.05.05-6.09.1-9.14.14.05-3.05.09-6.1.14-9.14,0,0-.13.14-.13.14h9v9l.13-.14Z"/>
      <path class="cls-1" d="M182.26,443.23v-9h8.53c0,2.93,0,5.97,0,9.02,0,0,.13-.15.13-.14-2.94,0-5.87,0-8.8-.01,0,0,.15.13.15.13Z"/>
      <path class="cls-1" d="M173.06,452.08v-8.86c3.13,0,6.16,0,9.19,0,0,0-.15-.13-.14-.13,0,2.78,0,5.56,0,8.85-3.35,0-6.27,0-9.19,0,0,0,.14.14.14.14Z"/>
      <path class="cls-1" d="M271.94,451.92v8.74h-8.63v-8.61c2.93,0,5.85,0,8.77,0,0,0-.14-.14-.14-.14Z"/>
      <path class="cls-1" d="M380.09,361.88c0-5.98-.02-11.97-.02-17.95,0,0-.13.14-.13.14,9.05,0,18.09,0,27.14,0l-.14-.14v27.25h9v26.89l.13-.14h-18.14c0,3.29,0,6.22,0,9.14l.14-.13c-2.99-.02-5.99-.04-8.98-.06v-8.47h-8.82v8.31c3.15,0,6.05,0,8.96,0-.1,3.12-.2,6.23-.29,9.34l.13-.14h-8.94v8.82h-17.92v-8.57h8.87v-54.24l-.14.14c3.1-.12,6.19-.24,9.28-.35,0,2.93,0,5.85,0,8.99,3.17,0,6.09,0,9,0-.05,3.11-.09,6.22-.13,9.33-2.91,0-5.82,0-8.75,0v8.57h8.59v-8.72h8.73v-9.02h-8.58c.01-2.93.02-5.86.04-8.79h8.47v-8.82h-8.31c0,3.15,0,6.05,0,8.96-3.07-.12-6.13-.23-9.19-.35Z"/>
      <path class="cls-1" d="M442.66,442.79h-26.42v-26.41h26.42v26.41ZM425.32,425.11v8.53h8.28v-8.53h-8.28Z"/>
      <path class="cls-1" d="M442.93,362.07h17.74v35.86h-8.74l.13.14v-18h-18.15v-9.25h9.15v-8.89l-.14.13Z"/>
      <path class="cls-1" d="M460.94,451.92v8.96h-17.66c-.17,3.23-.32,5.96-.47,8.9h-26.43v-17.45h8.42c.14,2.72.29,5.45.45,8.41h8.56v-8.68c9.44,0,18.36,0,27.28,0,0,0-.14-.14-.14-.14Z"/>
      <path class="cls-1" d="M388.93,434.07c.05-6.05.09-12.1.14-18.14l-.13.14h9.14v-9.14l-.14.13h8.74v17.73h-8.5v9.27h-9.24Z"/>
      <path class="cls-1" d="M433.93,397.93v8.75h-17.86c0-2.91,0-5.83,0-8.75l-.13.14c6.05,0,12.09,0,18.14,0l-.14-.13Z"/>
      <path class="cls-1" d="M469.93,343.93h9.14v17.74h-9.14v-17.74Z"/>
      <path class="cls-1" d="M443.07,397.93c-3.05,0-6.09,0-9.14,0,0,0,.14.13.14.13-.05-3.05-.1-6.09-.15-9.14h9.02v9.14l.13-.14Z"/>
      <path class="cls-1" d="M479.07,388.93v9.14h-8.75v-9.14h8.75Z"/>
      <path class="cls-1" d="M451.93,397.93v8.75h-8.87v-8.75s-.13.14-.13.14c3.05,0,6.09,0,9.14,0l-.13-.14Z"/>
      <path class="cls-1" d="M263.07,119.07h-8.97v-17.78h-8.86v8.63h-17.96v8.88h17.42v18.06h-8.46v9.08c-9.45,0-18.38,0-27.31,0,0,0,.14.13.14.13v-8.7h-9.14v8.7l.14-.14h-9.14v9.14s.14-.14.14-.14h-9.24v8.7h-8.76v-17.7l-.13.14h8.94v-8.91h8.72v-9.03h-8.33v-9.04h35.35v-8.86c-2.68-.14-5.41-.28-8.37-.43v-8.59h8.7v-9.29h8.95v8.77h8.84v-8.38h27.35v26.75ZM218.43,128.12v8.53h8.18v-8.53h-8.18Z"/>
      <path class="cls-1" d="M290.07,128.07h-8.9v-9h-9.24v-17.94h8.85v-8.74h9.05v8.52h17.94v17.87h-17.69v9.29Z"/>
      <path class="cls-1" d="M236.16,82.62v-26.33h26.59v26.33h-26.59ZM245.21,73.61h8.53v-8.3h-8.53v8.3Z"/>
      <path class="cls-1" d="M190.93,29.07v-9.14c12.05,0,24.1,0,36.14,0,0,5.99.02,11.97.02,17.97,0,0,.13-.15.13-.15-6.1.06-12.19.12-18.29.18l.14.14v-8.99h-18.15Z"/>
      <path class="cls-1" d="M182.07,74.07v-17.74h26.86c0,5.9,0,11.82,0,17.74,0,0,.14-.13.14-.13-3.05.05-6.09.1-9.14.15,0-2.91,0-5.83,0-8.72h-8.86v8.72c-3.05-.05-6.09-.1-9.14-.15l.14.13Z"/>
      <path class="cls-1" d="M218.07,92.07c-6.05-.05-12.09-.1-18.14-.14,0,0,.13.14.13.14-.05-3.05-.09-6.1-.14-9.15h9.14v-8.98s-.14.13-.14.13c3.04,0,6.09,0,9.13.01,0,0-.14-.14-.14-.14.05,6.04.1,12.09.15,18.13Z"/>
      <path class="cls-1" d="M272.07,118.93v8.75h-9.14v-8.75h9.14Z"/>
      <path class="cls-1" d="M182.07,82.93h-9.14v-9c3.05.05,6.1.09,9.14.14,0,0-.14-.13-.14-.13,0,3.05,0,6.09,0,9.14l.13-.14Z"/>
      <path class="cls-1" d="M218.06,74.08v-8.74h8.63v8.61c-2.93,0-5.85,0-8.77,0,0,0,.14.14.14.14Z"/>
      <path class="cls-1" d="M226.92,46.94v8.73h-8.61v-8.59h8.75l-.14-.14Z"/>
      <path class="cls-1" d="M253.77,38.31v8.47h-8.42v-8.47h8.42Z"/>
      <path class="cls-1" d="M227.06,47.08c.05-3.11.1-6.21.16-9.33,0,0-.13.15-.13.14,2.78,0,5.56,0,8.62,0v9.05c-2.97,0-5.88,0-8.79,0,0,0,.14.14.14.14Z"/>
      <path class="cls-1" d="M208.94,37.92v8.74h-8.63v-8.61c2.93,0,5.85,0,8.77,0,0,0-.14-.14-.14-.14Z"/>
      <path class="cls-1" d="M181.93,28.93h9.14v8.75h-9.14v-8.75Z"/>
      <path class="cls-1" d="M415.94,82.92v17.73h-8.63v-17.59c2.93,0,5.85,0,8.77,0,0,0-.14-.14-.14-.14Z"/>
      <path class="cls-1" d="M433.92,163.94c-.05,3.1-.09,6.2-.14,9.31,0,0,.13-.15.13-.14-2.78,0-5.55,0-8.62,0v-9.03h8.77s-.14-.14-.14-.14Z"/>
      <path class="cls-1" d="M460.94,154.92v8.74h-8.63v-8.61c2.93,0,5.85,0,8.77,0,0,0-.14-.14-.14-.14Z"/>
      <path class="cls-1" d="M434.06,164.08v-8.74h8.63v8.61c-2.93,0-5.85,0-8.77,0,0,0,.14.14.14.14Z"/>
      <path class="cls-1" d="M380.06,74.08v-8.74h8.63v8.61c-2.93,0-5.85,0-8.77,0,0,0,.14.14.14.14Z"/>
      <path class="cls-1" d="M388.93,38.07v-9.14h9.14v9.14h-9.14Z"/>
      <path class="cls-1" d="M56.16,262.62v-26.33h26.59v26.33h-26.59ZM65.25,253.71h8.42v-8.33h-8.42v8.33Z"/>
      <path class="cls-1" d="M46.93,227.07v-8.9h-8.65v-9.24h26.79c-.05,3.04-.1,6.09-.15,9.13l.14-.14h-8.88v9.15h-9.25Z"/>
      <path class="cls-1" d="M28.93,226.93h18.14v8.75h-18.14v-8.75Z"/>
      <path class="cls-1" d="M92.38,263.16h8.32v8.59h-8.32v-8.59Z"/>
      <path class="cls-1" d="M64.92,218.06h8.74v8.63h-8.61c0-2.93,0-5.85,0-8.77,0,0-.14.14-.14.14Z"/>
      <path class="cls-1" d="M110.07,299.07v-9c3.25,0,6.12,0,9,0,0,0-.14-.13-.14-.13,0,3.05,0,6.09,0,9.14l.14-.14h-9.14l.14.13Z"/>
      <path class="cls-1" d="M110.07,307.93h-8.75v-8.87c2.9,0,5.82,0,8.75,0,0,0-.14-.13-.14-.13,0,3.05,0,6.09,0,9.14l.14-.13Z"/>
      <path class="cls-1" d="M73.93,307.93c0,3.05,0,6.1,0,9.14,0,0,.13-.14.13-.14h-9.14l.14.14v-9h9l-.13-.14Z"/>
      <path class="cls-1" d="M56.07,136.93v8.96h17.68v8.88h-8.83v9.3l.14-.13c-3.05,0-6.09,0-9.14,0,0,0,.14.14.14.14v-9.14h-9.14l.14.13v-18.14h9Z"/>
      <path class="cls-1" d="M55.93,118.93c3.05.05,6.09.1,9.14.14l-.13-.14v9.14h9.14l-.14-.13v9.14h-18c0-6.05,0-12.1,0-18.14Z"/>
      <path class="cls-1" d="M29.25,145.71v-26.51h8.43v26.51h-8.43Z"/>
      <path class="cls-1" d="M47.08,182.06c0-6.04,0-12.08,0-18.12l-.14.13c3.05,0,6.09,0,9.14,0l-.14-.14c0,6.05,0,12.09,0,18.14,0,0,.14-.13.14-.13-3.04,0-6.09,0-9.13-.01l.14.14Z"/>
      <path class="cls-1" d="M46.94,181.92v8.74h-8.63v-8.61c2.93,0,5.85,0,8.77,0,0,0-.14-.14-.14-.14Z"/>
      <path class="cls-1" d="M47.07,163.93h-8.75v-8.87c2.9,0,5.82,0,8.75,0,0,0-.14-.13-.14-.13,0,3.05,0,6.09,0,9.14l.14-.13Z"/>
      <path class="cls-1" d="M56.07,109.93v9.14h-9.14v-9.14h9.14Z"/>
      <path class="cls-1" d="M389.08,181.94h-8.74v-8.63h8.61c0,2.93,0,5.85,0,8.77,0,0,.14-.14.14-.14Z"/>
      <path class="cls-1" d="M317.07,173.07h-8.75v-9.14h8.75v9.14Z"/>
      <path class="cls-1" d="M335.08,163.61v-8.25h8.6v8.25h-8.6Z"/>
      <path class="cls-1" d="M352.93,145.93c3.05,0,6.1,0,9.14,0v8.75h-9.14v-8.75Z"/>
      <path class="cls-1" d="M389.08,145.94h-8.74v-8.63h8.61c0,2.93,0,5.85,0,8.77,0,0,.14-.14.14-.14Z"/>
      <path class="cls-1" d="M361.93,146.07v-9.14h8.75v9.14h-8.75Z"/>
      <path class="cls-1" d="M343.93,136.93c3.05,0,6.1,0,9.14,0v9.14h-9.14v-9.14Z"/>
      <path class="cls-1" d="M91.93,100.93h35.95v8.86h8.88v9.14h18.31v8.92h-18.14v18.22l.14-.13h-9v9.15h-9.23v17.85h-8.91s.13.14.13.14c0-2.81,0-5.61,0-8.96h-26.82v-8.89h26.82v-18.29l-.14.13h8.98c0-3.52,0-6.32,0-9.12,2.91,0,5.82,0,8.75,0v-8.57h-8.6v8.72c-3.04-.06-6.08-.11-9.13-.17l.14.13v-8.91h-18.14v-18.23Z"/>
      <path class="cls-1" d="M136.93,146.07c6.05,0,12.09,0,18.14,0l-.13-.14v9.15c-6.3,0-12.15,0-18,0,.05-3.05.09-6.1.14-9.15,0,0-.14.13-.14.13Z"/>
      <path class="cls-1" d="M155.07,146.07v-8.75h17.87c0,2.91,0,5.83,0,8.75,0,0,.13-.14.13-.14-6.05,0-12.09,0-18.14,0l.13.14Z"/>
      <path class="cls-1" d="M163.77,119.26h9v8.37h-8.87c0-2.72,0-5.62,0-8.52,0,0-.13.15-.13.15Z"/>
      <path class="cls-1" d="M154.93,119.07v-9.14h8.86c0,3.26,0,6.29,0,9.32,0,0,.13-.15.13-.14-3,0-5.99-.02-8.98-.03Z"/>
      <path class="cls-1" d="M172.77,101.26h9v8.37h-8.87c0-2.72,0-5.62,0-8.52,0,0-.13.15-.13.15Z"/>
      <path class="cls-1" d="M199.93,91.93v8.75h-8.86v-8.74l-.14.13h9.14l-.13-.14Z"/>
      <path class="cls-1" d="M163.92,92.06h8.86c0,3.13,0,6.16,0,9.19,0,0,.13-.15.13-.14-2.78,0-5.56,0-8.85,0,0-3.35,0-6.27,0-9.19,0,0-.14.14-.14.14Z"/>
      <path class="cls-1" d="M191.07,91.93h-9.01c0-3.25,0-6.13,0-9.01,0,0-.13.14-.13.14,3.05-.05,6.09-.1,9.14-.15-.05,3.05-.09,6.1-.14,9.15l.14-.13Z"/>
      <path class="cls-1" d="M362.07,452.07h-26.87v18h-9.27v-17.92h-8.67v-9.05h26.35v-17.78h-8.47v8.34h-18.07v-8.73l-.14.13h9.27v-9.36h17.5v-8.81h-17.38v-17.99c3.13,0,5.93,0,8.74,0,0,2.91,0,5.82,0,8.75h8.57v-8.59h-8.72v-9.23h-8.83v-8.9l-.13.14h8.94v-8.82h8.88v8.58h9c.18,3.24.33,5.98.5,9.05h8.42v8.93c-2.69.13-5.42.27-8.39.42v44.54h8.8v18.32Z"/>
      <path class="cls-1" d="M325.93,352.93c0,6.05,0,12.09,0,18.14l.13-.14h-17.73v-17.86h17.73l-.14-.13Z"/>
      <path class="cls-1" d="M343.93,343.93v9.01c-6.04,0-12.03,0-18.01,0,0,0,.14.13.14.13v-9h18l-.13-.14Z"/>
      <path class="cls-1" d="M371.08,361.94h-8.74v-8.63h8.61c0,2.93,0,5.85,0,8.77,0,0,.14-.14.14-.14Z"/>
      <path class="cls-1" d="M281.08,145.94h-17.94v8.81h-8.75v-17.4h26.55c0,2.88,0,5.8,0,8.73,0,0,.14-.14.14-.14Z"/>
      <path class="cls-1" d="M110.07,136.93h-17.74v-8.87c5.89,0,11.81,0,17.74,0,0,0-.14-.13-.14-.13v9.14l.14-.13Z"/>
      <path class="cls-1" d="M64.93,164.07h9.01c0,3.25,0,6.13,0,9.01,0,0,.13-.14.13-.14h-9v-9l-.14.13Z"/>
      <path class="cls-1" d="M73.93,119.07h8.74v8.86c-2.9,0-5.82,0-8.75,0,0,0,.14.13.14.13v-9.14l-.13.14Z"/>
      <path class="cls-1" d="M65.07,119.07c-.05-3.05-.09-6.1-.14-9.14h9.01c0,3.39,0,6.27,0,9.14,0,0,.13-.14.13-.14-3.05,0-6.09,0-9.14,0l.13.14Z"/>
      <path class="cls-1" d="M20.18,64.63V20.28h44.59v44.35H20.18ZM55.64,55.75v-26.34h-26.36v26.34h26.36Z"/>
      <path class="cls-1" d="M434.21,64.66V20.25h44.41v44.41h-44.41ZM469.62,55.77v-26.34h-26.32v26.34h26.32Z"/>
      <path class="cls-1" d="M20.25,434.21h44.41v44.49H20.25v-44.49ZM29.38,443.24v26.34h26.34v-26.34h-26.34Z"/>
      <path class="cls-1" d="M109.92,425.06h8.75v17.62h-8.62c0-5.94,0-11.85,0-17.76,0,0-.14.14-.14.14Z"/>
      <path class="cls-1" d="M101.07,479.07h-9.14c0-6.05,0-12.1,0-18.14h9.14v18.14Z"/>
      <path class="cls-1" d="M317.07,424.93h-18.01v-9.01s-.13.14-.13.14h18v9l.14-.13Z"/>
      <path class="cls-1" d="M308.23,460.74h-9v-8.37h8.87c0,2.72,0,5.62,0,8.52,0,0,.13-.15.13-.15Z"/>
      <path class="cls-1" d="M317.08,469.94h-8.86c0-3.13,0-6.16,0-9.19,0,0-.13.15-.13.14,2.78,0,5.56,0,8.85,0,0,3.35,0,6.27,0,9.19,0,0,.14-.14.14-.14Z"/>
      <path class="cls-1" d="M137.07,74.07h-9.14v-9.14h9.14v9.14Z"/>
      <path class="cls-1" d="M317.07,56.07h-9.14v-18.14c6.05,0,12.1,0,18.14,0v8.9h-9v9.24Z"/>
      <path class="cls-1" d="M352.94,64.92v8.74h-8.63v-8.61c2.93,0,5.85,0,8.77,0,0,0-.14-.14-.14-.14Z"/>
      <path class="cls-1" d="M335.06,56.08v-8.74h8.63v8.61c-2.93,0-5.85,0-8.77,0,0,0,.14.14.14.14Z"/>
      <path class="cls-1" d="M164.07,370.93v18.14h-8.75v-18.14h8.75Z"/>
      <path class="cls-1" d="M28.77,298.81h-8.45v-8.54h8.45v8.54Z"/>
      <path class="cls-1" d="M479.07,91.93v9.14h-8.75v-9.14h8.75Z"/>
      <path class="cls-1" d="M353.07,469.93v9.14h-9.14v-9.14h9.14Z"/>
      <path d="M253.94,343.92h8.95v17.93h8.71v8.93c-2.65.12-5.38.25-8.46.39v8.59h-8.84v9.06h8.27v9.25h-17.65v-36h-18v-18h-18v-8.9h8.79v-9h-8.31v-8.98h17.51c0-3.41,0-6.32,0-9.24,2.92,0,5.84,0,8.77,0v-8.61h-8.63v8.74c-9.04,0-18.09,0-27.13-.01v-8.89h9.15v-9.25l-.16.14h18c0-3.59,0-6.36,0-9.14h9.23v8.7h8.47v-17.57h-17.7c0-2.88,0-5.75,0-9.01h-9.01v-9.14h-9l.16.14c0-3.05,0-6.1,0-9.14l-.16.14h18.14v-18.14l-.14.16h17.89v-18c3.42,0,6.34,0,9.25,0,0,0-.14-.16-.14-.16v9.23h9.26v8.91h8.88l-.16-.14v8.95h8.8c.18,3.24.32,5.97.48,8.91h8.62v-17.44h9v8.47h17.82v9.02h-17.27v9.03h8.34c.18,3.24.33,5.97.5,9.04h8.41v8.86c-2.7.14-5.43.29-8.39.45v8.6h17.84v9.27h-8.94v8.63h-26.88v-8.53h8.48v-18.04h-8.5v-9.05c-3.44,0-6.36,0-9.29,0,0-2.92,0-5.84,0-8.77h-8.61v8.63h8.74v8.95h-26.83v8.87h8.67v18.31s.16-.14.16-.14h-8.75v9.14h8.75l-.16-.14v18.15c-3.13,0-6.05,0-8.97,0,0-2.92,0-5.84,0-8.77h-18.18v8.81h-8.5v8.61h17.91v-8.79h8.91c0,6.04,0,12.08,0,18.12-2.92,0-5.84,0-8.77,0v8.61h8.63v-8.74ZM262.79,236.34h-26.41v26.41h26.41v-26.41Z"/>
      <path d="M154.93,145.93c6.05,0,12.09,0,18.14,0v17.7h8.76v-8.7h9.24c0,5.78,0,11.56,0,17.86h-8.78v27.29h8.78l-.14-.16v9h-18l.14.14v-18c-6.52,0-12.33,0-18.14,0v-9.14h-9.01l.14.14v-9.15c6.4,0,12.19,0,17.99,0,0,2.92,0,5.84,0,8.77h8.61v-8.63h-8.74v-9.13h-26.99l.14.14c0-3.05,0-6.1,0-9.14l-.14.16h18v-9.15Z"/>
      <path d="M209.09,236.07v-8.76h-17.86c-.15,2.72-.3,5.45-.47,8.41h-17.53v-8.81h-9.3l.14.16v-8.75h-9.14v8.75l.14-.16h-8.99v-17.99l-.16.14h27.14l-.14-.14v8.74h27.14v-17.74l-.14.16c3.04,0,6.09,0,9.13.01l-.15-.15v17.71h8.99v-8.36h17.85v8.52h-8.83c0,3.42,0,6.35,0,9.28,0,0,.14-.16.14-.16h-9.25v9h-8.89l.16.14Z"/>
      <path d="M362.07,298.91h-8.97v18.05h-18.04v8.68h-17.77v-17.4h8.64v-18.32h9.17v-17.99l-.15.15h8.88v9h9.24s-.14-.16-.14-.16v9.14h9.14l-.14-.14v9.14l.14-.16ZM335.28,299.07v8.6h8.35v-8.6h-8.35Z"/>
      <path d="M290.05,208.91c-3.04,0-6.08,0-9.12,0l.14.16v-8.75h-9.14v8.75l.14-.14h-18.14s.14.16.14.16c0-2.81,0-5.61,0-8.95h8.75v-8.73h27.07v17.65l.15-.15Z"/>
      <path d="M235.94,172.9v17.95h8.75v8.73h-17.55v-17.41h-8.73v-9.12c5.82,0,11.75,0,17.68,0,0,0-.15-.15-.15-.15Z"/>
      <path d="M352.72,245.35v17.41h-8.57v-8.76h-17.9v-8.65h26.48Z"/>
      <path d="M200.28,164.25h8.35v17.41h-8.35v-17.41Z"/>
      <path d="M280.93,208.91v18.01c-3.16,0-6.09,0-9.01,0,0,0,.16.14.16.14v-18.14l-.14.14c3.05,0,6.1,0,9.14,0l-.14-.16Z"/>
      <path d="M361.94,226.9v8.72h-8.6v-8.57c2.93,0,5.84,0,8.75,0,0,0-.15-.15-.15-.15Z"/>
      <path d="M335.1,271.94h-8.72v-8.59h8.57c0,2.93,0,5.84,0,8.75,0,0,.15-.15.15-.15Z"/>
      <path d="M289.9,209.06h8.72v8.59h-8.57c0-2.93,0-5.84,0-8.75,0,0-.15.15-.15.15Z"/>
      <path d="M209.06,200.1v-8.72h8.6v8.57c-2.93,0-5.84,0-8.75,0,0,0,.15.15.15.15Z"/>
      <path d="M191.07,200.09v-8.72h8.86c0,2.89,0,5.81,0,8.72,0,0,.14-.16.14-.16-3.05,0-6.1,0-9.14,0l.14.16Z"/>
      <path d="M362.07,271.93c-.05,3.05-.1,6.09-.15,9.14l.16-.14h-9.14s.14.16.14.16v-9.15h9Z"/>
      <path d="M289.58,181.8h-8.25v-8.52h8.25v8.52Z"/>
      <path d="M253.9,173.06h8.72v8.6h-8.57c0-2.93,0-5.84,0-8.75,0,0-.15.15-.15.15Z"/>
      <path d="M190.93,155.07v-9.14h9.14v9.14h-9.14Z"/>
      <path d="M199.93,146.07v-8.7h9.14v8.7h-9.14Z"/>
      <path d="M316.93,425.07v-9h-18v-9h-9v-8.96h-8.64v-17.86h8.79v-9.32l-.16.14h8.75v-18.14h-8.75l.16.14v-17.96h-8.88v-8.88h-9.28v-18.31h35.72v26.89h-8.29v8.86h17.45v-8.27h27.26v8.64h-18v9h-17.73v17.86h17.73v8.9h8.83v9.23l.15-.15h-8.74v17.99h17.38v8.81h-17.5v9.36h-9.27ZM299.18,388.65h17.6v-8.39h-17.6v8.39Z"/>
      <path d="M433.91,388.93c.05,3.05.1,6.09.15,9.14-6.05,0-12.09,0-18.14,0v-26.89h-9v-27.25c6.05,0,12.09,0,18.14,0v8.9h-8.79v9.1h26.79v8.89h-9.15c0,3.41,0,6.33,0,9.25,0,0,.16-.14.16-.14h-8.75v9.14h8.75s-.16-.14-.16-.14Z"/>
      <path d="M407.07,344.07c-9.05,0-18.09,0-27.14,0v-26.89h17.81c.18-3.23.34-5.96.5-8.91h8.54v17.83h9.27l-.15-.15v8.88h-8.84v9.24ZM397.79,326.26h-8.49v8.4h8.49v-8.4Z"/>
      <path d="M370.93,290.09c9.05-.05,18.09-.1,27.14-.15v8.94h-17.9v8.72h-18.1v-8.68s-.14.16-.14.16h9.14v-9.14l-.14.16Z"/>
      <path d="M272.07,308.07c-3.05-.05-6.1-.09-9.15-.14,0,0,.16.14.16.14v-9.14s-.16.14-.16.14h9.15v9Z"/>
      <path d="M416.06,326.1v-8.72h8.59v8.57c-2.93,0-5.84,0-8.75,0,0,0,.15.15.15.15Z"/>
      <path d="M361.63,334.76h-8.35v-8.35h8.35v8.35Z"/>
      <path d="M433.9,191.06h17.7v8.6h-17.55c0-2.92,0-5.83,0-8.75,0,0-.15.15-.15.15Z"/>
      <path d="M443.42,209.2h8.25v8.52h-8.25v-8.52Z"/>
      <path d="M433.8,245.42v8.25h-8.52v-8.25h8.52Z"/>
      <path d="M361.91,281.07h9.01c0,3.15,0,6.08,0,9.01l.14-.16h-9.14l.14.14v-9.14l-.16.14Z"/>
      <path d="M146.09,208.93h-18.19v18.13l.15-.15h-8.93v8.79h-8.7v-17.52h8.32v-18.03h-8.33v-9.06h17.67l-.15-.16v9.01h18.14c-.05,3.05-.1,6.09-.14,9.14l.16-.14Z"/>
      <path d="M200.07,280.91h-26.69v-17.83h26.69l-.14-.16v18.14l.14-.16Z"/>
      <path d="M109.93,172.93h8.91v-17.85c3.4,0,6.31,0,9.23,0,0,0-.14-.16-.14-.16v9.14h9.14l-.14-.14v9.24h-9v8.9l.15-.16h-18.14v-8.98Z"/>
      <path d="M145.7,262.77h-8.57v-8.6h-8.72v-8.82h17.29v17.43Z"/>
      <path d="M154.91,280.95c-.04,3.11-.08,6.21-.13,9.33,0,0,.14-.16.14-.16-5.77,0-11.54,0-17.6,0v-17.86h8.48v8.84h9.27l-.15-.15Z"/>
      <path d="M65.07,163.93v9h9v9.14h-18.14c0-6.05,0-12.09,0-18.14,3.05,0,6.09,0,9.14,0Z"/>
      <path d="M128.07,191.08c0-3.06,0-6.11,0-9.17,0,0-.15.16-.15.16h18.14l-.14-.14c.05,3.05.1,6.09.14,9.14-6.05-.05-12.1-.09-18.14-.14l.15.16Z"/>
      <path d="M182.07,308.07h-9.14v-17.69h9.14v17.69Z"/>
      <path d="M209.09,244.93h-8.72v-8.86c2.89,0,5.81,0,8.72,0,0,0-.16-.14-.16-.14,0,3.05,0,6.1,0,9.14l.16-.14Z"/>
      <path d="M164.21,253.61v-8.3h8.53v8.3h-8.53Z"/>
      <path d="M163.93,226.91v8.72h-8.86c0-2.89,0-5.81,0-8.72,0,0-.14.16-.14.16,3.05,0,6.1,0,9.14,0l-.14-.16Z"/>
      <path d="M200.07,263.09v-9.01c3.15,0,6.08,0,9.01,0,0,0-.16-.14-.16-.14.05,3.05.09,6.1.14,9.14-3.05-.05-6.09-.1-9.14-.14l.14.16Z"/>
      <path d="M127.9,227.06h8.72v8.6h-8.57c0-2.93,0-5.84,0-8.75,0,0-.15.15-.15.15Z"/>
      <path d="M155.06,281.1v-8.72h8.59v8.57c-2.93,0-5.84,0-8.75,0,0,0,.15.15.15.15Z"/>
      <path d="M83.22,199.73v-8.38h8.47v8.38h-8.47Z"/>
      <path d="M65.06,200.1v-8.72h8.6v8.57c-2.93,0-5.84,0-8.75,0,0,0,.15.15.15.15Z"/>
      <path d="M209.09,289.93h-9.01c0-3.15,0-6.08,0-9.01,0,0-.14.16-.14.16h9v9l.16-.14Z"/>
      <path d="M118.93,299.07c0-3.05,0-6.09,0-9.14h9.14v9.14h-9.14Z"/>
      <path d="M74.07,308.07h-9v9h-17.7v-8.81c2.74-.15,5.46-.3,8.51-.47v-8.41h18.19v8.68Z"/>
      <path d="M82.94,280.9v8.73h-17.59v-8.58c5.95,0,11.84,0,17.74,0,0,0-.15-.15-.15-.15Z"/>
      <path d="M47.06,290.1v-8.72h8.59v8.57c-2.93,0-5.84,0-8.75,0,0,0,.15.15.15.15Z"/>
      <path d="M64.93,316.93h9.14v9.14h-9.14c0-3.05,0-6.09,0-9.14Z"/>
      <path d="M109.93,308.07c0-3.05,0-6.09,0-9.14h9.14v9.14h-9.14Z"/>
      <path d="M290.09,370.93h-8.73v-17.86c2.9,0,5.82,0,8.73,0l-.16-.14v18.14l.16-.14Z"/>
      <path d="M209.06,434.1v-8.72h8.59v8.57c-2.93,0-5.84,0-8.75,0,0,0,.15.15.15.15Z"/>
      <path d="M245.29,425.25h8.33v8.42h-8.33v-8.42Z"/>
      <path d="M389.28,362.23v-8.96h8.31v8.82c-2.7,0-5.58,0-8.47,0,0,0,.16.14.16.14Z"/>
      <path d="M389.23,370.72h-9.01c0-3.14,0-6.06,0-8.99,0,0-.14.16-.14.16,3.07.11,6.13.22,9.19.34,0,0-.16-.14-.16-.14,0,2.93-.02,5.86-.04,8.8,0,0,.14-.16.14-.16Z"/>
      <path d="M389.09,380.05c.04-3.11.08-6.21.13-9.33,0,0-.14.16-.14.16,2.76,0,5.52,0,8.59,0v9.02h-8.73l.15.15Z"/>
      <path d="M388.94,379.9v8.72h-8.59v-8.57c2.93,0,5.84,0,8.75,0,0,0-.15-.15-.15-.15Z"/>
      <path d="M389.23,406.72h-8.96v-8.31h8.82c0,2.7,0,5.58,0,8.47,0,0,.14-.16.14-.16Z"/>
      <path d="M398.07,406.93v9.14h-9.14c.1-3.11.19-6.23.29-9.34,0,0-.14.16-.14.16,3,.01,5.99.03,8.98.05Z"/>
      <path d="M425.32,425.11h8.28v8.53h-8.28v-8.53Z"/>
      <path d="M452.07,398.07c-3.05,0-6.09,0-9.14,0v-9.14h-9.02s.16.14.16.14v-9.14s-.16.14-.16.14c5.8,0,11.6,0,18.15,0v18Z"/>
      <path d="M218.43,128.12h8.18v8.53h-8.18v-8.53Z"/>
      <path d="M245.21,73.61v-8.3h8.53v8.3h-8.53Z"/>
      <path d="M209.07,73.93v8.98c-3.29,0-6.21,0-9.14,0,0,0,.15.16.15.16v-9.14l-.14.16c3.05-.05,6.09-.1,9.14-.15Z"/>
      <path d="M191.07,82.92c-3.05.05-6.09.1-9.14.15,0-3.05,0-6.09,0-9.14,3.05.05,6.09.1,9.14.15l-.14-.16c0,3.05,0,6.1,0,9.14l.15-.16Z"/>
      <path d="M191.07,74.09v-8.72h8.86c0,2.89,0,5.81,0,8.72,0,0,.14-.16.14-.16h-9.14l.14.16Z"/>
      <path d="M190.93,92.07c.05-3.05.09-6.1.14-9.15,0,0-.15.16-.15.16h9.14s-.15-.16-.15-.16c.05,3.05.09,6.1.14,9.15-3.05,0-6.09,0-9.14,0Z"/>
      <path d="M65.25,253.71v-8.33h8.42v8.33h-8.42Z"/>
      <path d="M46.93,164.07c0-3.05,0-6.09,0-9.14h9.14v9.14c-3.05,0-6.09,0-9.14,0Z"/>
      <path d="M64.93,118.93c3.05,0,6.09,0,9.14,0v9.14h-9.14v-9.14Z"/>
      <path d="M137.07,145.93c-.05,3.05-.09,6.1-.14,9.15,0,0,.14-.16.14-.16-3.05,0-6.1,0-9.14,0,0,0,.14.16.14.16,0-2.8,0-5.61,0-9.15h9Z"/>
      <path d="M109.93,137.07v-9.14c3.04.06,6.08.11,9.13.17l-.15-.15v9.12h-8.98Z"/>
      <path d="M119.06,128.1v-8.72h8.6v8.57c-2.93,0-5.84,0-8.75,0,0,0,.15.15.15.15Z"/>
      <path d="M334.9,389.06h8.72v8.59h-8.57c0-2.93,0-5.84,0-8.75,0,0-.15.15-.15.15Z"/>
      <path d="M55.64,55.75h-26.36v-26.34h26.36v26.34Z"/>
      <path d="M469.62,55.77h-26.32v-26.34h26.32v26.34Z"/>
      <path d="M29.38,443.24h26.34v26.34h-26.34v-26.34Z"/>
      <path class="cls-1" d="M262.79,236.34v26.41h-26.41v-26.41h26.41ZM245.27,245.22v8.47h8.38v-8.47h-8.38Z"/>
      <path class="cls-1" d="M208.93,290.07v-9h-9v-18.14c3.05.05,6.09.1,9.14.14l-.13-.14v9.14h9.14l-.14-.14v9.14h9.14l-.14-.13v9.14h-18Z"/>
      <path class="cls-1" d="M254.08,325.94h-8.91v8.79h-17.91v-8.61h8.5v-8.81h18.18c0,2.93,0,5.85,0,8.77,0,0,.14-.14.14-.14Z"/>
      <path class="cls-1" d="M208.93,245.07c0-3.05,0-6.1,0-9.14h8.89v-9h9.25v18.14h-18.14Z"/>
      <path class="cls-1" d="M272.07,208.93v18.14h-8.88v-8.91h-9.26v-9.23h18.14Z"/>
      <path class="cls-1" d="M226.93,272.07h17.7v17.57h-8.47v-8.7h-9.23s.14.13.14.13v-9.14l-.13.14Z"/>
      <path class="cls-1" d="M209.07,263.07c-.05-3.05-.09-6.1-.14-9.14h9v9.14l.14-.13h-9.14s.13.14.13.14Z"/>
      <path class="cls-1" d="M281.08,262.94h-8.74v-8.63h8.61c0,2.93,0,5.85,0,8.77,0,0,.14-.14.14-.14Z"/>
      <path class="cls-1" d="M217.93,263.07h9.01c0,3.25,0,6.13,0,9.01,0,0,.13-.14.13-.14h-9.14l.14.14v-9.14l-.14.13Z"/>
      <path class="cls-1" d="M227.06,308.08v-8.74h8.63v8.61c-2.93,0-5.85,0-8.77,0,0,0,.14.14.14.14Z"/>
      <path class="cls-1" d="M263.07,298.93v9.14h-8.75v-9.14h8.75Z"/>
      <path class="cls-1" d="M253.94,343.92v8.74h-8.63v-8.61c2.93,0,5.85,0,8.77,0,0,0-.14-.14-.14-.14Z"/>
      <path class="cls-1" d="M146.07,182.07h-18.14v-8.9h9v-9.24h26.99v9.13l.14-.14h-17.99v9.15Z"/>
      <path class="cls-1" d="M145.93,209.07c.05-3.05.1-6.09.14-9.14,0,0-.14.13-.14.13h9.14v-9.14l-.13.14h18.14v18h-27.14Z"/>
      <path class="cls-1" d="M190.93,199.93c3.05,0,6.1,0,9.14,0v17.74h-27.14v-8.74h18v-9Z"/>
      <path class="cls-1" d="M146.07,191.07c-.05-3.05-.1-6.09-.14-9.14h9.01v9.14s.13-.14.13-.14h-9.14l.14.13Z"/>
      <path class="cls-1" d="M163.92,173.06h8.74v8.63h-8.61c0-2.93,0-5.85,0-8.77,0,0-.14.14-.14.14Z"/>
      <path class="cls-1" d="M127.93,154.93c3.05,0,6.1,0,9.14,0,0,3.05,0,6.1,0,9.14h-9.14v-9.14Z"/>
      <path class="cls-1" d="M164.07,227.07c-3.05,0-6.1,0-9.14,0v-8.75h9.14v8.75Z"/>
      <path class="cls-1" d="M362.07,280.93v9.14h-9.14v-9.14h9.14Z"/>
      <path class="cls-1" d="M361.93,289.93h9.14v9.14h-9.14v-9.14Z"/>
      <path class="cls-1" d="M335.28,299.07h8.35v8.6h-8.35v-8.6Z"/>
      <path class="cls-1" d="M281.07,209.07c-3.05,0-6.1,0-9.14,0v-8.75h9.14v8.75Z"/>
      <path class="cls-1" d="M299.18,388.65v-8.39h17.6v8.39h-17.6Z"/>
      <path class="cls-1" d="M289.93,371.07v-18.14h8.75v18.14h-8.75Z"/>
      <path class="cls-1" d="M434.07,379.93v9.14h-8.75v-9.14h8.75Z"/>
      <path class="cls-1" d="M397.79,326.26v8.4h-8.49v-8.4h8.49Z"/>
      <path class="cls-1" d="M127.93,190.93c6.05.05,12.1.09,18.14.14l-.14-.13v9.14s.14-.13.14-.13c-5.85,0-11.71,0-18.14,0v-9.01Z"/>
      <path class="cls-1" d="M200.07,83.07h-9.14c0-3.05,0-6.1,0-9.14h9.14v9.14Z"/>
      <path d="M245.27,245.22h8.38v8.47h-8.38v-8.47Z"/>
      <path d="M218.07,262.93v9.14h-9.14v-9.14h9.14Z"/>
      <path d="M217.93,271.93h9.14v9.14h-9.14v-9.14Z"/>
      <path d="M145.93,200.07v-9.14h9.14v9.14h-9.14Z"/>
    </g>
  </g>
</svg>